{"glyphs":{"0":{"ha":847,"x_min":0,"x_max":0,"o":"m 336 -21 b 60 313 117 -21 24 111 l 125 683 b 511 1007 160 883 296 1007 b 788 674 726 1007 824 875 l 722 304 b 336 -21 686 101 546 -21 m 351 104 b 590 313 483 104 568 183 l 656 683 b 494 882 679 811 618 882 b 257 674 363 882 279 803 l 192 304 b 351 104 169 175 225 104 "},"1":{"ha":554,"x_min":0,"x_max":0,"o":"m 236 0 b 211 40 210 0 207 13 l 349 825 l 163 731 b 122 744 138 719 131 724 l 101 797 b 121 843 93 819 96 829 l 367 971 b 421 986 388 982 393 986 l 475 986 b 503 946 503 986 507 972 l 340 31 b 300 0 336 6 324 0 l 236 0 "},"2":{"ha":797,"x_min":0,"x_max":0,"o":"m 28 0 b 1 42 0 0 -1 17 l 22 157 b 324 471 56 346 189 414 b 621 747 483 536 621 568 b 483 882 621 835 571 882 b 250 732 374 882 304 829 b 210 718 240 713 229 710 l 150 740 b 138 790 125 750 126 767 b 493 1007 206 926 306 1007 b 760 760 668 1007 760 900 b 407 372 760 529 618 456 b 171 174 281 322 194 274 b 161 125 168 157 164 142 l 615 125 b 643 83 644 125 647 108 l 633 33 b 597 0 629 10 619 0 l 28 0 "},"3":{"ha":814,"x_min":0,"x_max":0,"o":"m 339 -21 b 32 226 139 -21 51 68 b 56 265 29 250 32 258 l 119 286 b 158 253 144 294 153 282 b 344 104 169 153 221 104 b 568 319 488 104 568 192 b 436 443 568 393 528 443 l 286 443 b 261 483 258 443 257 461 l 269 532 b 306 564 275 560 281 564 l 435 564 b 619 761 553 564 619 647 b 476 882 619 838 571 882 b 247 721 358 882 294 828 b 201 708 236 699 225 700 l 150 726 b 133 779 122 738 122 754 b 488 1007 204 925 301 1007 b 756 783 656 1007 756 922 b 600 510 756 653 700 557 b 703 331 667 478 703 413 b 339 -21 703 118 561 -21 "},"4":{"ha":832,"x_min":0,"x_max":0,"o":"m 467 0 b 438 38 442 0 432 8 l 476 250 l 42 250 b 11 289 15 250 6 258 l 18 331 b 39 378 22 354 26 364 l 575 971 b 628 993 594 992 603 993 l 700 993 b 725 951 725 993 731 979 l 622 369 l 722 369 b 750 329 749 369 756 357 l 743 282 b 707 250 739 256 732 250 l 601 250 l 563 35 b 526 0 560 13 551 0 l 467 0 m 496 369 l 575 808 l 182 369 "},"5":{"ha":789,"x_min":0,"x_max":0,"o":"m 321 -21 b 22 213 138 -21 56 65 b 42 250 15 236 24 244 l 103 269 b 143 243 126 276 136 271 b 333 103 161 158 215 103 b 556 346 468 103 556 206 b 371 482 556 439 508 482 l 139 482 b 108 531 107 482 101 503 l 217 936 b 276 986 226 976 239 986 l 736 986 b 763 946 765 986 767 971 l 754 893 b 717 861 749 867 738 861 l 326 861 l 260 606 l 404 606 b 692 364 617 606 692 508 b 321 -21 692 132 543 -21 "},"6":{"ha":843,"x_min":0,"x_max":0,"o":"m 344 -21 b 54 249 153 -21 54 82 b 119 661 54 307 65 353 b 511 1007 160 889 296 1007 b 799 786 686 1007 775 928 b 778 747 803 764 800 753 l 711 729 b 676 758 685 722 681 736 b 507 882 657 842 607 882 b 254 660 367 882 282 810 l 233 550 b 457 590 276 564 357 590 b 736 364 651 590 736 514 b 344 -21 736 132 585 -21 m 353 104 b 603 346 511 104 603 201 b 435 471 603 429 553 471 b 214 428 326 471 250 442 b 188 261 193 321 188 289 b 353 104 188 158 240 104 "},"7":{"ha":707,"x_min":0,"x_max":0,"o":"m 111 0 b 96 40 85 0 82 17 l 586 861 l 149 861 b 121 903 122 861 117 875 l 131 954 b 174 986 136 982 147 986 l 726 986 b 753 946 753 986 757 974 l 746 908 b 729 858 742 886 740 878 l 236 29 b 182 0 221 3 211 0 l 111 0 "},"8":{"ha":836,"x_min":0,"x_max":0,"o":"m 331 -21 b 29 204 132 -21 29 58 b 258 513 29 336 111 453 b 144 715 183 556 143 618 b 496 1007 147 894 278 1007 b 781 785 678 1007 781 926 b 576 506 781 664 704 561 b 722 285 678 457 722 388 b 331 -21 722 96 575 -21 m 463 554 b 649 761 575 589 649 668 b 489 890 649 844 594 890 b 279 728 361 890 279 825 b 463 554 279 639 344 579 m 342 96 b 583 276 486 96 583 164 b 378 449 583 375 510 417 b 165 228 254 417 165 329 b 342 96 165 140 226 96 "},"9":{"ha":843,"x_min":0,"x_max":0,"o":"m 332 -21 b 44 200 158 -21 69 57 b 64 239 40 222 43 233 l 128 257 b 163 229 151 263 158 250 b 336 104 182 144 235 104 b 590 325 476 104 563 176 l 610 436 b 389 396 549 414 468 396 b 107 625 194 396 107 475 b 492 1007 107 858 251 1007 b 789 739 682 1007 789 907 b 722 324 789 681 779 633 b 332 -21 682 97 549 -21 m 408 517 b 631 558 517 517 593 544 b 654 726 651 667 654 697 b 486 882 654 829 597 882 b 240 646 329 882 240 792 b 408 517 240 561 292 517 "}," ":{"ha":317,"x_min":0,"x_max":0,"o":""},"!":{"ha":338,"x_min":0,"x_max":0,"o":"m 113 256 b 83 293 89 256 81 268 l 194 999 b 228 1028 197 1024 203 1028 l 290 1028 b 321 990 315 1028 326 1015 l 181 285 b 146 256 176 260 171 256 l 113 256 m 78 -10 b 17 65 25 -10 7 11 l 19 76 b 99 143 29 129 44 143 l 108 143 b 168 68 161 143 178 121 l 167 57 b 88 -10 157 3 142 -10 l 78 -10 "},"\"":{"ha":472,"x_min":0,"x_max":0,"o":"m 151 646 b 129 678 128 646 124 654 l 179 961 b 215 986 183 986 190 986 l 267 986 b 290 953 290 986 296 976 l 224 671 b 186 646 218 646 207 646 l 151 646 m 326 646 b 303 678 301 646 299 654 l 353 961 b 389 986 358 986 365 986 l 440 986 b 464 953 465 986 469 976 l 399 671 b 360 646 392 646 382 646 l 326 646 "},"#":{"ha":922,"x_min":0,"x_max":0,"o":"m 76 0 b 58 36 56 0 49 13 l 154 256 l 43 256 b 22 289 22 256 13 268 l 49 338 b 88 361 60 360 65 361 l 204 361 l 297 571 l 186 571 b 165 604 165 571 156 583 l 192 653 b 231 676 203 675 210 676 l 347 676 l 438 888 b 476 915 447 911 454 915 l 535 915 b 554 879 557 915 564 903 l 465 676 l 639 676 l 729 888 b 767 915 739 911 746 915 l 826 915 b 846 879 847 915 854 903 l 757 676 l 869 676 b 890 643 892 676 899 664 l 865 594 b 825 571 854 572 847 571 l 706 571 l 614 361 l 726 361 b 747 328 749 361 758 349 l 721 279 b 682 256 710 258 704 256 l 563 256 l 465 26 b 428 0 456 4 449 0 l 368 0 b 349 36 346 0 340 14 l 444 256 l 271 256 l 174 26 b 136 0 165 4 158 0 l 76 0 m 496 361 l 588 571 l 415 571 l 322 361 "},"$":{"ha":794,"x_min":0,"x_max":0,"o":"m 254 -96 b 233 -58 231 -96 228 -83 l 251 21 b 38 232 129 40 65 115 b 53 285 28 264 28 276 l 114 304 b 150 281 133 310 143 304 b 346 129 175 185 231 129 b 572 301 483 129 572 193 b 390 444 572 393 499 428 b 117 696 233 469 117 522 b 413 974 117 857 228 958 l 429 1053 b 465 1082 433 1078 443 1082 l 535 1082 b 557 1044 557 1082 563 1069 l 540 967 b 756 763 661 947 728 876 b 739 718 764 733 760 724 l 679 700 b 644 715 660 693 650 699 b 450 858 622 808 564 858 b 244 701 321 858 244 804 b 422 554 244 596 317 572 b 700 314 599 524 700 460 b 379 15 700 136 575 31 l 361 -67 b 325 -96 357 -92 347 -96 l 254 -96 "},"%":{"ha":1097,"x_min":0,"x_max":0,"o":"m 278 499 b 99 706 142 499 76 579 l 118 806 b 354 1007 139 935 225 1007 b 532 797 490 1007 556 926 l 515 697 b 278 499 493 571 407 499 m 111 0 b 94 40 86 0 79 21 l 872 960 b 938 986 896 986 901 986 l 989 986 b 1006 947 1013 986 1021 967 l 228 29 b 158 0 203 0 199 0 l 111 0 m 286 597 b 414 713 358 597 401 643 l 429 801 b 344 907 442 871 410 907 b 217 792 272 907 231 863 l 201 704 b 286 597 189 633 221 597 m 743 -21 b 564 186 607 -21 542 60 l 582 286 b 818 488 604 415 690 488 b 996 278 956 488 1019 407 l 979 178 b 743 -21 957 51 871 -21 m 751 78 b 879 193 824 78 867 124 l 896 282 b 811 388 907 351 876 388 b 682 272 739 388 696 343 l 667 185 b 751 78 656 114 686 78 "},"&":{"ha":901,"x_min":0,"x_max":0,"o":"m 251 -21 b 22 206 111 -21 22 69 b 268 547 22 368 124 469 b 199 728 232 597 199 660 b 468 1007 199 892 307 1007 b 683 814 593 1007 683 931 b 454 517 683 667 585 588 l 436 507 l 590 297 l 686 385 b 721 379 700 399 707 396 l 756 339 b 751 300 767 324 767 314 l 649 207 l 772 29 b 758 0 786 10 778 0 l 675 0 b 633 21 653 0 643 4 l 557 124 b 251 -21 426 3 342 -21 m 410 610 b 571 801 497 651 571 707 b 461 899 571 863 525 899 b 311 732 371 899 311 829 b 371 588 311 685 336 635 m 263 97 b 497 215 328 97 396 124 l 328 450 b 146 218 224 400 146 326 b 263 97 146 146 192 97 "},"'":{"ha":301,"x_min":0,"x_max":0,"o":"m 154 646 b 132 678 131 646 126 654 l 182 961 b 218 986 186 986 193 986 l 269 986 b 293 953 293 986 299 976 l 226 671 b 189 646 221 646 210 646 l 154 646 "},"(":{"ha":372,"x_min":0,"x_max":0,"o":"m 107 -343 b 4 -19 14 -286 -28 -197 l 132 706 b 340 1022 164 883 224 965 b 379 1000 364 1033 368 1019 l 400 958 b 385 911 411 939 404 925 b 253 697 321 872 274 814 l 124 -31 b 169 -250 103 -146 121 -214 b 182 -289 189 -262 193 -274 l 147 -333 b 107 -343 135 -350 121 -351 "},")":{"ha":367,"x_min":0,"x_max":0,"o":"m -28 -344 b -67 -321 -51 -354 -57 -342 l -89 -281 b -72 -233 -100 -260 -93 -246 b 58 -19 -8 -194 38 -135 l 188 710 b 142 928 208 825 192 892 b 129 968 122 942 118 953 l 164 1011 b 204 1022 176 1028 190 1029 b 308 699 297 965 339 876 l 179 -26 b -28 -344 147 -206 88 -286 "},"*":{"ha":500,"x_min":0,"x_max":0,"o":"m 356 581 b 328 593 340 572 333 581 l 288 689 l 213 585 b 186 582 204 571 196 574 l 160 606 b 157 635 147 617 147 622 l 246 733 l 154 761 b 138 792 138 765 131 776 l 154 826 b 183 831 161 840 171 838 l 272 788 l 289 918 b 314 936 290 933 297 936 l 342 936 b 360 908 358 936 363 925 l 332 788 l 435 835 b 460 819 449 842 458 836 l 465 783 b 449 760 468 769 464 763 l 336 732 l 389 629 b 386 599 397 617 399 608 l 356 581 "},"+":{"ha":746,"x_min":0,"x_max":0,"o":"m 288 126 b 257 167 261 126 253 140 l 297 397 l 93 397 b 64 438 68 397 58 410 l 71 481 b 107 513 75 508 82 513 l 318 513 l 360 750 b 396 782 365 778 371 782 l 444 782 b 475 742 469 782 479 768 l 433 513 l 640 513 b 669 472 665 513 674 499 l 661 429 b 626 397 657 401 651 397 l 414 397 l 372 158 b 336 126 367 131 361 126 l 288 126 "},",":{"ha":304,"x_min":0,"x_max":0,"o":"m -39 -169 b -61 -139 -61 -169 -68 -158 l 22 103 b 74 139 33 135 43 139 l 126 139 b 153 94 160 139 165 121 l 28 -140 b -14 -169 17 -164 8 -169 l -39 -169 "},"-":{"ha":561,"x_min":0,"x_max":0,"o":"m 101 308 b 72 349 76 308 67 322 l 79 396 b 115 428 85 424 90 428 l 417 428 b 446 388 442 428 450 414 l 438 340 b 403 308 432 314 426 308 l 101 308 "},".":{"ha":313,"x_min":0,"x_max":0,"o":"m 67 -10 b 6 65 13 -10 -4 11 l 8 76 b 86 143 18 129 33 143 l 96 143 b 157 68 150 143 167 121 l 154 57 b 76 -10 144 3 129 -10 l 67 -10 "},"/":{"ha":615,"x_min":0,"x_max":0,"o":"m -21 -83 b -42 -49 -46 -83 -51 -69 l 514 960 b 558 988 526 983 533 988 l 618 988 b 642 953 643 988 651 974 l 88 -57 b 39 -83 75 -81 65 -83 l -21 -83 "},":":{"ha":343,"x_min":0,"x_max":0,"o":"m 181 529 b 119 606 128 529 110 550 l 122 615 b 201 683 132 669 147 683 l 210 683 b 271 607 264 683 281 660 l 269 596 b 190 529 258 543 244 529 l 181 529 m 86 -10 b 25 65 32 -10 15 11 l 28 76 b 106 143 38 129 53 143 l 115 143 b 176 68 169 143 186 121 l 174 57 b 96 -10 164 3 149 -10 l 86 -10 "},";":{"ha":374,"x_min":0,"x_max":0,"o":"m 196 529 b 135 606 142 529 125 550 l 138 615 b 215 683 147 669 163 683 l 225 683 b 286 607 279 683 296 660 l 283 596 b 206 529 274 543 258 529 l 196 529 m -4 -169 b -26 -139 -26 -169 -33 -158 l 57 103 b 108 139 68 135 78 139 l 161 139 b 186 94 194 139 200 121 l 63 -140 b 21 -169 51 -164 43 -169 l -4 -169 "},"<":{"ha":646,"x_min":0,"x_max":0,"o":"m 72 393 b 51 440 54 406 46 415 l 56 475 b 89 519 61 500 65 506 l 564 782 b 596 750 593 799 601 782 l 588 697 b 550 639 581 657 575 653 l 210 456 l 208 450 l 476 258 b 499 196 497 244 506 235 l 490 150 b 456 129 485 117 476 114 "},"=":{"ha":779,"x_min":0,"x_max":0,"o":"m 144 531 b 113 571 117 531 107 544 l 119 619 b 160 651 125 646 132 651 l 668 651 b 701 610 696 651 706 638 l 693 563 b 654 531 689 536 682 531 l 144 531 m 96 257 b 64 297 69 257 58 269 l 71 344 b 110 376 76 372 83 376 l 621 376 b 653 336 647 376 658 364 l 644 289 b 607 257 640 261 633 257 l 96 257 "},">":{"ha":646,"x_min":0,"x_max":0,"o":"m 68 125 b 36 158 39 110 31 126 l 44 204 b 82 264 51 243 56 249 l 422 449 l 424 454 l 156 643 b 132 707 135 657 125 667 l 142 758 b 176 778 147 790 154 794 l 560 514 b 582 467 579 501 586 492 l 575 432 b 544 388 571 407 567 400 l 68 125 "},"?":{"ha":756,"x_min":0,"x_max":0,"o":"m 272 233 b 247 276 249 233 242 246 b 411 515 271 410 338 464 b 600 743 489 568 578 610 b 461 910 618 842 571 910 b 226 749 349 910 276 846 b 181 735 210 728 203 726 l 125 756 b 111 806 103 763 99 776 b 471 1028 183 936 293 1028 b 738 732 676 1028 765 894 b 485 424 707 557 592 494 b 364 260 428 385 378 343 b 328 233 360 238 351 233 l 272 233 m 257 -10 b 196 65 203 -10 185 11 l 197 76 b 276 143 208 129 224 143 l 286 143 b 347 68 339 143 357 121 b 344 57 346 64 346 60 b 265 -10 335 3 319 -10 l 257 -10 "},"@":{"ha":1214,"x_min":0,"x_max":0,"o":"m 496 -183 b 56 360 153 -183 -6 21 l 74 461 b 693 1007 132 796 356 1007 b 1124 453 1036 1007 1182 782 l 1106 350 b 836 60 1071 157 954 60 b 742 117 774 60 756 82 b 507 71 688 96 610 71 b 310 306 344 71 285 161 l 346 513 b 611 740 372 657 457 740 b 835 694 715 740 796 713 b 874 628 871 679 881 665 l 799 203 b 839 151 790 161 813 151 b 1013 357 907 151 985 210 l 1031 463 b 692 918 1079 744 964 918 b 169 454 410 918 219 740 l 151 349 b 499 -96 100 60 224 -96 b 781 -58 619 -96 749 -65 b 806 -75 800 -56 808 -58 l 797 -124 b 776 -150 794 -140 790 -144 b 496 -183 746 -154 644 -183 m 524 167 b 693 201 613 167 669 192 l 764 593 b 751 626 767 611 768 621 b 621 646 719 636 671 646 b 447 503 518 646 464 593 l 411 300 b 524 167 396 210 426 167 "},"A":{"ha":874,"x_min":0,"x_max":0,"o":"m -31 0 b -51 40 -57 0 -64 17 l 442 963 b 486 989 454 988 463 989 l 554 989 b 592 956 578 989 588 979 l 761 32 b 736 0 764 8 761 0 l 671 0 b 618 36 633 0 622 11 l 582 257 l 207 257 l 89 28 b 31 0 76 3 67 0 l -31 0 m 564 369 l 510 722 b 506 864 506 769 501 801 l 499 864 b 440 713 490 831 471 779 l 264 369 "},"B":{"ha":871,"x_min":0,"x_max":0,"o":"m 68 0 b 38 40 35 0 33 13 l 199 954 b 235 986 203 976 214 986 l 561 986 b 811 771 725 986 811 910 b 653 513 811 654 761 565 l 651 508 b 764 324 722 478 764 422 b 422 0 764 131 632 0 l 68 0 m 500 558 b 676 735 608 558 672 629 b 540 864 681 819 636 864 l 317 864 l 263 558 m 421 122 b 633 324 550 122 633 206 b 500 444 633 403 586 444 l 242 444 l 186 122 "},"C":{"ha":858,"x_min":0,"x_max":0,"o":"m 367 -21 b 61 339 132 -21 22 118 l 118 657 b 524 1007 156 875 294 1007 b 840 763 722 1007 811 918 b 818 724 846 742 840 731 l 754 706 b 715 733 731 699 721 708 b 515 882 700 835 639 882 b 250 649 363 882 275 794 l 193 329 b 379 104 168 185 232 106 b 626 269 507 104 575 165 b 672 283 638 290 650 292 l 729 263 b 746 210 751 254 760 239 b 367 -21 675 61 558 -21 "},"D":{"ha":889,"x_min":0,"x_max":0,"o":"m 65 0 b 38 40 39 0 32 10 l 199 954 b 240 986 203 979 217 986 l 511 986 b 824 615 753 986 864 842 l 779 363 b 350 0 739 136 592 0 l 65 0 m 361 125 b 647 369 515 125 621 215 l 692 625 b 503 861 719 778 660 861 l 315 861 l 186 125 "},"E":{"ha":774,"x_min":0,"x_max":0,"o":"m 64 0 b 38 38 39 0 33 11 l 199 953 b 242 986 203 981 217 986 l 747 986 b 775 946 776 986 779 974 l 765 894 b 729 861 761 869 751 861 l 315 861 l 263 563 l 613 563 b 640 525 638 563 646 553 l 631 471 b 594 438 626 446 617 438 l 242 438 l 186 125 l 607 125 b 638 86 636 125 643 114 l 628 32 b 592 0 624 7 613 0 l 64 0 "},"F":{"ha":742,"x_min":0,"x_max":0,"o":"m 64 0 b 38 40 38 0 33 14 l 199 954 b 242 986 203 982 217 986 l 736 986 b 765 950 763 986 769 976 l 756 893 b 719 861 750 869 742 861 l 315 861 l 260 549 l 596 549 b 625 511 622 549 631 539 l 615 456 b 576 424 611 431 600 424 l 239 424 l 169 31 b 136 0 165 4 161 0 l 64 0 "},"G":{"ha":886,"x_min":0,"x_max":0,"o":"m 367 -21 b 61 339 132 -21 21 117 l 118 657 b 525 1007 157 882 297 1007 b 836 779 708 1007 807 929 b 817 724 846 744 842 732 l 751 704 b 717 733 735 700 722 708 b 519 882 701 833 643 882 b 249 649 365 882 275 797 l 193 331 b 383 104 168 188 232 104 b 647 310 529 104 625 182 l 664 406 l 450 406 b 421 446 425 406 415 418 l 429 497 b 472 529 433 521 444 529 l 779 529 b 807 488 804 529 813 517 l 775 306 b 367 -21 739 106 588 -21 "},"H":{"ha":922,"x_min":0,"x_max":0,"o":"m 68 0 b 38 40 42 0 31 6 l 199 953 b 239 986 203 979 215 986 l 301 986 b 331 947 332 986 335 975 l 263 563 l 683 563 l 753 953 b 797 986 757 981 771 986 l 857 986 b 885 947 885 986 889 975 l 725 38 b 688 0 721 11 713 0 l 622 0 b 592 38 593 0 586 8 l 663 438 l 242 438 l 169 32 b 133 0 165 13 160 0 l 68 0 "},"I":{"ha":368,"x_min":0,"x_max":0,"o":"m 64 0 b 38 40 40 0 32 8 l 199 956 b 240 986 204 983 222 986 l 303 986 b 331 947 326 986 336 978 l 169 32 b 133 0 165 8 153 0 l 64 0 "},"J":{"ha":769,"x_min":0,"x_max":0,"o":"m 260 -21 b -4 236 89 -21 13 75 b 17 275 -10 257 -4 269 l 81 294 b 121 265 104 301 113 296 b 274 104 128 160 172 104 b 496 321 399 104 472 188 l 608 956 b 647 986 613 982 626 986 l 714 986 b 739 947 738 986 744 974 l 628 313 b 260 -21 590 104 465 -21 "},"K":{"ha":831,"x_min":0,"x_max":0,"o":"m 68 0 b 38 40 39 0 32 10 l 199 956 b 238 986 204 982 218 986 l 304 986 b 331 947 329 986 335 975 l 263 561 l 364 561 l 383 561 l 704 960 b 767 986 725 986 732 986 l 842 986 b 860 947 869 986 872 967 l 507 532 b 608 375 561 507 586 453 l 707 33 b 686 0 713 13 713 0 l 610 0 b 567 36 579 0 572 8 l 486 333 b 363 439 464 413 443 439 l 242 439 l 169 31 b 133 0 164 4 150 0 l 68 0 "},"L":{"ha":701,"x_min":0,"x_max":0,"o":"m 63 0 b 38 40 38 0 33 13 l 199 954 b 240 986 204 982 215 986 l 306 986 b 331 947 329 986 335 975 l 186 125 l 569 125 b 599 86 599 125 603 110 l 589 31 b 553 0 585 8 574 0 l 63 0 "},"M":{"ha":1092,"x_min":0,"x_max":0,"o":"m 64 0 b 38 38 38 0 33 11 l 199 954 b 242 986 203 982 215 986 l 297 986 b 338 954 326 986 331 976 l 521 374 l 913 960 b 961 986 928 985 936 986 l 1028 986 b 1054 946 1054 986 1058 972 l 893 33 b 851 0 889 7 879 0 l 797 0 b 765 38 775 0 760 4 l 856 543 b 921 794 869 621 886 693 l 914 794 b 778 563 867 703 828 636 l 564 251 b 522 229 551 232 544 229 l 482 229 b 446 258 460 229 451 238 l 339 572 b 283 796 314 646 297 701 l 276 796 b 251 533 274 693 265 617 l 163 32 b 124 0 157 4 146 0 l 64 0 "},"N":{"ha":936,"x_min":0,"x_max":0,"o":"m 63 0 b 38 39 38 0 33 11 l 199 954 b 240 986 203 982 215 986 l 311 986 b 342 965 331 986 339 976 l 582 397 b 650 182 614 315 631 254 l 656 182 b 681 451 658 267 663 346 l 771 956 b 813 986 775 982 788 986 l 874 986 b 900 946 899 986 904 975 l 738 33 b 700 0 733 14 726 0 l 626 0 b 596 22 610 0 600 8 l 354 599 b 292 806 324 675 306 742 l 285 806 b 257 546 282 726 274 643 l 165 32 b 125 0 160 4 150 0 l 63 0 "},"O":{"ha":899,"x_min":0,"x_max":0,"o":"m 369 -21 b 61 339 128 -21 22 119 l 117 656 b 529 1007 156 875 293 1007 b 836 647 760 1007 875 869 l 781 331 b 369 -21 743 110 600 -21 m 379 104 b 649 339 528 104 622 189 l 706 656 b 518 882 731 804 661 882 b 249 647 367 882 275 794 l 193 331 b 379 104 168 188 232 104 "},"P":{"ha":844,"x_min":0,"x_max":0,"o":"m 65 0 b 38 38 35 0 33 11 l 199 956 b 243 986 204 979 214 986 l 550 986 b 822 699 739 986 835 885 b 469 358 810 489 674 358 l 228 358 l 169 33 b 132 0 165 10 154 0 l 65 0 m 464 482 b 689 686 593 482 676 556 b 535 861 700 801 647 861 l 315 861 l 250 482 "},"Q":{"ha":938,"x_min":0,"x_max":0,"o":"m 701 -96 b 657 -85 681 -108 669 -104 l 582 24 b 386 -21 528 -7 457 -21 b 83 339 149 -21 43 119 l 139 656 b 547 1007 178 875 317 1007 b 858 647 783 1007 899 867 l 803 331 b 692 96 786 235 750 156 l 764 -14 b 756 -61 776 -35 778 -47 l 701 -96 m 400 104 b 671 339 551 104 646 192 l 728 656 b 539 882 753 803 683 882 b 271 647 386 882 297 794 l 215 331 b 400 104 189 183 256 104 "},"R":{"ha":874,"x_min":0,"x_max":0,"o":"m 63 0 b 38 40 35 0 33 17 l 199 954 b 242 986 204 982 215 986 l 586 986 b 828 721 744 986 839 885 b 582 424 815 564 728 460 b 640 333 613 404 631 369 l 722 33 b 703 0 731 7 724 0 l 635 0 b 583 36 593 0 589 8 l 513 290 b 386 401 490 376 469 401 l 235 401 l 169 35 b 131 0 165 7 154 0 l 63 0 m 499 519 b 693 713 607 519 682 594 b 558 861 704 806 649 861 l 315 861 l 256 519 "},"S":{"ha":847,"x_min":0,"x_max":0,"o":"m 347 -21 b 28 204 172 -21 65 51 b 44 263 18 240 18 253 l 111 282 b 150 258 131 289 142 283 b 363 104 176 153 247 104 b 607 278 506 104 596 169 b 413 439 619 393 535 421 b 117 713 235 465 103 526 b 486 1007 128 894 271 1007 b 806 789 660 1007 764 936 b 789 742 815 758 811 747 l 724 721 b 686 739 704 715 693 719 b 476 879 658 835 593 879 b 253 718 349 879 263 821 b 447 557 240 606 325 576 b 743 289 643 524 757 465 b 347 -21 731 93 583 -21 "},"T":{"ha":740,"x_min":0,"x_max":0,"o":"m 251 0 b 224 39 222 0 219 13 l 368 861 l 135 861 b 106 903 107 861 100 872 l 114 954 b 157 986 119 982 132 986 l 761 986 b 788 946 786 986 793 975 l 778 893 b 738 861 772 867 763 861 l 501 861 l 356 31 b 317 0 350 7 339 0 l 251 0 "},"U":{"ha":924,"x_min":0,"x_max":0,"o":"m 376 -21 b 83 342 139 -21 43 117 l 192 956 b 233 986 196 982 210 986 l 294 986 b 324 947 324 986 328 975 l 215 332 b 388 104 190 188 249 104 b 654 342 539 104 628 190 l 763 956 b 806 986 768 983 785 986 l 868 986 b 894 947 893 986 899 975 l 786 333 b 376 -21 747 108 606 -21 "},"V":{"ha":847,"x_min":0,"x_max":0,"o":"m 301 0 b 267 33 278 0 268 11 l 114 956 b 139 986 111 978 117 986 l 218 986 b 253 950 246 986 250 975 l 354 282 b 363 154 360 239 363 197 l 369 154 b 422 289 381 189 396 235 l 754 958 b 801 986 767 983 778 986 l 881 986 b 899 947 906 986 911 971 l 424 26 b 378 0 411 1 403 0 l 301 0 "},"W":{"ha":1222,"x_min":0,"x_max":0,"o":"m 235 0 b 194 33 210 0 196 10 l 128 956 b 154 986 126 979 129 986 l 231 986 b 268 950 260 986 267 976 l 300 347 b 296 185 303 301 300 244 l 303 185 b 363 356 319 249 342 306 l 619 947 b 669 975 632 974 643 975 l 725 975 b 767 939 751 975 767 965 l 813 346 b 813 185 815 293 815 239 l 819 185 b 872 354 833 247 854 304 l 1121 958 b 1163 986 1129 982 1135 986 l 1236 986 b 1257 946 1263 986 1267 971 l 867 26 b 822 0 857 0 846 0 l 751 0 b 711 33 726 0 713 10 l 667 651 b 667 793 664 696 663 743 l 661 793 b 608 644 649 744 628 689 l 346 26 b 300 0 336 0 324 0 l 235 0 "},"X":{"ha":840,"x_min":0,"x_max":0,"o":"m -32 0 b -43 42 -58 0 -60 19 l 335 504 l 132 956 b 150 986 125 974 126 986 l 236 986 b 283 953 268 986 274 982 l 438 608 l 714 960 b 768 986 733 986 740 986 l 856 986 b 874 949 882 986 886 967 l 507 506 l 719 35 b 693 0 728 14 719 0 l 615 0 b 567 36 583 0 576 7 l 404 403 l 115 29 b 57 0 99 6 83 0 l -32 0 "},"Y":{"ha":856,"x_min":0,"x_max":0,"o":"m 304 0 b 279 40 279 0 275 14 l 343 397 l 118 953 b 138 986 111 974 113 986 l 213 986 b 267 950 253 986 260 976 l 432 524 l 751 957 b 813 986 768 983 772 986 l 885 986 b 901 946 910 986 914 967 l 476 394 l 411 33 b 371 0 407 6 397 0 l 304 0 "},"Z":{"ha":774,"x_min":0,"x_max":0,"o":"m 11 0 b -19 38 -19 0 -24 11 l -10 92 b 6 131 -7 108 -4 118 l 611 863 l 167 863 b 139 903 136 863 133 876 l 147 954 b 188 986 153 982 164 986 l 758 986 b 786 946 783 986 790 974 l 775 894 b 760 857 772 878 768 868 l 156 125 l 614 125 b 643 85 644 125 647 113 l 633 32 b 593 0 628 4 618 0 l 11 0 "},"[":{"ha":388,"x_min":0,"x_max":0,"o":"m -8 -354 b -37 -317 -36 -354 -43 -344 l 196 1008 b 232 1038 201 1036 204 1038 l 408 1038 b 436 1000 435 1038 442 1028 l 428 953 b 394 926 424 926 422 926 l 300 926 l 94 -243 l 182 -243 b 211 -281 210 -243 215 -253 l 203 -326 b 168 -354 197 -354 196 -354 l -8 -354 "},"\\":{"ha":563,"x_min":0,"x_max":0,"o":"m 314 -83 b 289 -53 294 -83 290 -72 l 138 963 b 160 986 136 981 142 986 l 233 986 b 261 956 254 986 258 976 l 411 -58 b 389 -83 413 -75 407 -83 l 314 -83 "},"]":{"ha":388,"x_min":0,"x_max":0,"o":"m -75 -354 b -103 -318 -101 -354 -108 -346 l -94 -271 b -61 -243 -90 -243 -87 -243 l 33 -243 l 239 926 l 151 926 b 122 963 125 926 118 935 l 131 1010 b 165 1038 135 1036 138 1038 l 342 1038 b 371 1000 369 1038 376 1026 l 138 -326 b 103 -354 132 -353 131 -354 l -75 -354 "},"^":{"ha":810,"x_min":0,"x_max":0,"o":"m 149 722 b 132 765 118 722 108 740 l 440 1090 b 490 1117 458 1111 468 1117 l 532 1117 b 572 1085 557 1117 561 1104 l 768 758 b 751 722 783 733 781 722 l 689 722 b 631 756 651 722 644 729 l 494 994 l 490 994 l 272 749 b 206 722 247 721 242 722 l 149 722 "},"_":{"ha":686,"x_min":0,"x_max":0,"o":"m -22 -119 b -53 -79 -49 -119 -57 -106 l -44 -32 b -3 0 -40 -4 -29 0 l 514 0 b 544 -40 542 0 549 -14 l 536 -87 b 496 -119 531 -114 522 -119 l -22 -119 "},"`":{"ha":386,"x_min":0,"x_max":0,"o":"m 100 939 b 96 979 82 947 78 960 l 131 1013 b 189 1008 153 1035 171 1021 l 360 878 b 363 839 375 868 379 856 l 347 824 b 303 824 336 813 322 814 "},"a":{"ha":689,"x_min":0,"x_max":0,"o":"m 265 -21 b 14 167 71 -21 14 57 b 322 418 14 349 133 418 b 469 404 388 418 444 410 b 483 493 479 456 482 474 b 364 626 493 581 451 626 b 199 543 288 626 238 594 b 160 529 185 524 178 521 l 115 550 b 104 599 93 560 89 575 b 385 738 167 688 249 738 b 606 486 544 738 625 646 b 539 99 592 397 576 315 b 475 17 531 50 517 33 b 265 -21 419 -6 350 -21 m 271 82 b 393 103 319 82 360 90 b 422 135 411 108 418 114 l 453 304 b 307 319 424 311 372 319 b 139 178 188 319 139 263 b 271 82 139 119 168 82 "},"b":{"ha":728,"x_min":0,"x_max":0,"o":"m 288 -21 b 68 28 185 -21 106 7 b 31 104 29 47 22 61 l 188 999 b 224 1028 192 1018 203 1028 l 285 1028 b 310 990 308 1028 315 1015 l 260 703 b 422 738 292 715 353 738 b 642 458 599 738 672 629 l 608 261 b 288 -21 578 79 468 -21 m 289 92 b 486 269 406 92 467 154 l 521 463 b 399 624 539 569 501 624 b 239 588 328 624 265 601 l 161 142 b 174 114 158 125 158 121 b 289 92 196 103 239 92 "},"c":{"ha":690,"x_min":0,"x_max":0,"o":"m 274 -21 b 36 258 86 -21 3 81 l 74 467 b 382 738 104 643 207 738 b 635 542 538 738 621 664 b 610 504 638 518 632 511 l 560 489 b 524 513 539 482 529 489 b 385 628 511 592 472 628 b 194 460 278 628 214 567 l 157 250 b 285 89 139 149 181 89 b 456 203 381 89 419 138 b 506 231 471 236 479 239 l 558 214 b 565 154 579 207 581 189 b 274 -21 507 36 418 -21 "},"d":{"ha":728,"x_min":0,"x_max":0,"o":"m 282 -21 b 40 272 89 -21 6 83 l 74 467 b 376 738 107 644 210 738 b 540 701 453 738 510 715 l 593 999 b 632 1028 597 1018 608 1028 l 692 1028 b 717 990 714 1028 721 1017 l 558 94 b 499 18 550 49 539 35 b 282 -21 450 -3 363 -21 m 290 92 b 415 114 340 92 386 103 b 444 149 436 124 440 128 l 522 592 b 385 625 501 603 450 625 b 194 454 276 625 215 572 l 163 268 b 290 92 140 150 182 92 "},"e":{"ha":674,"x_min":0,"x_max":0,"o":"m 393 738 b 636 532 554 738 646 663 b 339 294 626 378 515 294 b 168 304 275 294 221 297 l 154 226 b 274 72 136 126 176 72 b 465 188 365 72 426 121 b 503 194 475 203 488 203 l 546 171 b 554 129 567 160 565 147 b 267 -21 494 39 415 -21 b 33 221 90 -21 21 75 b 69 449 38 271 46 324 b 393 738 103 635 204 738 m 514 525 b 386 644 522 608 474 644 b 194 458 285 644 217 583 l 183 392 b 319 382 228 385 272 382 b 514 525 435 382 504 429 "},"f":{"ha":457,"x_min":0,"x_max":0,"o":"m 83 0 b 60 38 60 0 56 13 l 160 603 l 78 603 b 51 639 54 603 47 613 l 61 689 b 100 717 65 713 79 717 l 179 717 l 185 747 b 478 1028 219 942 307 1025 l 492 1028 b 519 990 515 1028 524 1015 l 511 942 b 482 913 507 917 501 913 b 307 738 372 914 329 867 l 303 717 l 438 717 b 464 679 461 717 468 704 l 457 639 b 421 603 451 613 444 603 l 283 603 l 182 29 b 143 0 178 7 167 0 l 83 0 "},"g":{"ha":725,"x_min":0,"x_max":0,"o":"m 217 -336 b -18 -187 89 -336 15 -279 b -7 -142 -28 -162 -26 -151 l 49 -114 b 83 -128 65 -106 74 -110 b 218 -225 108 -189 142 -225 b 410 -40 329 -225 386 -158 l 425 36 b 251 4 385 19 325 4 b 40 279 81 4 11 104 l 71 454 b 393 738 104 647 203 738 b 614 694 479 738 563 719 b 649 618 649 676 656 661 l 532 -43 b 217 -336 497 -232 400 -336 m 283 117 b 442 149 351 117 403 132 l 517 569 b 500 604 521 589 519 596 b 385 625 474 615 432 625 b 192 442 271 625 215 569 l 163 278 b 283 117 144 169 178 117 "},"h":{"ha":742,"x_min":0,"x_max":0,"o":"m 50 0 b 24 36 26 0 19 11 l 193 999 b 233 1028 197 1024 213 1028 l 290 1028 b 315 990 313 1028 319 1014 l 265 707 b 433 738 304 724 365 738 b 640 463 611 738 671 635 l 565 29 b 526 0 561 6 547 0 l 465 0 b 443 38 443 0 439 15 l 517 463 b 403 625 536 575 500 625 b 246 593 342 625 286 611 l 146 31 b 106 0 140 6 128 0 l 50 0 "},"i":{"ha":325,"x_min":0,"x_max":0,"o":"m 211 865 b 168 929 172 865 160 881 l 172 946 b 228 1003 181 992 190 1003 l 271 1003 b 313 938 310 1003 319 983 l 310 921 b 253 865 300 874 292 865 l 211 865 m 42 0 b 21 36 24 0 17 13 l 136 688 b 172 717 140 713 157 717 l 236 717 b 258 679 256 717 263 706 l 143 31 b 107 0 138 6 125 0 l 42 0 "},"j":{"ha":319,"x_min":0,"x_max":0,"o":"m 213 865 b 169 929 174 865 161 881 l 174 947 b 229 1004 182 993 192 1004 l 272 1004 b 314 939 311 1004 322 983 l 311 921 b 256 865 303 874 293 865 l 213 865 m -160 -319 b -190 -282 -186 -319 -194 -307 l -182 -233 b -154 -204 -178 -208 -172 -204 b 11 -6 -29 -204 -11 -128 l 133 689 b 171 717 138 710 149 717 l 233 717 b 256 679 256 717 260 704 l 132 -17 b -160 -319 99 -211 54 -319 "},"k":{"ha":686,"x_min":0,"x_max":0,"o":"m 46 0 b 22 39 22 0 18 13 l 190 999 b 228 1028 196 1024 213 1028 l 290 1028 b 314 990 311 1028 318 1015 l 214 424 l 301 424 l 315 424 l 532 694 b 574 717 546 714 550 717 l 650 717 b 664 675 681 717 682 697 l 426 396 b 494 283 464 378 481 339 l 558 35 b 533 0 565 7 564 0 l 474 0 b 432 32 443 0 438 7 l 383 236 b 303 310 371 289 351 310 l 193 310 l 144 31 b 106 0 139 4 125 0 l 46 0 "},"l":{"ha":336,"x_min":0,"x_max":0,"o":"m 49 0 b 26 38 26 0 21 13 l 194 999 b 233 1028 200 1022 214 1028 l 292 1028 b 318 990 317 1028 322 1015 l 147 29 b 111 0 143 7 131 0 l 49 0 "},"m":{"ha":1126,"x_min":0,"x_max":0,"o":"m 44 0 b 18 38 21 0 14 13 l 121 617 b 178 690 126 653 140 674 b 407 738 232 715 313 738 b 576 681 486 738 546 715 b 810 738 632 707 700 738 b 1025 461 989 738 1056 639 l 949 29 b 907 0 943 4 931 0 l 851 0 b 826 38 826 0 822 11 l 901 465 b 789 625 919 574 886 625 b 632 578 715 625 671 601 b 624 468 635 550 631 511 l 546 29 b 507 0 543 7 529 0 l 449 0 b 425 36 424 0 421 14 l 501 474 b 389 625 519 581 482 625 b 258 600 333 625 292 615 b 236 567 240 590 238 581 l 140 29 b 97 0 136 4 121 0 l 44 0 "},"n":{"ha":739,"x_min":0,"x_max":0,"o":"m 42 0 b 18 38 21 0 14 11 l 121 617 b 179 690 128 657 143 675 b 415 738 236 714 318 738 b 636 458 600 738 668 639 l 561 29 b 524 0 557 8 547 0 l 463 0 b 439 38 442 0 435 11 l 514 463 b 399 625 532 569 497 625 b 264 600 342 625 294 613 b 236 569 244 592 239 583 l 140 29 b 103 0 136 10 125 0 l 42 0 "},"o":{"ha":725,"x_min":0,"x_max":0,"o":"m 276 -21 b 35 249 93 -21 7 86 l 75 476 b 394 738 106 647 217 738 b 642 467 579 738 669 628 l 601 240 b 276 -21 572 74 456 -21 m 289 92 b 479 249 393 92 463 153 l 519 476 b 386 625 538 572 482 625 b 197 468 283 625 214 565 l 157 240 b 289 92 140 146 196 92 "},"p":{"ha":726,"x_min":0,"x_max":0,"o":"m -11 -306 b -36 -268 -35 -306 -40 -293 l 118 613 b 171 688 126 657 136 671 b 404 738 219 711 311 738 b 639 446 608 738 672 633 l 604 251 b 303 -21 575 85 474 -21 b 139 17 229 -21 167 4 l 86 -276 b 51 -306 83 -293 71 -306 l -11 -306 m 299 92 b 483 263 408 92 465 156 l 517 451 b 390 625 538 571 500 625 b 261 601 336 625 289 613 b 235 567 243 593 238 588 l 158 128 b 299 92 185 114 239 92 "},"q":{"ha":726,"x_min":0,"x_max":0,"o":"m 394 -306 b 371 -268 372 -306 365 -294 l 419 15 b 258 -21 386 1 325 -21 b 38 261 81 -21 10 96 l 72 454 b 393 738 104 642 197 738 b 615 693 494 738 575 714 b 649 614 653 674 657 658 l 492 -276 b 454 -306 489 -299 475 -306 l 394 -306 m 282 92 b 440 129 342 92 411 115 l 518 568 b 500 606 521 589 521 596 b 386 625 475 615 433 625 b 193 443 265 625 214 563 l 161 256 b 282 92 142 150 181 92 "},"r":{"ha":460,"x_min":0,"x_max":0,"o":"m 42 0 b 18 38 21 0 14 13 l 119 604 b 172 682 126 647 135 668 b 363 717 219 699 285 714 b 444 717 393 718 421 718 b 467 681 469 715 472 706 l 458 633 b 429 606 453 608 449 606 b 371 603 408 606 389 604 b 260 582 326 603 285 592 b 233 549 242 574 236 565 l 140 29 b 103 0 136 8 124 0 l 42 0 "},"s":{"ha":669,"x_min":0,"x_max":0,"o":"m 263 -21 b 11 147 124 -21 38 29 b 25 194 1 176 6 189 l 89 211 b 121 194 107 217 115 213 b 275 89 139 119 194 89 b 436 207 378 89 436 129 b 297 311 436 272 390 299 b 76 510 164 329 75 383 b 357 736 78 661 181 738 b 608 579 504 736 589 681 b 590 539 613 556 613 546 l 536 521 b 500 538 510 513 507 522 b 353 626 482 596 439 626 b 197 515 253 628 200 593 b 342 410 196 443 254 422 b 558 211 481 389 558 333 b 263 -21 558 63 447 -21 "},"t":{"ha":482,"x_min":0,"x_max":0,"o":"m 335 0 b 110 274 144 -6 74 64 l 168 603 l 78 603 b 50 639 54 603 44 611 l 60 689 b 99 717 64 713 76 717 l 188 717 l 211 854 b 253 883 215 879 231 883 l 308 883 b 335 846 333 883 339 871 l 311 717 l 453 717 b 479 679 478 717 483 704 l 471 633 b 436 603 467 608 456 603 l 292 603 l 232 271 b 350 118 208 139 247 118 b 374 86 371 118 378 108 l 364 31 b 335 0 360 4 354 1 "},"u":{"ha":739,"x_min":0,"x_max":0,"o":"m 272 -21 b 54 258 92 -21 22 86 l 129 688 b 167 717 132 710 147 717 l 226 717 b 251 679 250 717 256 704 l 176 254 b 292 92 157 144 190 92 b 429 117 350 92 399 104 b 457 153 446 124 453 133 l 551 689 b 588 717 554 708 568 717 l 646 717 b 674 679 672 717 678 704 l 572 101 b 515 22 564 57 556 40 b 272 -21 464 -1 390 -21 "},"v":{"ha":678,"x_min":0,"x_max":0,"o":"m 224 -3 b 186 32 201 -3 190 8 l 71 679 b 97 717 65 710 69 717 l 156 717 b 194 679 190 717 192 706 l 263 276 b 275 138 268 236 275 185 l 282 138 b 342 285 299 188 318 236 l 549 688 b 593 717 561 714 567 717 l 656 717 b 676 674 685 717 692 704 l 329 24 b 286 -3 318 1 301 -3 l 224 -3 "},"w":{"ha":990,"x_min":0,"x_max":0,"o":"m 179 -3 b 142 31 157 -3 144 6 l 79 682 b 110 717 78 713 79 717 l 178 717 b 210 679 207 717 210 707 l 236 301 b 236 149 239 251 239 201 l 240 149 b 296 311 256 203 275 261 l 460 676 b 504 706 471 703 478 706 l 561 706 b 594 671 586 706 592 699 l 632 307 b 636 149 635 254 638 201 l 640 149 b 693 313 656 204 671 257 l 853 688 b 890 717 863 717 867 717 l 961 717 b 978 674 985 717 990 704 l 683 22 b 639 -3 674 0 663 -3 l 586 -3 b 547 31 564 -3 549 7 l 513 442 b 510 565 510 483 510 524 l 506 565 b 457 433 492 522 476 476 l 276 22 b 233 -3 267 0 257 -3 l 179 -3 "},"x":{"ha":660,"x_min":0,"x_max":0,"o":"m -19 0 b -39 42 -53 0 -58 15 l 226 367 l 88 682 b 111 717 79 704 78 717 l 169 717 b 218 685 201 717 213 710 l 321 453 l 507 692 b 557 717 524 717 526 717 l 622 717 b 642 675 651 717 660 700 l 393 369 l 538 35 b 515 0 546 10 547 0 l 451 0 b 404 32 419 0 413 7 l 297 283 l 97 25 b 42 0 81 0 74 0 l -19 0 "},"y":{"ha":742,"x_min":0,"x_max":0,"o":"m 231 -336 b -7 -186 96 -336 25 -276 b 4 -143 -15 -164 -14 -151 l 58 -115 b 92 -124 69 -110 81 -106 b 229 -225 115 -181 140 -225 b 424 -40 342 -225 400 -158 l 439 36 b 267 4 401 24 344 4 b 57 285 93 4 26 111 l 128 688 b 169 717 132 713 147 717 l 225 717 b 251 679 249 717 256 704 l 181 281 b 294 117 160 169 192 117 b 454 147 368 117 422 135 l 550 689 b 590 717 554 713 571 717 l 647 717 b 672 679 671 717 676 706 l 546 -39 b 231 -336 514 -219 424 -336 "},"z":{"ha":611,"x_min":0,"x_max":0,"o":"m 1 0 b -24 38 -22 0 -28 13 l -15 83 b -1 117 -12 100 -12 104 l 414 606 l 115 606 b 90 642 90 606 85 618 l 99 689 b 138 717 103 713 115 717 l 554 717 b 581 679 578 717 585 704 l 572 633 b 556 597 569 617 564 610 l 138 113 l 454 113 b 482 75 481 113 486 100 l 474 29 b 438 0 469 8 461 0 l 1 0 "},"{":{"ha":444,"x_min":0,"x_max":0,"o":"m 181 -356 b 33 -171 49 -356 10 -296 l 90 153 b 28 275 103 228 101 275 l 10 275 b -8 306 -11 275 -11 289 l 3 372 b 31 401 7 394 11 401 l 43 401 b 157 531 118 401 143 458 l 214 860 b 418 1038 238 983 289 1038 l 465 1038 b 496 1000 490 1038 500 1025 l 486 954 b 451 925 482 929 476 925 l 408 925 b 329 844 363 925 339 899 l 269 506 b 149 335 254 419 213 365 b 210 163 207 310 225 250 l 151 -169 b 197 -243 143 -219 153 -243 l 247 -243 b 269 -281 267 -243 274 -256 l 261 -328 b 229 -356 257 -353 254 -356 l 181 -356 "},"|":{"ha":328,"x_min":0,"x_max":0,"o":"m 18 -204 b -11 -167 -7 -204 -15 -192 l 222 1160 b 257 1189 226 1185 232 1189 l 310 1189 b 339 1151 335 1189 343 1176 l 104 -175 b 71 -204 100 -200 94 -204 l 18 -204 "},"}":{"ha":444,"x_min":0,"x_max":0,"o":"m -76 -356 b -106 -318 -101 -356 -111 -343 l -97 -272 b -62 -243 -93 -247 -87 -243 l -19 -243 b 60 -164 22 -243 51 -212 l 119 171 b 239 342 135 258 165 314 b 179 514 190 368 164 426 l 239 850 b 190 925 247 900 235 925 l 149 925 b 119 961 124 925 115 938 l 128 1008 b 164 1038 133 1033 139 1038 l 210 1038 b 357 850 340 1038 379 975 l 299 522 b 361 401 285 450 293 401 l 372 401 b 396 364 394 401 399 388 l 385 304 b 356 275 382 281 376 275 l 346 275 b 231 144 278 275 244 219 l 174 -179 b -31 -356 151 -304 101 -356 l -76 -356 "},"~":{"ha":750,"x_min":0,"x_max":0,"o":"m 469 368 b 275 421 376 368 351 421 b 161 371 228 421 193 394 b 122 386 140 358 132 371 l 96 426 b 97 472 83 444 75 454 b 260 533 147 511 200 533 b 454 479 363 533 379 479 b 571 528 514 479 539 500 b 604 522 583 539 596 538 l 633 469 b 626 428 644 451 646 444 b 469 368 575 388 525 368 "}," ":{"ha":317,"x_min":0,"x_max":0,"o":""},"¡":{"ha":324,"x_min":0,"x_max":0,"o":"m 174 572 b 114 647 119 572 103 593 l 115 658 b 194 725 125 711 142 725 l 204 725 b 265 649 257 725 274 703 l 263 639 b 183 572 253 585 236 572 l 174 572 m -8 -312 b -37 -276 -32 -312 -43 -300 l 101 431 b 136 460 107 456 111 460 l 169 460 b 199 422 193 460 201 447 l 89 -285 b 56 -312 86 -310 79 -312 l -8 -312 "},"¢":{"ha":717,"x_min":0,"x_max":0,"o":"m 226 -117 b 201 -79 204 -117 196 -103 l 218 -14 b 46 258 78 7 18 104 l 83 467 b 343 733 110 625 197 718 l 360 817 b 396 847 365 840 374 847 l 461 847 b 485 817 485 847 490 836 l 467 726 b 644 542 578 708 633 643 b 619 504 647 518 642 511 l 569 489 b 533 513 549 482 539 489 b 394 628 521 592 482 628 b 204 460 288 628 224 567 l 167 250 b 294 89 149 149 190 89 b 464 203 390 89 428 138 b 514 231 481 236 488 239 l 568 214 b 575 154 589 207 590 189 b 342 -15 524 51 454 -3 l 326 -87 b 292 -117 321 -108 314 -117 l 226 -117 "},"£":{"ha":861,"x_min":0,"x_max":0,"o":"m 14 0 b -10 40 -12 0 -14 14 l 0 94 b 19 119 3 110 4 119 l 36 119 b 143 267 97 119 131 197 l 169 411 l 100 411 b 71 453 75 411 65 425 l 79 496 b 114 528 83 522 89 528 l 190 528 l 228 733 b 563 1007 256 888 368 1007 b 826 785 725 1007 799 931 b 803 746 831 764 828 756 l 743 725 b 704 758 717 715 710 728 b 560 882 682 850 643 882 b 365 719 443 882 381 807 l 331 528 l 622 528 b 651 488 647 528 657 514 l 644 443 b 608 411 639 417 633 411 l 310 411 l 282 260 b 201 118 269 193 240 149 l 200 115 b 368 125 236 119 296 125 l 675 125 b 706 83 700 125 710 111 l 696 32 b 660 0 690 4 686 0 l 14 0 "},"¤":{"ha":815,"x_min":0,"x_max":0,"o":"m 350 157 b 213 206 294 158 246 175 l 133 132 b 92 136 115 114 107 121 l 51 179 b 53 225 36 197 36 210 l 138 303 b 121 451 122 346 117 399 b 197 640 126 522 156 592 l 144 715 b 147 760 131 735 128 746 l 204 803 b 244 796 221 817 232 813 l 292 729 b 450 779 335 761 393 779 b 596 731 507 779 560 761 l 672 803 b 711 797 689 819 697 811 l 754 756 b 753 710 771 739 771 724 l 665 638 b 683 483 683 594 690 539 b 608 293 679 413 650 343 l 663 221 b 658 175 678 200 674 188 l 603 132 b 563 140 585 118 576 122 l 513 203 b 350 157 467 172 408 156 m 365 264 b 575 525 489 264 575 397 b 440 669 575 614 522 669 b 232 411 315 669 232 539 b 365 264 232 322 283 264 "},"¥":{"ha":871,"x_min":0,"x_max":0,"o":"m 318 0 b 289 40 293 0 285 14 l 317 199 l 144 199 b 118 235 122 199 114 211 l 124 268 b 154 296 128 292 132 296 l 335 296 l 354 403 l 181 403 b 154 439 158 403 149 415 l 160 471 b 190 499 164 494 168 499 l 331 499 l 140 953 b 158 986 133 974 135 986 l 236 986 b 292 950 275 986 283 981 l 444 543 l 743 957 b 807 986 763 988 768 986 l 879 986 b 896 946 904 986 908 967 l 546 499 l 674 499 b 700 463 696 499 706 486 l 694 431 b 664 403 692 406 686 403 l 483 403 l 465 296 l 638 296 b 665 260 660 296 669 283 l 660 226 b 628 199 656 203 650 199 l 450 199 l 421 32 b 385 0 415 4 410 0 l 318 0 "},"¦":{"ha":340,"x_min":0,"x_max":0,"o":"m 165 599 b 136 636 142 599 132 611 l 229 1160 b 264 1189 233 1185 239 1189 l 315 1189 b 344 1151 340 1189 349 1176 l 253 628 b 218 599 247 603 243 599 l 165 599 m 24 -203 b -6 -165 0 -203 -10 -190 l 88 358 b 122 388 92 383 97 388 l 174 388 b 203 350 199 388 207 375 l 111 -174 b 76 -203 107 -199 101 -203 l 24 -203 "},"§":{"ha":807,"x_min":0,"x_max":0,"o":"m 282 -307 b -18 -82 113 -307 6 -229 b 6 -32 -25 -51 -18 -39 l 72 -14 b 108 -37 94 -8 104 -14 b 299 -182 125 -133 188 -182 b 497 -31 422 -182 497 -126 b 339 90 497 43 456 76 b 54 328 143 114 51 192 b 219 556 58 429 110 503 b 140 749 163 593 133 664 b 469 1011 153 911 272 1011 b 760 793 625 1011 722 943 b 739 744 768 764 764 753 l 681 724 b 642 751 658 717 647 725 b 464 883 621 842 564 883 b 274 738 346 883 274 828 b 428 607 274 663 319 624 b 694 390 607 583 696 511 b 551 160 693 300 642 217 b 639 -18 613 119 640 63 b 282 -307 632 -190 490 -307 m 444 203 b 563 365 518 238 564 300 b 403 486 563 435 517 469 l 322 499 b 190 344 235 461 192 410 b 343 215 190 274 240 235 b 444 203 376 210 411 206 "},"¨":{"ha":631,"x_min":0,"x_max":0,"o":"m 244 842 b 194 904 200 842 186 861 l 196 915 b 260 968 204 958 215 968 l 268 968 b 319 907 311 968 328 949 l 318 894 b 253 842 310 851 297 842 l 244 842 m 499 842 b 447 904 454 842 440 861 l 449 915 b 514 968 457 958 468 968 l 522 968 b 574 907 565 968 581 949 l 571 894 b 507 842 564 851 551 842 l 499 842 "},"©":{"ha":1089,"x_min":0,"x_max":0,"o":"m 464 -11 b 75 496 164 -11 19 178 b 626 986 129 806 333 986 b 1013 479 924 986 1068 797 b 464 -11 958 169 754 -11 m 464 64 b 940 496 715 64 893 225 b 626 910 988 758 871 910 b 147 479 374 910 194 750 b 464 64 100 217 217 64 m 500 211 b 326 411 365 211 304 290 l 353 565 b 581 757 374 686 453 757 b 760 617 694 757 742 704 b 746 589 764 601 764 594 l 710 578 b 681 599 690 572 686 579 b 575 675 672 647 640 675 b 438 557 493 675 450 631 l 410 403 b 504 292 397 331 429 292 b 638 382 571 292 611 324 b 671 390 644 397 654 396 l 697 379 b 710 340 715 372 722 364 b 500 211 668 260 606 211 "},"ª":{"ha":497,"x_min":0,"x_max":0,"o":"m 250 493 b 104 603 158 493 104 532 b 278 747 104 707 172 747 b 353 742 314 747 340 743 b 361 792 358 765 360 779 b 300 850 363 831 342 850 b 213 807 265 850 239 838 b 186 808 203 797 194 801 l 164 825 b 158 856 149 836 149 843 b 317 931 196 907 247 931 b 454 776 411 931 467 875 b 419 579 447 726 438 676 b 369 515 413 542 401 529 b 250 493 340 503 301 493 m 254 567 b 307 575 279 567 293 571 b 328 603 318 581 325 586 l 340 674 b 276 678 331 675 308 678 b 196 613 226 678 196 658 b 254 567 196 586 215 567 "},"«":{"ha":774,"x_min":0,"x_max":0,"o":"m 286 82 b 251 88 272 71 261 74 l 63 347 b 65 390 51 361 50 376 l 346 647 b 383 647 361 661 368 663 l 410 619 b 410 581 422 606 426 594 l 175 367 l 328 150 b 328 114 338 136 342 125 l 286 82 m 565 82 b 531 88 551 71 542 74 l 342 347 b 344 390 331 361 329 376 l 625 647 b 663 647 642 661 649 663 l 689 619 b 689 581 701 606 706 594 l 454 367 l 607 150 b 607 114 617 136 622 125 l 565 82 "},"¬":{"ha":767,"x_min":0,"x_max":0,"o":"m 524 193 b 493 231 499 193 489 206 l 529 438 l 121 438 b 90 475 96 438 86 450 l 99 525 b 133 554 104 550 110 554 l 638 554 b 668 517 663 554 672 542 l 615 222 b 582 193 611 197 607 193 l 524 193 "},"®":{"ha":642,"x_min":0,"x_max":0,"o":"m 321 447 b 113 682 178 447 101 533 b 408 986 124 858 235 986 b 617 751 551 986 628 900 b 321 447 607 575 494 447 m 325 494 b 568 754 467 494 557 600 b 406 938 578 868 519 938 b 163 679 264 938 172 833 b 325 494 151 565 210 494 m 253 579 b 246 596 242 579 244 586 l 289 838 b 313 854 292 849 296 854 l 394 854 b 482 768 456 854 486 821 b 411 682 479 722 450 693 l 442 594 b 433 579 447 582 444 579 l 411 579 b 394 590 400 579 397 582 l 363 676 l 308 676 l 293 590 b 281 579 292 581 292 579 l 253 579 m 372 717 b 432 764 404 717 429 732 b 389 806 436 790 421 806 l 332 806 l 315 717 "},"¯":{"ha":518,"x_min":0,"x_max":0,"o":"m 171 863 b 143 897 144 863 139 874 l 147 925 b 189 951 151 949 168 951 l 493 951 b 522 917 519 951 526 942 l 517 890 b 482 863 514 868 500 863 l 171 863 "},"°":{"ha":535,"x_min":0,"x_max":0,"o":"m 285 553 b 114 736 176 553 114 619 b 349 988 114 883 213 988 b 519 807 457 988 519 922 b 285 553 519 661 418 553 m 292 643 b 425 799 365 643 425 713 b 338 899 425 861 393 899 b 208 742 264 899 208 831 b 292 643 208 678 238 643 "},"±":{"ha":781,"x_min":0,"x_max":0,"o":"m 343 325 b 311 365 317 325 307 339 l 335 496 l 138 496 b 107 536 111 496 101 510 l 113 571 b 151 603 117 597 124 603 l 353 603 l 379 747 b 418 779 383 775 390 779 l 457 779 b 489 739 485 779 494 765 l 465 603 l 661 603 b 693 563 689 603 699 589 l 688 528 b 649 496 683 500 675 496 l 447 496 l 422 357 b 383 325 418 329 411 325 l 343 325 m 76 142 b 44 182 49 142 39 156 l 50 217 b 88 249 54 243 61 249 l 599 249 b 631 207 625 249 635 235 l 625 174 b 586 142 621 146 614 142 l 76 142 "},"´":{"ha":364,"x_min":0,"x_max":0,"o":"m 122 847 b 126 882 114 860 115 876 l 350 1014 b 401 1006 369 1025 388 1025 l 425 972 b 419 936 433 958 433 942 l 175 819 b 136 826 156 811 144 814 "},"µ":{"ha":742,"x_min":0,"x_max":0,"o":"m -8 -306 b -35 -268 -31 -306 -39 -293 l 135 689 b 174 717 138 713 154 717 l 232 717 b 257 679 256 717 263 704 l 182 254 b 294 92 163 144 196 92 b 433 117 353 92 404 104 b 463 153 454 126 460 138 l 556 686 b 597 717 560 710 574 717 l 654 717 b 679 679 676 717 683 704 l 576 100 b 524 24 569 56 561 42 b 311 -21 467 -3 385 -21 b 149 57 233 -21 174 6 l 88 -276 b 56 -306 83 -301 79 -306 l -8 -306 "},"¶":{"ha":672,"x_min":0,"x_max":0,"o":"m 186 -124 b 161 -86 165 -124 157 -111 l 271 518 b 115 760 157 522 90 619 b 351 986 140 896 233 986 l 614 986 b 640 949 638 986 646 974 l 457 -94 b 425 -124 453 -119 447 -124 l 361 -124 b 336 -86 339 -124 331 -111 l 503 861 l 453 861 l 283 -94 b 251 -124 278 -119 274 -124 l 186 -124 "},"·":{"ha":347,"x_min":0,"x_max":0,"o":"m 132 310 b 71 385 78 310 61 331 l 74 396 b 151 463 83 449 99 463 l 161 463 b 222 388 215 463 232 440 l 219 376 b 142 310 210 322 194 310 l 132 310 "},"¸":{"ha":358,"x_min":0,"x_max":0,"o":"m 25 -340 b -75 -312 -25 -340 -57 -324 b -90 -285 -87 -306 -92 -301 l -86 -251 b -71 -242 -85 -242 -78 -239 b 13 -267 -49 -253 -25 -267 b 101 -201 65 -267 99 -244 b 51 -153 103 -172 83 -156 b 10 -154 38 -151 24 -153 b -8 -124 -11 -156 -17 -137 l 63 0 l 140 0 l 89 -92 b 132 -93 103 -89 118 -90 b 210 -193 185 -101 211 -140 b 25 -340 207 -294 128 -340 "},"º":{"ha":503,"x_min":0,"x_max":0,"o":"m 257 494 b 114 665 143 494 96 560 l 132 767 b 321 931 151 872 215 931 b 467 760 436 931 485 865 l 449 658 b 257 494 431 553 364 494 m 265 582 b 354 663 315 582 344 614 l 372 765 b 313 843 381 814 361 843 b 226 763 264 843 235 811 l 208 660 b 265 582 200 611 218 582 "},"»":{"ha":774,"x_min":0,"x_max":0,"o":"m 24 114 b 24 153 11 128 8 139 l 260 367 l 106 583 b 106 619 96 599 90 608 l 147 651 b 182 646 161 663 172 660 l 371 386 b 368 342 382 371 383 356 l 89 88 b 51 86 72 72 65 71 m 319 114 b 319 153 307 128 304 139 l 556 367 l 401 583 b 401 619 392 599 386 608 l 443 651 b 478 646 457 661 468 660 l 667 386 b 664 342 678 371 679 356 l 385 88 b 346 86 368 72 361 71 "},"¼":{"ha":1051,"x_min":0,"x_max":0,"o":"m 228 440 b 201 481 200 440 197 454 l 269 857 l 182 810 b 140 826 164 799 149 808 l 126 854 b 143 900 117 876 122 889 l 290 979 b 336 989 306 988 318 989 l 364 989 b 390 951 390 989 394 976 l 304 471 b 261 440 300 444 288 440 l 228 440 m 132 0 b 117 40 107 0 101 21 l 839 958 b 899 986 860 986 863 986 l 940 986 b 956 947 963 986 969 967 l 235 29 b 174 0 213 0 207 0 l 132 0 m 771 0 b 747 33 750 0 744 11 l 765 129 l 546 129 b 521 164 522 129 517 139 l 525 192 b 539 226 528 208 528 215 l 813 532 b 860 549 829 550 836 549 l 904 549 b 929 510 929 549 933 538 l 876 218 l 914 218 b 936 185 938 218 939 208 l 931 154 b 901 129 926 135 922 129 l 863 129 l 843 28 b 808 0 838 7 826 0 l 771 0 m 779 218 l 817 417 l 642 218 "},"½":{"ha":1114,"x_min":0,"x_max":0,"o":"m 228 444 b 201 485 200 444 197 458 l 269 861 l 181 814 b 140 831 163 804 149 813 l 128 857 b 146 903 117 879 125 892 l 293 982 b 339 992 308 990 321 992 l 364 992 b 390 956 390 993 394 981 l 306 475 b 261 444 300 449 288 444 l 228 444 m 117 0 b 100 40 92 0 85 21 l 822 958 b 882 986 844 986 846 986 l 924 986 b 939 947 947 986 953 967 l 219 29 b 158 0 196 0 190 0 l 117 0 m 625 0 b 599 38 600 0 594 17 l 607 86 b 740 264 624 171 658 229 l 815 297 b 919 408 869 321 919 343 b 857 461 919 442 901 461 b 757 382 793 461 768 406 b 719 372 749 367 740 365 l 685 383 b 671 429 661 392 660 406 b 868 560 696 483 750 560 b 1025 422 972 560 1025 504 b 863 219 1025 308 963 263 l 793 190 b 729 121 760 176 736 156 l 725 96 l 939 96 b 961 60 965 96 964 82 l 956 29 b 922 0 951 7 942 0 l 625 0 "},"¾":{"ha":1100,"x_min":0,"x_max":0,"o":"m 258 433 b 83 593 147 433 89 488 b 101 618 83 606 88 614 l 138 628 b 169 614 156 632 165 632 b 263 528 178 556 203 528 b 364 622 328 528 364 565 b 308 679 364 653 344 679 l 251 679 b 233 711 232 679 229 693 l 240 743 b 267 769 244 767 250 769 l 319 769 b 396 854 369 769 396 807 b 331 911 396 889 371 911 b 215 829 275 911 243 889 b 175 818 204 811 196 810 l 150 829 b 138 875 129 838 126 853 b 340 1004 182 968 240 1004 b 494 874 438 1004 494 950 b 410 726 494 801 467 756 b 464 624 444 707 464 668 b 258 433 464 501 383 433 m 182 0 b 165 40 157 0 150 21 l 889 958 b 949 986 910 986 911 986 l 989 986 b 1004 947 1013 986 1018 967 l 285 29 b 224 0 263 0 257 0 l 182 0 m 822 0 b 799 33 801 0 796 11 l 815 129 l 597 129 b 571 164 574 129 567 139 l 576 192 b 590 226 579 208 579 215 l 864 532 b 911 549 881 550 888 549 l 956 549 b 981 510 981 549 985 538 l 928 218 l 965 218 b 988 185 988 218 990 208 l 982 154 b 953 129 978 135 974 129 l 913 129 l 894 28 b 860 0 889 7 878 0 l 822 0 m 831 218 l 868 417 l 692 218 "},"¿":{"ha":803,"x_min":0,"x_max":0,"o":"m 468 571 b 407 647 414 571 396 592 l 408 657 b 488 725 419 711 435 725 l 497 725 b 558 649 550 725 568 703 b 556 639 557 646 557 642 b 476 571 546 585 531 571 l 468 571 m 282 -314 b 15 -18 78 -314 -12 -179 b 268 292 46 157 161 219 b 390 454 325 329 375 372 b 426 481 393 476 403 481 l 482 481 b 506 438 506 481 511 468 b 342 200 482 306 415 251 b 153 -28 265 147 175 104 b 292 -194 135 -128 182 -194 b 528 -35 404 -194 476 -132 b 572 -21 544 -12 550 -12 l 628 -40 b 642 -92 651 -49 654 -62 b 282 -314 571 -221 461 -314 "},"À":{"ha":874,"x_min":0,"x_max":0,"o":"m 424 1178 b 421 1217 406 1186 403 1199 l 454 1250 b 514 1247 476 1272 494 1260 l 683 1117 b 686 1078 699 1107 703 1094 l 671 1061 b 626 1061 660 1050 646 1053 m -31 0 b -51 40 -57 0 -64 17 l 442 963 b 486 989 454 988 463 989 l 554 989 b 592 956 578 989 588 979 l 761 32 b 736 0 764 8 761 0 l 671 0 b 618 36 633 0 622 11 l 582 257 l 207 257 l 89 28 b 31 0 76 3 67 0 l -31 0 m 564 369 l 510 722 b 506 864 506 769 501 801 l 499 864 b 440 713 490 831 471 779 l 264 369 "},"Á":{"ha":874,"x_min":0,"x_max":0,"o":"m 401 1086 b 406 1122 392 1099 394 1115 l 628 1254 b 681 1244 649 1265 667 1264 l 703 1211 b 697 1175 713 1197 713 1181 l 454 1058 b 415 1065 433 1050 424 1054 m -31 0 b -51 40 -57 0 -64 17 l 442 963 b 486 989 454 988 463 989 l 554 989 b 592 956 578 989 588 979 l 761 32 b 736 0 764 8 761 0 l 671 0 b 618 36 633 0 622 11 l 582 257 l 207 257 l 89 28 b 31 0 76 3 67 0 l -31 0 m 564 369 l 510 722 b 506 864 506 769 501 801 l 499 864 b 440 713 490 831 471 779 l 264 369 "},"Â":{"ha":874,"x_min":0,"x_max":0,"o":"m 342 1057 b 325 1088 314 1057 310 1075 l 504 1238 b 549 1257 522 1251 531 1257 l 581 1257 b 625 1235 603 1257 610 1254 l 753 1082 b 738 1057 763 1069 763 1057 l 686 1057 b 640 1079 658 1057 653 1064 l 560 1175 l 442 1074 b 389 1057 424 1057 414 1057 l 342 1057 m -31 0 b -51 40 -57 0 -64 17 l 442 963 b 486 989 454 988 463 989 l 554 989 b 592 956 578 989 588 979 l 761 32 b 736 0 764 8 761 0 l 671 0 b 618 36 633 0 622 11 l 582 257 l 207 257 l 89 28 b 31 0 76 3 67 0 l -31 0 m 564 369 l 510 722 b 506 864 506 769 501 801 l 499 864 b 440 713 490 831 471 779 l 264 369 "},"Ã":{"ha":874,"x_min":0,"x_max":0,"o":"m 354 1068 b 338 1106 339 1068 335 1076 b 458 1235 349 1189 390 1235 b 628 1147 554 1235 569 1147 b 686 1217 658 1147 679 1175 b 704 1235 689 1231 692 1235 l 744 1235 b 758 1199 760 1235 763 1226 b 642 1068 744 1113 707 1068 b 469 1154 547 1068 532 1154 b 410 1088 439 1154 415 1129 b 392 1068 408 1074 404 1068 l 354 1068 m -31 0 b -51 40 -57 0 -64 17 l 442 963 b 486 989 454 988 463 989 l 554 989 b 592 956 578 989 588 979 l 761 32 b 736 0 764 8 761 0 l 671 0 b 618 36 633 0 622 11 l 582 257 l 207 257 l 89 28 b 31 0 76 3 67 0 l -31 0 m 564 369 l 510 722 b 506 864 506 769 501 801 l 499 864 b 440 713 490 831 471 779 l 264 369 "},"Ä":{"ha":874,"x_min":0,"x_max":0,"o":"m 408 1089 b 358 1150 364 1089 351 1107 l 361 1163 b 425 1215 368 1204 381 1215 l 433 1215 b 483 1153 476 1215 492 1196 l 482 1142 b 417 1089 474 1099 461 1089 l 408 1089 m 671 1089 b 621 1150 626 1089 613 1107 l 622 1163 b 688 1215 629 1204 643 1215 l 696 1215 b 746 1153 739 1215 753 1196 l 743 1142 b 681 1089 736 1099 724 1089 l 671 1089 m -31 0 b -51 40 -57 0 -64 17 l 442 963 b 486 989 454 988 463 989 l 554 989 b 592 956 578 989 588 979 l 761 32 b 736 0 764 8 761 0 l 671 0 b 618 36 633 0 622 11 l 582 257 l 207 257 l 89 28 b 31 0 76 3 67 0 l -31 0 m 564 369 l 510 722 b 506 864 506 769 501 801 l 499 864 b 440 713 490 831 471 779 l 264 369 "},"Å":{"ha":874,"x_min":0,"x_max":0,"o":"m -29 0 b -51 40 -56 0 -64 17 l 433 944 b 378 1068 393 968 371 1011 b 551 1226 388 1161 460 1225 b 690 1076 639 1226 697 1165 b 596 940 685 1015 651 968 l 761 32 b 736 0 765 7 760 0 l 672 0 b 618 36 636 0 621 10 l 581 257 l 207 257 l 90 28 b 31 0 81 4 71 0 l -29 0 m 522 986 b 619 1079 579 986 617 1025 b 553 1154 622 1126 596 1154 b 453 1063 496 1154 457 1117 b 522 986 449 1017 475 986 m 565 369 l 510 728 b 507 864 506 774 503 804 l 500 864 b 446 722 492 829 472 778 l 265 369 "},"Æ":{"ha":1144,"x_min":0,"x_max":0,"o":"m -49 0 b -71 39 -75 0 -83 15 l 633 958 b 682 986 651 982 658 986 l 1121 986 b 1146 946 1147 986 1150 972 l 1136 893 b 1100 861 1133 871 1122 861 l 767 861 l 715 561 l 983 561 b 1010 521 1010 561 1014 549 l 1001 469 b 963 438 997 446 988 438 l 693 438 l 638 125 l 979 125 b 1008 83 1010 125 1013 111 l 999 32 b 963 0 994 14 989 0 l 525 0 b 493 40 499 0 489 14 l 526 226 l 222 226 l 81 29 b 15 0 64 4 58 0 l -49 0 m 546 336 l 628 776 l 310 336 "},"Ç":{"ha":858,"x_min":0,"x_max":0,"o":"m 301 -340 b 203 -312 251 -340 221 -324 b 188 -285 189 -306 185 -301 l 192 -251 b 207 -242 193 -242 200 -239 b 289 -267 229 -253 253 -267 b 378 -201 342 -267 376 -244 b 335 -154 379 -174 364 -157 b 286 -154 319 -151 303 -153 b 269 -124 267 -156 261 -137 l 329 -18 b 61 339 121 -6 24 131 l 118 657 b 524 1007 156 875 294 1007 b 840 763 722 1007 811 918 b 818 724 844 742 840 731 l 756 706 b 717 733 732 699 722 708 b 515 882 699 835 639 882 b 250 649 363 882 275 794 l 193 329 b 379 104 168 185 232 106 b 626 269 507 104 575 165 b 672 283 638 289 650 292 l 729 263 b 746 210 751 254 760 239 b 407 -18 681 71 576 -8 l 367 -92 b 426 -100 388 -89 408 -93 b 486 -193 467 -111 489 -146 b 301 -340 483 -294 404 -340 "},"È":{"ha":774,"x_min":0,"x_max":0,"o":"m 394 1178 b 392 1217 376 1186 374 1199 l 425 1250 b 485 1247 447 1272 465 1260 l 654 1117 b 657 1078 669 1107 674 1094 l 642 1061 b 597 1061 631 1050 617 1053 m 64 0 b 38 38 39 0 33 11 l 199 953 b 242 986 203 981 217 986 l 747 986 b 775 946 776 986 779 974 l 765 894 b 729 861 761 869 751 861 l 315 861 l 263 563 l 613 563 b 640 525 638 563 646 553 l 631 471 b 594 438 626 446 617 438 l 242 438 l 186 125 l 607 125 b 638 86 636 125 643 114 l 628 32 b 592 0 624 7 613 0 l 64 0 "},"É":{"ha":774,"x_min":0,"x_max":0,"o":"m 372 1086 b 376 1122 363 1099 365 1115 l 599 1254 b 651 1244 619 1265 638 1264 l 674 1211 b 668 1175 683 1197 683 1181 l 425 1058 b 386 1065 404 1050 394 1054 m 64 0 b 38 38 39 0 33 11 l 199 953 b 242 986 203 981 217 986 l 747 986 b 775 946 776 986 779 974 l 765 894 b 729 861 761 869 751 861 l 315 861 l 263 563 l 613 563 b 640 525 638 563 646 553 l 631 471 b 594 438 626 446 617 438 l 242 438 l 186 125 l 607 125 b 638 86 636 125 643 114 l 628 32 b 592 0 624 7 613 0 l 64 0 "},"Ê":{"ha":774,"x_min":0,"x_max":0,"o":"m 313 1057 b 296 1088 285 1057 281 1075 l 475 1238 b 519 1257 493 1251 501 1257 l 551 1257 b 596 1235 574 1257 581 1254 l 724 1082 b 708 1057 733 1069 733 1057 l 657 1057 b 611 1079 629 1057 624 1064 l 531 1175 l 413 1074 b 360 1057 394 1057 385 1057 l 313 1057 m 64 0 b 38 38 39 0 33 11 l 199 953 b 242 986 203 981 217 986 l 747 986 b 775 946 776 986 779 974 l 765 894 b 729 861 761 869 751 861 l 315 861 l 263 563 l 613 563 b 640 525 638 563 646 553 l 631 471 b 594 438 626 446 617 438 l 242 438 l 186 125 l 607 125 b 638 86 636 125 643 114 l 628 32 b 592 0 624 7 613 0 l 64 0 "},"Ë":{"ha":774,"x_min":0,"x_max":0,"o":"m 379 1089 b 329 1150 335 1089 322 1107 l 332 1163 b 396 1215 339 1204 351 1215 l 404 1215 b 454 1153 447 1215 463 1196 l 453 1142 b 388 1089 444 1099 432 1089 l 379 1089 m 642 1089 b 592 1150 597 1089 583 1107 l 593 1163 b 658 1215 600 1204 614 1215 l 667 1215 b 717 1153 710 1215 724 1196 l 714 1142 b 651 1089 707 1099 694 1089 l 642 1089 m 64 0 b 38 38 39 0 33 11 l 199 953 b 242 986 203 981 217 986 l 747 986 b 775 946 776 986 779 974 l 765 894 b 729 861 761 869 751 861 l 315 861 l 263 563 l 613 563 b 640 525 638 563 646 553 l 631 471 b 594 438 626 446 617 438 l 242 438 l 186 125 l 607 125 b 638 86 636 125 643 114 l 628 32 b 592 0 624 7 613 0 l 64 0 "},"Ì":{"ha":368,"x_min":0,"x_max":0,"o":"m 172 1178 b 169 1217 154 1186 151 1199 l 203 1250 b 263 1247 225 1272 243 1260 l 432 1117 b 435 1078 447 1107 451 1094 l 419 1061 b 375 1061 408 1050 394 1053 m 64 0 b 38 40 40 0 32 8 l 199 956 b 240 986 204 983 222 986 l 303 986 b 331 947 326 986 336 978 l 169 32 b 133 0 165 8 153 0 l 64 0 "},"Í":{"ha":368,"x_min":0,"x_max":0,"o":"m 150 1086 b 154 1122 140 1099 143 1115 l 376 1254 b 429 1244 397 1265 415 1264 l 451 1211 b 446 1175 461 1197 461 1181 l 203 1058 b 164 1065 182 1050 172 1054 m 64 0 b 38 40 40 0 32 8 l 199 956 b 240 986 204 983 222 986 l 303 986 b 331 947 326 986 336 978 l 169 32 b 133 0 165 8 153 0 l 64 0 "},"Î":{"ha":368,"x_min":0,"x_max":0,"o":"m 90 1057 b 74 1088 63 1057 58 1075 l 253 1238 b 297 1257 271 1251 279 1257 l 329 1257 b 374 1235 351 1257 358 1254 l 501 1082 b 486 1057 511 1069 511 1057 l 435 1057 b 389 1079 407 1057 401 1064 l 308 1175 l 190 1074 b 138 1057 172 1057 163 1057 l 90 1057 m 64 0 b 38 40 40 0 32 8 l 199 956 b 240 986 204 983 222 986 l 303 986 b 331 947 326 986 336 978 l 169 32 b 133 0 165 8 153 0 l 64 0 "},"Ï":{"ha":368,"x_min":0,"x_max":0,"o":"m 157 1089 b 107 1150 113 1089 100 1107 l 110 1163 b 174 1215 117 1204 129 1215 l 182 1215 b 232 1153 225 1215 240 1196 l 231 1142 b 165 1089 222 1099 210 1089 l 157 1089 m 419 1089 b 369 1150 375 1089 361 1107 l 371 1163 b 436 1215 378 1204 392 1215 l 444 1215 b 494 1153 488 1215 501 1196 l 492 1142 b 429 1089 485 1099 472 1089 l 419 1089 m 64 0 b 38 40 40 0 32 8 l 199 956 b 240 986 204 983 222 986 l 303 986 b 331 947 326 986 336 978 l 169 32 b 133 0 165 8 153 0 l 64 0 "},"Ð":{"ha":888,"x_min":0,"x_max":0,"o":"m 61 0 b 36 40 35 0 32 14 l 108 451 l 44 451 b 21 483 17 451 18 465 l 28 529 b 54 549 32 547 38 549 l 125 549 l 197 954 b 238 986 203 982 217 986 l 511 986 b 822 615 751 986 863 842 l 778 363 b 346 0 738 136 585 0 l 61 0 m 361 125 b 646 369 514 125 619 215 l 690 625 b 501 861 718 779 660 861 l 314 861 l 260 549 l 435 549 b 456 521 456 549 460 539 l 447 472 b 421 451 444 454 439 451 l 242 451 l 185 125 "},"Ñ":{"ha":936,"x_min":0,"x_max":0,"o":"m 388 1068 b 371 1106 372 1068 368 1076 b 492 1235 382 1189 424 1235 b 661 1147 588 1235 603 1147 b 719 1217 692 1147 713 1175 b 738 1235 722 1231 725 1235 l 778 1235 b 792 1199 793 1235 796 1226 b 675 1068 778 1113 740 1068 b 503 1154 581 1068 565 1154 b 443 1088 472 1154 449 1129 b 425 1068 442 1074 438 1068 l 388 1068 m 63 0 b 38 39 38 0 33 11 l 199 954 b 240 986 203 982 215 986 l 311 986 b 342 965 331 986 339 976 l 582 397 b 650 182 614 315 631 254 l 656 182 b 681 451 658 267 663 346 l 771 956 b 813 986 775 982 788 986 l 874 986 b 900 946 899 986 904 975 l 738 33 b 700 0 733 14 726 0 l 626 0 b 596 22 610 0 600 8 l 354 599 b 292 806 324 675 306 742 l 285 806 b 257 546 282 726 274 643 l 165 32 b 125 0 160 4 150 0 l 63 0 "},"Ò":{"ha":899,"x_min":0,"x_max":0,"o":"m 439 1192 b 436 1231 421 1200 418 1213 l 469 1264 b 529 1261 492 1286 510 1274 l 699 1131 b 701 1092 714 1121 718 1108 l 686 1075 b 642 1075 675 1064 661 1067 m 369 -21 b 61 339 128 -21 22 119 l 117 656 b 529 1007 156 875 293 1007 b 836 647 760 1007 875 869 l 781 331 b 369 -21 743 110 600 -21 m 379 104 b 649 339 528 104 622 189 l 706 656 b 518 882 731 804 661 882 b 249 647 367 882 275 794 l 193 331 b 379 104 168 188 232 104 "},"Ó":{"ha":899,"x_min":0,"x_max":0,"o":"m 417 1100 b 421 1136 407 1113 410 1129 l 643 1268 b 696 1258 664 1279 682 1278 l 718 1225 b 713 1189 728 1211 728 1194 l 469 1072 b 431 1079 449 1064 439 1068 m 369 -21 b 61 339 128 -21 22 119 l 117 656 b 529 1007 156 875 293 1007 b 836 647 760 1007 875 869 l 781 331 b 369 -21 743 110 600 -21 m 379 104 b 649 339 528 104 622 189 l 706 656 b 518 882 731 804 661 882 b 249 647 367 882 275 794 l 193 331 b 379 104 168 188 232 104 "},"Ô":{"ha":899,"x_min":0,"x_max":0,"o":"m 356 1071 b 339 1101 328 1071 324 1089 l 518 1251 b 563 1271 536 1265 544 1271 l 594 1271 b 639 1249 617 1271 624 1268 l 767 1096 b 751 1071 776 1083 776 1071 l 700 1071 b 654 1093 672 1071 667 1078 l 574 1189 l 456 1088 b 403 1071 438 1071 428 1071 l 356 1071 m 369 -21 b 61 339 128 -21 22 119 l 117 656 b 529 1007 156 875 293 1007 b 836 647 760 1007 875 869 l 781 331 b 369 -21 743 110 600 -21 m 379 104 b 649 339 528 104 622 189 l 706 656 b 518 882 731 804 661 882 b 249 647 367 882 275 794 l 193 331 b 379 104 168 188 232 104 "},"Õ":{"ha":899,"x_min":0,"x_max":0,"o":"m 368 1082 b 351 1119 353 1082 349 1090 b 472 1249 363 1203 404 1249 b 642 1161 568 1249 583 1161 b 700 1231 672 1161 693 1189 b 718 1249 703 1244 706 1249 l 758 1249 b 772 1213 774 1249 776 1240 b 656 1082 758 1126 721 1082 b 483 1168 561 1082 546 1168 b 424 1101 453 1168 429 1143 b 406 1082 422 1088 418 1082 l 368 1082 m 369 -21 b 61 339 128 -21 22 119 l 117 656 b 529 1007 156 875 293 1007 b 836 647 760 1007 875 869 l 781 331 b 369 -21 743 110 600 -21 m 379 104 b 649 339 528 104 622 189 l 706 656 b 518 882 731 804 661 882 b 249 647 367 882 275 794 l 193 331 b 379 104 168 188 232 104 "},"Ö":{"ha":899,"x_min":0,"x_max":0,"o":"m 424 1103 b 374 1164 379 1103 367 1121 l 376 1176 b 440 1229 383 1218 396 1229 l 449 1229 b 499 1167 492 1229 507 1210 l 497 1156 b 432 1103 489 1113 476 1103 l 424 1103 m 686 1103 b 636 1164 642 1103 628 1121 l 638 1176 b 703 1229 644 1218 658 1229 l 711 1229 b 761 1167 754 1229 768 1210 l 758 1156 b 696 1103 751 1113 739 1103 l 686 1103 m 369 -21 b 61 339 128 -21 22 119 l 117 656 b 529 1007 156 875 293 1007 b 836 647 760 1007 875 869 l 781 331 b 369 -21 743 110 600 -21 m 379 104 b 649 339 528 104 622 189 l 706 656 b 518 882 731 804 661 882 b 249 647 367 882 275 794 l 193 331 b 379 104 168 188 232 104 "},"×":{"ha":689,"x_min":0,"x_max":0,"o":"m 506 183 b 460 189 485 167 474 171 l 324 372 l 125 183 b 78 192 106 165 94 175 l 53 219 b 58 269 38 238 39 250 l 264 451 l 131 639 b 131 688 117 658 110 672 l 169 718 b 213 711 192 736 201 731 l 347 529 l 549 717 b 592 713 569 736 578 729 l 617 682 b 614 633 632 664 633 651 l 408 451 l 543 263 b 543 213 558 243 564 229 l 506 183 "},"Ø":{"ha":899,"x_min":0,"x_max":0,"o":"m -1 -57 b -10 -40 -10 -57 -14 -47 l 97 94 b 61 339 57 156 44 239 l 117 656 b 529 1007 156 875 296 1007 b 739 946 619 1007 692 985 l 806 1036 b 829 1044 811 1043 817 1044 l 899 1044 b 908 1029 911 1044 914 1035 l 800 889 b 836 647 840 828 854 747 l 781 331 b 372 -21 743 110 601 -21 b 157 38 281 -21 206 1 l 94 -46 b 69 -57 88 -57 86 -57 l -1 -57 m 660 836 b 519 882 629 867 582 882 b 249 647 367 882 275 794 l 203 382 b 204 235 193 326 193 276 m 379 104 b 649 339 532 104 624 192 l 697 613 b 697 756 707 667 707 715 l 238 149 b 379 104 269 119 319 104 "},"Ù":{"ha":924,"x_min":0,"x_max":0,"o":"m 450 1178 b 447 1217 432 1186 429 1199 l 481 1250 b 540 1247 503 1272 521 1260 l 710 1117 b 713 1078 725 1107 729 1094 l 697 1061 b 653 1061 686 1050 672 1053 m 376 -21 b 83 342 139 -21 43 117 l 192 956 b 233 986 196 982 210 986 l 294 986 b 324 947 324 986 328 975 l 215 332 b 388 104 190 188 249 104 b 654 342 539 104 628 190 l 763 956 b 806 986 768 983 785 986 l 868 986 b 894 947 893 986 899 975 l 786 333 b 376 -21 747 108 606 -21 "},"Ú":{"ha":924,"x_min":0,"x_max":0,"o":"m 428 1086 b 432 1122 418 1099 421 1115 l 654 1254 b 707 1244 675 1265 693 1264 l 729 1211 b 724 1175 739 1197 739 1181 l 481 1058 b 442 1065 460 1050 450 1054 m 376 -21 b 83 342 139 -21 43 117 l 192 956 b 233 986 196 982 210 986 l 294 986 b 324 947 324 986 328 975 l 215 332 b 388 104 190 188 249 104 b 654 342 539 104 628 190 l 763 956 b 806 986 768 983 785 986 l 868 986 b 894 947 893 986 899 975 l 786 333 b 376 -21 747 108 606 -21 "},"Û":{"ha":924,"x_min":0,"x_max":0,"o":"m 367 1057 b 350 1088 339 1057 335 1075 l 529 1238 b 574 1257 547 1251 556 1257 l 606 1257 b 650 1235 628 1257 635 1254 l 778 1082 b 763 1057 788 1069 788 1057 l 711 1057 b 665 1079 683 1057 678 1064 l 585 1175 l 467 1074 b 414 1057 449 1057 439 1057 l 367 1057 m 376 -21 b 83 342 139 -21 43 117 l 192 956 b 233 986 196 982 210 986 l 294 986 b 324 947 324 986 328 975 l 215 332 b 388 104 190 188 249 104 b 654 342 539 104 628 190 l 763 956 b 806 986 768 983 785 986 l 868 986 b 894 947 893 986 899 975 l 786 333 b 376 -21 747 108 606 -21 "},"Ü":{"ha":924,"x_min":0,"x_max":0,"o":"m 435 1089 b 385 1150 390 1089 378 1107 l 388 1163 b 451 1215 394 1204 407 1215 l 460 1215 b 510 1153 503 1215 518 1196 l 508 1142 b 443 1089 500 1099 488 1089 l 435 1089 m 697 1089 b 647 1150 653 1089 639 1107 l 649 1163 b 714 1215 656 1204 669 1215 l 722 1215 b 772 1153 765 1215 779 1196 l 769 1142 b 707 1089 763 1099 750 1089 l 697 1089 m 376 -21 b 83 342 139 -21 43 117 l 192 956 b 233 986 196 982 210 986 l 294 986 b 324 947 324 986 328 975 l 215 332 b 388 104 190 188 249 104 b 654 342 539 104 628 190 l 763 956 b 806 986 768 983 785 986 l 868 986 b 894 947 893 986 899 975 l 786 333 b 376 -21 747 108 606 -21 "},"Ý":{"ha":856,"x_min":0,"x_max":0,"o":"m 394 1086 b 399 1122 385 1099 388 1115 l 621 1254 b 674 1244 642 1265 660 1264 l 696 1211 b 690 1175 706 1197 706 1181 l 447 1058 b 408 1065 426 1050 417 1054 m 304 0 b 279 40 279 0 275 14 l 343 397 l 118 953 b 138 986 111 974 113 986 l 213 986 b 267 950 253 986 260 976 l 432 524 l 751 957 b 813 986 768 983 772 986 l 885 986 b 901 946 910 986 914 967 l 476 394 l 411 33 b 371 0 407 6 397 0 l 304 0 "},"Þ":{"ha":831,"x_min":0,"x_max":0,"o":"m 68 0 b 38 38 39 0 32 8 l 199 954 b 239 986 203 976 214 986 l 306 986 b 331 946 329 986 336 975 l 308 824 l 514 824 b 776 497 703 824 803 699 b 419 174 751 294 617 174 l 194 174 l 169 31 b 132 0 164 8 156 0 l 68 0 m 422 296 b 646 515 549 296 633 376 b 490 703 658 635 606 703 l 288 703 l 217 296 "},"ß":{"ha":740,"x_min":0,"x_max":0,"o":"m 44 0 b 22 40 17 0 19 19 l 146 746 b 458 1042 181 947 282 1042 b 689 800 618 1042 700 953 b 540 540 685 703 635 590 l 539 538 b 639 332 607 510 649 443 b 326 0 626 131 519 0 l 249 0 b 221 28 229 0 218 8 l 231 93 b 264 124 235 118 240 124 l 324 124 b 519 329 439 124 507 208 b 399 471 529 415 489 471 l 335 471 b 306 500 314 471 303 481 l 315 558 b 343 590 321 586 326 590 b 421 592 371 590 394 590 b 569 781 514 603 564 703 b 447 922 581 871 538 922 b 269 738 346 922 290 858 l 144 32 b 106 0 140 7 129 0 l 44 0 "},"à":{"ha":689,"x_min":0,"x_max":0,"o":"m 251 950 b 247 989 233 957 229 971 l 282 1022 b 342 1018 304 1044 322 1032 l 511 888 b 514 850 526 878 531 865 l 499 833 b 454 833 488 822 474 825 m 265 -21 b 14 167 71 -21 14 57 b 322 418 14 349 133 418 b 469 404 388 418 444 410 b 483 493 479 456 482 474 b 364 626 493 581 451 626 b 199 543 288 626 238 594 b 160 529 185 524 178 521 l 115 550 b 104 599 93 560 89 575 b 385 738 167 688 249 738 b 606 486 544 738 625 646 b 539 99 592 397 576 315 b 475 17 531 50 517 33 b 265 -21 419 -6 350 -21 m 271 82 b 393 103 319 82 360 90 b 422 135 411 108 418 114 l 453 304 b 307 319 424 311 372 319 b 139 178 188 319 139 263 b 271 82 139 119 168 82 "},"á":{"ha":689,"x_min":0,"x_max":0,"o":"m 279 857 b 283 892 271 869 274 886 l 507 1024 b 558 1015 528 1035 546 1035 l 582 982 b 576 946 592 968 590 951 l 332 829 b 293 835 313 819 301 824 m 265 -21 b 14 167 71 -21 14 57 b 322 418 14 349 133 418 b 469 404 388 418 444 410 b 483 493 479 456 482 474 b 364 626 493 581 451 626 b 199 543 288 626 238 594 b 160 529 185 524 178 521 l 115 550 b 104 599 93 560 89 575 b 385 738 167 688 249 738 b 606 486 544 738 625 646 b 539 99 592 397 576 315 b 475 17 531 50 517 33 b 265 -21 419 -6 350 -21 m 271 82 b 393 103 319 82 360 90 b 422 135 411 108 418 114 l 453 304 b 307 319 424 311 372 319 b 139 178 188 319 139 263 b 271 82 139 119 168 82 "},"â":{"ha":689,"x_min":0,"x_max":0,"o":"m 211 824 b 193 854 183 824 178 840 l 372 1003 b 418 1022 392 1018 400 1022 l 449 1022 b 493 1000 471 1022 478 1019 l 621 847 b 607 824 632 836 632 824 l 554 824 b 508 846 528 824 522 829 l 428 942 l 310 839 b 258 824 292 824 282 824 l 211 824 m 265 -21 b 14 167 71 -21 14 57 b 322 418 14 349 133 418 b 469 404 388 418 444 410 b 483 493 479 456 482 474 b 364 626 493 581 451 626 b 199 543 288 626 238 594 b 160 529 185 524 178 521 l 115 550 b 104 599 93 560 89 575 b 385 738 167 688 249 738 b 606 486 544 738 625 646 b 539 99 592 397 576 315 b 475 17 531 50 517 33 b 265 -21 419 -6 350 -21 m 271 82 b 393 103 319 82 360 90 b 422 135 411 108 418 114 l 453 304 b 307 319 424 311 372 319 b 139 178 188 319 139 263 b 271 82 139 119 168 82 "},"ã":{"ha":689,"x_min":0,"x_max":0,"o":"m 224 840 b 207 878 208 840 204 850 b 326 1007 219 961 254 1007 b 496 921 424 1007 440 921 b 554 990 528 921 553 947 b 574 1007 557 1004 560 1007 l 614 1007 b 628 972 628 1007 632 999 b 511 840 617 885 578 840 b 339 928 417 840 399 928 b 279 860 303 928 288 900 b 261 840 278 846 274 840 l 224 840 m 265 -21 b 14 167 71 -21 14 57 b 322 418 14 349 133 418 b 469 404 388 418 444 410 b 483 493 479 456 482 474 b 364 626 493 581 451 626 b 199 543 288 626 238 594 b 160 529 185 524 178 521 l 115 550 b 104 599 93 560 89 575 b 385 738 167 688 249 738 b 606 486 544 738 625 646 b 539 99 592 397 576 315 b 475 17 531 50 517 33 b 265 -21 419 -6 350 -21 m 271 82 b 393 103 319 82 360 90 b 422 135 411 108 418 114 l 453 304 b 307 319 424 311 372 319 b 139 178 188 319 139 263 b 271 82 139 119 168 82 "},"ä":{"ha":689,"x_min":0,"x_max":0,"o":"m 278 856 b 228 919 233 856 219 874 l 229 931 b 293 985 238 974 249 985 l 303 985 b 354 921 347 985 363 965 l 353 911 b 286 856 344 867 332 856 l 278 856 m 532 856 b 481 919 486 856 472 874 l 482 931 b 547 985 490 974 503 985 l 556 985 b 607 921 601 985 615 965 l 606 911 b 540 856 597 867 585 856 l 532 856 m 265 -21 b 14 167 71 -21 14 57 b 322 418 14 349 133 418 b 469 404 388 418 444 410 b 483 493 479 456 482 474 b 364 626 493 581 451 626 b 199 543 288 626 238 594 b 160 529 185 524 178 521 l 115 550 b 104 599 93 560 89 575 b 385 738 167 688 249 738 b 606 486 544 738 625 646 b 539 99 592 397 576 315 b 475 17 531 50 517 33 b 265 -21 419 -6 350 -21 m 271 82 b 393 103 319 82 360 90 b 422 135 411 108 418 114 l 453 304 b 307 319 424 311 372 319 b 139 178 188 319 139 263 b 271 82 139 119 168 82 "},"å":{"ha":689,"x_min":0,"x_max":0,"o":"m 407 797 b 282 931 326 797 276 849 b 438 1078 288 1017 351 1078 b 561 944 517 1078 567 1025 b 407 797 557 858 493 797 m 413 858 b 500 943 460 858 496 893 b 438 1014 504 986 479 1014 b 346 935 389 1014 351 981 b 413 858 342 889 368 858 m 265 -21 b 14 167 71 -21 14 57 b 322 418 14 349 133 418 b 469 404 388 418 444 410 b 483 493 479 456 482 474 b 364 626 493 581 451 626 b 199 543 288 626 238 594 b 160 529 185 524 178 521 l 115 550 b 104 599 93 560 89 575 b 385 738 167 688 249 738 b 606 486 544 738 625 646 b 539 99 592 397 576 315 b 475 17 531 50 517 33 b 265 -21 419 -6 350 -21 m 271 82 b 393 103 319 82 360 90 b 422 135 411 108 418 114 l 453 304 b 307 319 424 311 372 319 b 139 178 188 319 139 263 b 271 82 139 119 168 82 "},"æ":{"ha":1046,"x_min":0,"x_max":0,"o":"m 233 -21 b 10 181 81 -21 4 54 b 311 419 14 346 114 419 b 440 408 364 419 414 411 l 456 501 b 354 636 464 581 450 636 b 186 540 276 636 231 599 b 146 535 174 524 167 525 l 111 553 b 99 593 89 565 88 575 b 358 738 156 682 236 738 b 532 633 463 738 511 693 b 746 738 579 697 649 738 b 983 547 897 738 985 665 b 693 294 981 372 854 294 b 533 313 636 294 585 301 l 518 226 b 625 72 503 129 526 72 b 814 188 710 72 774 119 b 851 194 824 204 839 201 l 894 171 b 903 129 915 160 914 147 b 618 -21 842 39 761 -21 b 449 57 539 -21 476 13 b 233 -21 399 18 333 -21 m 683 382 b 861 540 808 382 861 456 b 739 644 861 606 824 644 b 560 458 635 644 581 582 l 549 397 b 683 382 596 388 638 382 m 253 81 b 406 146 347 81 389 129 b 411 242 403 171 406 210 l 424 314 b 306 325 399 317 356 325 b 129 196 193 325 135 279 b 253 81 124 117 174 81 "},"ç":{"ha":690,"x_min":0,"x_max":0,"o":"m 203 -340 b 103 -312 153 -340 121 -324 b 89 -285 90 -306 86 -301 l 93 -251 b 108 -242 94 -242 101 -239 b 190 -267 131 -253 154 -267 b 279 -201 243 -267 278 -244 b 238 -154 281 -174 265 -157 b 188 -154 222 -151 204 -153 b 171 -124 167 -156 161 -137 l 231 -18 b 36 258 74 -4 6 94 l 74 467 b 382 738 104 643 207 738 b 635 542 538 738 621 664 b 610 504 638 518 632 511 l 560 489 b 524 513 539 482 528 489 b 385 628 511 592 472 628 b 194 460 279 628 214 567 l 157 250 b 285 89 139 149 182 89 b 456 203 382 89 424 138 b 506 231 471 235 479 239 l 558 214 b 565 154 579 207 581 189 b 307 -18 511 44 433 -11 l 268 -92 b 336 -107 294 -89 318 -96 b 388 -193 371 -118 390 -150 b 203 -340 385 -294 306 -340 "},"è":{"ha":674,"x_min":0,"x_max":0,"o":"m 256 950 b 251 989 238 957 233 971 l 286 1022 b 346 1018 308 1044 326 1032 l 515 888 b 518 850 531 878 535 865 l 503 833 b 458 833 492 822 478 825 l 256 950 m 393 738 b 636 532 554 738 646 663 b 339 294 626 378 515 294 b 168 304 275 294 221 297 l 154 226 b 274 72 136 126 176 72 b 465 188 365 72 426 121 b 503 194 475 203 488 203 l 546 171 b 554 129 567 160 565 147 b 267 -21 494 39 415 -21 b 33 221 90 -21 21 75 b 69 449 38 271 46 324 b 393 738 103 635 204 738 m 514 525 b 386 644 522 608 474 644 b 194 458 285 644 217 583 l 183 392 b 319 382 228 385 272 382 b 514 525 435 382 504 429 "},"é":{"ha":674,"x_min":0,"x_max":0,"o":"m 283 857 b 288 892 275 869 278 886 l 511 1024 b 563 1015 532 1035 550 1035 l 586 982 b 581 946 596 968 594 951 l 336 829 b 297 835 317 819 306 824 m 393 738 b 636 532 554 738 646 663 b 339 294 626 378 515 294 b 168 304 275 294 221 297 l 154 226 b 274 72 136 126 176 72 b 465 188 365 72 426 121 b 503 194 475 203 488 203 l 546 171 b 554 129 567 160 565 147 b 267 -21 494 39 415 -21 b 33 221 90 -21 21 75 b 69 449 38 271 46 324 b 393 738 103 635 204 738 m 514 525 b 386 644 522 608 474 644 b 194 458 285 644 217 583 l 183 392 b 319 382 228 385 272 382 b 514 525 435 382 504 429 "},"ê":{"ha":674,"x_min":0,"x_max":0,"o":"m 215 824 b 197 854 188 824 182 840 l 376 1003 b 422 1022 396 1018 404 1022 l 453 1022 b 497 1000 475 1022 482 1019 l 625 847 b 611 824 636 836 636 824 l 558 824 b 513 846 532 824 526 829 l 432 942 l 314 839 b 263 824 296 824 286 824 l 215 824 m 393 738 b 636 532 554 738 646 663 b 339 294 626 378 515 294 b 168 304 275 294 221 297 l 154 226 b 274 72 136 126 176 72 b 465 188 365 72 426 121 b 503 194 475 203 488 203 l 546 171 b 554 129 567 160 565 147 b 267 -21 494 39 415 -21 b 33 221 90 -21 21 75 b 69 449 38 271 46 324 b 393 738 103 635 204 738 m 514 525 b 386 644 522 608 474 644 b 194 458 285 644 217 583 l 183 392 b 319 382 228 385 272 382 b 514 525 435 382 504 429 "},"ë":{"ha":674,"x_min":0,"x_max":0,"o":"m 282 856 b 232 919 238 856 224 874 l 233 931 b 297 985 242 974 253 985 l 307 985 b 358 921 351 985 367 965 l 357 911 b 290 856 349 867 336 856 l 282 856 m 536 856 b 485 919 490 856 476 874 l 486 931 b 551 985 494 974 507 985 l 560 985 b 611 921 606 985 619 965 l 610 911 b 544 856 601 867 589 856 l 536 856 m 393 738 b 636 532 554 738 646 663 b 339 294 626 378 515 294 b 168 304 275 294 221 297 l 154 226 b 274 72 136 126 176 72 b 465 188 365 72 426 121 b 503 194 475 203 488 203 l 546 171 b 554 129 567 160 565 147 b 267 -21 494 39 415 -21 b 33 221 90 -21 21 75 b 69 449 38 271 46 324 b 393 738 103 635 204 738 m 514 525 b 386 644 522 608 474 644 b 194 458 285 644 217 583 l 183 392 b 319 382 228 385 272 382 b 514 525 435 382 504 429 "},"ì":{"ha":326,"x_min":0,"x_max":0,"o":"m 319 824 b 279 826 308 811 297 818 l 106 939 b 101 979 85 950 83 960 l 135 1013 b 193 1008 157 1033 176 1022 l 338 879 b 339 843 351 868 356 860 l 319 824 m 44 0 b 21 38 21 0 18 15 l 136 689 b 174 717 140 708 151 717 l 235 717 b 258 679 257 717 263 704 l 143 31 b 104 0 139 8 128 0 l 44 0 "},"í":{"ha":326,"x_min":0,"x_max":0,"o":"m 99 847 b 101 882 88 864 85 872 l 294 1010 b 354 1003 318 1024 339 1022 l 376 969 b 369 933 389 951 393 943 l 153 821 b 113 828 131 813 121 817 m 44 0 b 21 38 21 0 18 15 l 136 689 b 174 717 140 708 151 717 l 235 717 b 258 679 257 717 263 704 l 143 31 b 104 0 139 8 128 0 l 44 0 "},"î":{"ha":326,"x_min":0,"x_max":0,"o":"m 63 822 b 44 851 35 822 32 838 l 179 988 b 246 1013 207 1015 215 1013 l 258 1013 b 313 981 285 1013 296 1008 l 399 844 b 385 822 408 831 413 822 l 342 822 b 292 843 314 822 299 825 l 242 933 l 156 836 b 104 822 139 817 131 822 l 63 822 m 44 0 b 21 38 21 0 18 15 l 136 689 b 174 717 140 708 151 717 l 235 717 b 258 679 257 717 263 704 l 143 31 b 104 0 139 8 128 0 l 44 0 "},"ï":{"ha":326,"x_min":0,"x_max":0,"o":"m 297 979 b 347 917 340 979 354 960 l 344 906 b 282 853 338 863 326 853 l 274 853 b 232 864 254 853 240 857 b 185 853 222 856 208 853 l 176 853 b 126 914 132 853 118 871 l 128 925 b 190 979 135 968 147 979 l 200 979 b 242 967 219 979 233 975 b 288 979 251 976 265 979 l 297 979 m 235 717 b 258 679 257 717 263 704 l 143 31 b 104 0 139 8 128 0 l 44 0 b 21 38 21 0 18 15 l 136 689 b 174 717 140 708 151 717 l 235 717 "},"ð":{"ha":733,"x_min":0,"x_max":0,"o":"m 281 -21 b 36 257 88 -21 7 88 l 68 439 b 375 704 100 617 214 704 b 550 618 465 704 525 667 b 521 843 568 721 558 794 l 433 761 b 413 761 424 750 419 753 l 388 783 b 386 808 378 792 375 797 l 467 879 b 286 919 429 906 374 919 b 251 956 258 919 247 931 l 260 1001 b 290 1031 264 1025 272 1031 b 557 971 411 1029 499 1010 l 626 1038 b 649 1038 635 1046 642 1044 l 676 1011 b 676 988 685 1003 686 997 l 611 928 b 658 551 676 850 690 725 l 606 250 b 281 -21 575 78 467 -21 m 293 92 b 483 260 401 92 465 157 l 514 433 b 381 592 532 538 483 592 b 190 424 267 592 208 528 l 158 250 b 293 92 142 147 188 92 "},"ñ":{"ha":739,"x_min":0,"x_max":0,"o":"m 239 840 b 222 878 224 840 219 850 b 342 1007 235 961 269 1007 b 511 921 439 1007 456 921 b 569 990 543 921 568 947 b 589 1007 572 1004 575 1007 l 629 1007 b 643 972 643 1007 647 999 b 526 840 632 885 593 840 b 354 928 432 840 414 928 b 294 860 318 928 303 900 b 276 840 293 846 289 840 l 239 840 m 42 0 b 18 38 21 0 14 11 l 121 617 b 179 690 128 657 143 675 b 415 738 236 714 318 738 b 636 458 600 738 668 639 l 561 29 b 524 0 557 8 547 0 l 463 0 b 439 38 442 0 435 11 l 514 463 b 399 625 532 569 497 625 b 264 600 342 625 294 613 b 236 569 244 592 239 583 l 140 29 b 103 0 136 10 125 0 l 42 0 "},"ò":{"ha":725,"x_min":0,"x_max":0,"o":"m 267 950 b 263 989 249 957 244 971 l 297 1022 b 357 1018 319 1044 338 1032 l 526 888 b 529 850 542 878 546 865 l 514 833 b 469 833 503 822 489 825 m 276 -21 b 35 249 93 -21 7 86 l 75 476 b 394 738 106 647 217 738 b 642 467 579 738 669 628 l 601 240 b 276 -21 572 74 456 -21 m 289 92 b 479 249 393 92 463 153 l 519 476 b 386 625 538 572 482 625 b 197 468 283 625 214 565 l 157 240 b 289 92 140 146 196 92 "},"ó":{"ha":725,"x_min":0,"x_max":0,"o":"m 296 857 b 300 892 288 869 290 886 l 524 1024 b 575 1015 544 1035 563 1035 l 599 982 b 593 946 608 968 607 951 l 349 829 b 310 835 329 819 318 824 m 276 -21 b 35 249 93 -21 7 86 l 75 476 b 394 738 106 647 217 738 b 642 467 579 738 669 628 l 601 240 b 276 -21 572 74 456 -21 m 289 92 b 479 249 393 92 463 153 l 519 476 b 386 625 538 572 482 625 b 197 468 283 625 214 565 l 157 240 b 289 92 140 146 196 92 "},"ô":{"ha":725,"x_min":0,"x_max":0,"o":"m 226 824 b 208 854 199 824 193 840 l 388 1003 b 433 1022 407 1018 415 1022 l 464 1022 b 508 1000 486 1022 493 1019 l 636 847 b 622 824 647 836 647 824 l 569 824 b 524 846 543 824 538 829 l 443 942 l 325 839 b 274 824 307 824 297 824 l 226 824 m 276 -21 b 35 249 93 -21 7 86 l 75 476 b 394 738 106 647 217 738 b 642 467 579 738 669 628 l 601 240 b 276 -21 572 74 456 -21 m 289 92 b 479 249 393 92 463 153 l 519 476 b 386 625 538 572 482 625 b 197 468 283 625 214 565 l 157 240 b 289 92 140 146 196 92 "},"õ":{"ha":725,"x_min":0,"x_max":0,"o":"m 240 840 b 224 878 225 840 221 850 b 343 1007 236 961 271 1007 b 513 921 440 1007 457 921 b 571 990 544 921 569 947 b 590 1007 574 1004 576 1007 l 631 1007 b 644 972 644 1007 649 999 b 528 840 633 885 594 840 b 356 928 433 840 415 928 b 296 860 319 928 304 900 b 278 840 294 846 290 840 l 240 840 m 276 -21 b 35 249 93 -21 7 86 l 75 476 b 394 738 106 647 217 738 b 642 467 579 738 669 628 l 601 240 b 276 -21 572 74 456 -21 m 289 92 b 479 249 393 92 463 153 l 519 476 b 386 625 538 572 482 625 b 197 468 283 625 214 565 l 157 240 b 289 92 140 146 196 92 "},"ö":{"ha":725,"x_min":0,"x_max":0,"o":"m 293 856 b 243 919 249 856 235 874 l 244 931 b 308 985 253 974 264 985 l 318 985 b 369 921 363 985 378 965 l 368 911 b 301 856 360 867 347 856 l 293 856 m 547 856 b 496 919 501 856 488 874 l 497 931 b 563 985 506 974 518 985 l 571 985 b 622 921 617 985 631 965 l 621 911 b 556 856 613 867 600 856 l 547 856 m 276 -21 b 35 249 93 -21 7 86 l 75 476 b 394 738 106 647 217 738 b 642 467 579 738 669 628 l 601 240 b 276 -21 572 74 456 -21 m 289 92 b 479 249 393 92 463 153 l 519 476 b 386 625 538 572 482 625 b 197 468 283 625 214 565 l 157 240 b 289 92 140 146 196 92 "},"÷":{"ha":760,"x_min":0,"x_max":0,"o":"m 406 642 b 346 715 351 642 336 663 l 347 726 b 425 792 356 779 372 792 l 433 792 b 494 718 488 792 504 771 l 493 707 b 414 642 483 654 467 642 l 406 642 m 103 392 b 69 432 75 392 65 406 l 78 479 b 117 511 83 506 90 511 l 643 511 b 675 471 671 511 681 497 l 667 424 b 629 392 663 396 657 392 l 103 392 m 313 113 b 251 186 258 113 242 133 l 254 197 b 332 263 264 250 279 263 l 340 263 b 401 189 394 263 410 242 l 399 178 b 321 113 389 125 374 113 l 313 113 "},"ø":{"ha":725,"x_min":0,"x_max":0,"o":"m 4 -50 b -1 -33 -8 -50 -7 -40 l 72 58 b 35 249 36 104 21 169 l 75 476 b 396 738 104 643 218 738 b 557 696 464 738 519 721 l 606 758 b 628 765 613 765 618 765 l 676 765 b 685 750 689 765 690 757 l 607 654 b 642 467 640 608 656 544 l 601 240 b 278 -21 574 76 456 -21 b 125 17 211 -21 161 -7 l 81 -40 b 54 -50 74 -49 67 -50 l 4 -50 m 486 594 b 385 625 463 617 425 625 b 197 468 283 625 214 565 b 165 283 185 399 174 338 b 169 185 154 224 160 201 m 290 92 b 479 249 392 92 464 153 b 510 418 490 311 501 367 b 508 525 521 485 518 504 l 193 119 b 290 92 217 101 249 92 "},"ù":{"ha":739,"x_min":0,"x_max":0,"o":"m 272 950 b 268 989 254 957 250 971 l 303 1022 b 363 1018 325 1044 343 1032 l 532 888 b 535 850 547 878 551 865 l 519 833 b 475 833 508 822 494 825 m 272 -21 b 54 258 92 -21 22 86 l 129 688 b 167 717 132 710 147 717 l 226 717 b 251 679 250 717 256 704 l 176 254 b 292 92 157 144 190 92 b 429 117 350 92 399 104 b 457 153 446 124 453 133 l 551 689 b 588 717 554 708 568 717 l 646 717 b 674 679 672 717 678 704 l 572 101 b 515 22 564 57 556 40 b 272 -21 464 -1 390 -21 "},"ú":{"ha":739,"x_min":0,"x_max":0,"o":"m 301 857 b 306 892 293 869 296 886 l 529 1024 b 581 1015 550 1035 568 1035 l 604 982 b 599 946 614 968 613 951 l 354 829 b 315 835 335 819 324 824 m 272 -21 b 54 258 92 -21 22 86 l 129 688 b 167 717 132 710 147 717 l 226 717 b 251 679 250 717 256 704 l 176 254 b 292 92 157 144 190 92 b 429 117 350 92 399 104 b 457 153 446 124 453 133 l 551 689 b 588 717 554 708 568 717 l 646 717 b 674 679 672 717 678 704 l 572 101 b 515 22 564 57 556 40 b 272 -21 464 -1 390 -21 "},"û":{"ha":739,"x_min":0,"x_max":0,"o":"m 232 824 b 214 854 204 824 199 840 l 393 1003 b 439 1022 413 1018 421 1022 l 469 1022 b 514 1000 492 1022 499 1019 l 642 847 b 628 824 653 836 653 824 l 575 824 b 529 846 549 824 543 829 l 449 942 l 331 839 b 279 824 313 824 303 824 l 232 824 m 272 -21 b 54 258 92 -21 22 86 l 129 688 b 167 717 132 710 147 717 l 226 717 b 251 679 250 717 256 704 l 176 254 b 292 92 157 144 190 92 b 429 117 350 92 399 104 b 457 153 446 124 453 133 l 551 689 b 588 717 554 708 568 717 l 646 717 b 674 679 672 717 678 704 l 572 101 b 515 22 564 57 556 40 b 272 -21 464 -1 390 -21 "},"ü":{"ha":739,"x_min":0,"x_max":0,"o":"m 299 856 b 249 919 254 856 240 874 l 250 931 b 314 985 258 974 269 985 l 324 985 b 375 921 368 985 383 965 l 374 911 b 307 856 365 867 353 856 l 299 856 m 553 856 b 501 919 507 856 493 874 l 503 931 b 568 985 511 974 524 985 l 576 985 b 628 921 622 985 636 965 l 626 911 b 561 856 618 867 606 856 l 553 856 m 272 -21 b 54 258 92 -21 22 86 l 129 688 b 167 717 132 710 147 717 l 226 717 b 251 679 250 717 256 704 l 176 254 b 292 92 157 144 190 92 b 429 117 350 92 399 104 b 457 153 446 124 453 133 l 551 689 b 588 717 554 708 568 717 l 646 717 b 674 679 672 717 678 704 l 572 101 b 515 22 564 57 556 40 b 272 -21 464 -1 390 -21 "},"ý":{"ha":742,"x_min":0,"x_max":0,"o":"m 300 857 b 304 892 292 869 294 886 l 528 1024 b 579 1015 549 1035 567 1035 l 603 982 b 597 946 613 968 611 951 l 353 829 b 314 835 333 819 322 824 m 231 -336 b -7 -186 96 -336 25 -276 b 4 -143 -15 -164 -14 -151 l 58 -115 b 92 -124 69 -110 81 -106 b 229 -225 115 -181 140 -225 b 424 -40 342 -225 400 -158 l 439 36 b 267 4 401 24 344 4 b 57 285 93 4 26 111 l 128 688 b 169 717 132 713 147 717 l 225 717 b 251 679 249 717 256 704 l 181 281 b 294 117 160 169 192 117 b 454 147 368 117 422 135 l 550 689 b 590 717 554 713 571 717 l 647 717 b 672 679 671 717 676 706 l 546 -39 b 231 -336 514 -219 424 -336 "},"þ":{"ha":724,"x_min":0,"x_max":0,"o":"m -8 -306 b -32 -268 -31 -306 -36 -293 l 190 997 b 229 1028 194 1022 207 1028 l 289 1028 b 313 990 311 1028 318 1014 l 263 708 b 415 738 294 719 350 738 b 643 453 601 738 675 639 l 608 256 b 300 -21 578 78 475 -21 b 142 18 231 -21 168 6 l 90 -272 b 54 -306 86 -297 72 -306 l -8 -306 m 303 92 b 488 271 410 92 468 150 l 521 458 b 396 625 540 569 503 625 b 242 589 324 625 267 603 l 161 128 b 303 92 188 114 238 92 "},"ÿ":{"ha":742,"x_min":0,"x_max":0,"o":"m 299 856 b 249 919 254 856 240 874 l 250 931 b 314 985 258 974 269 985 l 324 985 b 375 921 368 985 383 965 l 374 911 b 307 856 365 867 353 856 l 299 856 m 553 856 b 501 919 507 856 493 874 l 503 931 b 568 985 511 974 524 985 l 576 985 b 628 921 622 985 636 965 l 626 911 b 561 856 618 867 606 856 l 553 856 m 231 -336 b -7 -186 96 -336 25 -276 b 4 -143 -15 -164 -14 -151 l 58 -115 b 92 -124 69 -110 81 -106 b 229 -225 115 -181 140 -225 b 424 -40 342 -225 400 -158 l 439 36 b 267 4 401 24 344 4 b 57 285 93 4 26 111 l 128 688 b 169 717 132 713 147 717 l 225 717 b 251 679 249 717 256 704 l 181 281 b 294 117 160 169 192 117 b 454 147 368 117 422 135 l 550 689 b 590 717 554 713 571 717 l 647 717 b 672 679 671 717 676 706 l 546 -39 b 231 -336 514 -219 424 -336 "},"Ā":{"ha":874,"x_min":0,"x_max":0,"o":"m 390 1103 b 363 1139 365 1103 358 1115 l 367 1167 b 408 1193 371 1190 388 1193 l 714 1193 b 742 1157 739 1193 746 1182 l 738 1132 b 701 1103 733 1110 719 1103 l 390 1103 m -31 0 b -51 40 -57 0 -64 17 l 442 963 b 486 989 454 988 463 989 l 554 989 b 592 956 578 989 588 979 l 761 32 b 736 0 764 8 761 0 l 671 0 b 618 36 633 0 622 11 l 582 257 l 207 257 l 89 28 b 31 0 76 3 67 0 l -31 0 m 564 369 l 510 722 b 506 864 506 769 501 801 l 499 864 b 440 713 490 831 471 779 l 264 369 "},"ā":{"ha":689,"x_min":0,"x_max":0,"o":"m 258 872 b 231 908 233 872 228 885 l 236 936 b 278 963 239 960 256 963 l 582 963 b 610 928 607 963 615 953 l 606 901 b 569 872 601 879 589 872 l 258 872 m 265 -21 b 14 167 71 -21 14 57 b 322 418 14 349 133 418 b 469 404 388 418 444 410 b 483 493 479 456 482 474 b 364 626 493 581 451 626 b 199 543 288 626 238 594 b 160 529 185 524 178 521 l 115 550 b 104 599 93 560 89 575 b 385 738 167 688 249 738 b 606 486 544 738 625 646 b 539 99 592 397 576 315 b 475 17 531 50 517 33 b 265 -21 419 -6 350 -21 m 271 82 b 393 103 319 82 360 90 b 422 135 411 108 418 114 l 453 304 b 307 319 424 311 372 319 b 139 178 188 319 139 263 b 271 82 139 119 168 82 "},"Ă":{"ha":874,"x_min":0,"x_max":0,"o":"m 546 1058 b 368 1207 446 1058 383 1108 b 379 1238 363 1226 365 1233 l 425 1253 b 456 1236 442 1258 450 1254 b 550 1149 464 1179 497 1149 b 676 1242 607 1149 649 1178 b 707 1251 685 1257 690 1258 l 756 1233 b 764 1200 771 1226 772 1221 b 546 1058 725 1108 646 1058 m -31 0 b -51 40 -57 0 -64 17 l 442 963 b 486 989 454 988 463 989 l 554 989 b 592 956 578 989 588 979 l 761 32 b 736 0 764 8 761 0 l 671 0 b 618 36 633 0 622 11 l 582 257 l 207 257 l 89 28 b 31 0 76 3 67 0 l -31 0 m 564 369 l 510 722 b 506 864 506 769 501 801 l 499 864 b 440 713 490 831 471 779 l 264 369 "},"ă":{"ha":689,"x_min":0,"x_max":0,"o":"m 413 826 b 233 975 313 826 250 876 b 246 1006 229 994 232 1001 l 292 1021 b 322 1004 308 1025 315 1021 b 415 917 331 944 363 917 b 542 1010 474 917 511 949 b 572 1019 550 1025 556 1026 l 621 1001 b 629 968 638 994 639 989 b 413 826 586 879 511 826 m 265 -21 b 14 167 71 -21 14 57 b 322 418 14 349 133 418 b 469 404 388 418 444 410 b 483 493 479 456 482 474 b 364 626 493 581 451 626 b 199 543 288 626 238 594 b 160 529 185 524 178 521 l 115 550 b 104 599 93 560 89 575 b 385 738 167 688 249 738 b 606 486 544 738 625 646 b 539 99 592 397 576 315 b 475 17 531 50 517 33 b 265 -21 419 -6 350 -21 m 271 82 b 393 103 319 82 360 90 b 422 135 411 108 418 114 l 453 304 b 307 319 424 311 372 319 b 139 178 188 319 139 263 b 271 82 139 119 168 82 "},"Ą":{"ha":874,"x_min":0,"x_max":0,"o":"m 593 -342 b 494 -258 539 -342 499 -319 b 663 3 489 -179 558 -87 b 618 39 636 3 621 17 l 582 257 l 206 257 l 89 28 b 31 0 76 3 67 0 l -31 0 b -51 40 -57 0 -64 17 l 442 963 b 488 989 454 988 463 989 l 556 989 b 592 956 579 989 588 979 l 761 32 b 753 -1 764 17 761 6 b 604 -221 657 -96 601 -168 b 635 -250 606 -240 615 -250 b 696 -225 653 -250 675 -242 b 713 -235 706 -219 710 -226 l 725 -275 b 715 -303 729 -289 725 -297 b 593 -342 675 -332 629 -342 m 564 369 l 510 722 b 506 864 506 769 501 801 l 499 864 b 440 713 490 831 471 779 l 264 369 "},"ą":{"ha":689,"x_min":0,"x_max":0,"o":"m 338 -342 b 240 -257 285 -342 242 -318 b 388 -1 238 -185 293 -94 b 257 -21 349 -15 307 -21 b 6 167 63 -21 6 57 b 315 418 6 349 125 418 b 463 404 379 418 438 410 b 476 493 471 456 475 474 b 356 626 486 581 443 626 b 192 543 279 626 231 594 b 151 529 176 524 171 521 l 107 550 b 97 599 85 560 81 575 b 378 738 158 688 240 738 b 597 486 536 738 618 646 b 533 115 585 404 571 325 b 501 31 526 72 517 46 b 350 -221 407 -72 349 -165 b 381 -250 351 -244 367 -250 b 442 -225 401 -250 422 -239 b 460 -236 451 -219 457 -226 l 469 -272 b 464 -300 475 -287 474 -293 b 338 -342 428 -329 379 -342 m 263 82 b 386 103 311 82 351 90 b 414 135 403 108 411 114 l 444 304 b 300 319 417 311 364 319 b 132 178 181 319 132 263 b 263 82 132 119 161 82 "},"Ć":{"ha":858,"x_min":0,"x_max":0,"o":"m 417 1086 b 421 1122 407 1099 410 1115 l 643 1254 b 696 1244 664 1265 682 1264 l 718 1211 b 713 1175 728 1197 728 1181 l 469 1058 b 431 1065 449 1050 439 1054 m 367 -21 b 61 339 132 -21 22 118 l 118 657 b 524 1007 156 875 294 1007 b 840 763 722 1007 811 918 b 818 724 846 742 840 731 l 754 706 b 715 733 731 699 721 708 b 515 882 700 835 639 882 b 250 649 363 882 275 794 l 193 329 b 379 104 168 185 232 106 b 626 269 507 104 575 165 b 672 283 638 290 650 292 l 729 263 b 746 210 751 254 760 239 b 367 -21 675 61 558 -21 "},"ć":{"ha":690,"x_min":0,"x_max":0,"o":"m 293 857 b 297 892 285 869 288 886 l 521 1024 b 572 1015 542 1035 560 1035 l 596 982 b 590 946 606 968 604 951 l 346 829 b 307 835 326 819 315 824 m 274 -21 b 36 258 86 -21 3 81 l 74 467 b 382 738 104 643 207 738 b 635 542 538 738 621 664 b 610 504 638 518 632 511 l 560 489 b 524 513 539 482 529 489 b 385 628 511 592 472 628 b 194 460 278 628 214 567 l 157 250 b 285 89 139 149 181 89 b 456 203 381 89 419 138 b 506 231 471 236 479 239 l 558 214 b 565 154 579 207 581 189 b 274 -21 507 36 418 -21 "},"Ĉ":{"ha":858,"x_min":0,"x_max":0,"o":"m 357 1057 b 340 1088 329 1057 325 1075 l 519 1238 b 564 1257 538 1251 546 1257 l 596 1257 b 640 1235 618 1257 625 1254 l 768 1082 b 753 1057 778 1069 778 1057 l 701 1057 b 656 1079 674 1057 668 1064 l 575 1175 l 457 1074 b 404 1057 439 1057 429 1057 l 357 1057 m 367 -21 b 61 339 132 -21 22 118 l 118 657 b 524 1007 156 875 294 1007 b 840 763 722 1007 811 918 b 818 724 846 742 840 731 l 754 706 b 715 733 731 699 721 708 b 515 882 700 835 639 882 b 250 649 363 882 275 794 l 193 329 b 379 104 168 185 232 106 b 626 269 507 104 575 165 b 672 283 638 290 650 292 l 729 263 b 746 210 751 254 760 239 b 367 -21 675 61 558 -21 "},"ĉ":{"ha":690,"x_min":0,"x_max":0,"o":"m 225 824 b 207 854 197 824 192 840 l 386 1003 b 432 1022 406 1018 414 1022 l 463 1022 b 507 1000 485 1022 492 1019 l 635 847 b 621 824 646 836 646 824 l 568 824 b 522 846 542 824 536 829 l 442 942 l 324 839 b 272 824 306 824 296 824 l 225 824 m 274 -21 b 36 258 86 -21 3 81 l 74 467 b 382 738 104 643 207 738 b 635 542 538 738 621 664 b 610 504 638 518 632 511 l 560 489 b 524 513 539 482 529 489 b 385 628 511 592 472 628 b 194 460 278 628 214 567 l 157 250 b 285 89 139 149 181 89 b 456 203 381 89 419 138 b 506 231 471 236 479 239 l 558 214 b 565 154 579 207 581 189 b 274 -21 507 36 418 -21 "},"Ċ":{"ha":858,"x_min":0,"x_max":0,"o":"m 556 1085 b 504 1149 510 1085 497 1103 l 507 1158 b 572 1213 515 1204 526 1213 l 579 1213 b 631 1150 625 1213 639 1196 l 629 1140 b 564 1085 621 1094 610 1085 l 556 1085 m 367 -21 b 61 339 132 -21 22 118 l 118 657 b 524 1007 156 875 294 1007 b 840 763 722 1007 811 918 b 818 724 846 742 840 731 l 754 706 b 715 733 731 699 721 708 b 515 882 700 835 639 882 b 250 649 363 882 275 794 l 193 329 b 379 104 168 185 232 106 b 626 269 507 104 575 165 b 672 283 638 290 650 292 l 729 263 b 746 210 751 254 760 239 b 367 -21 675 61 558 -21 "},"ċ":{"ha":690,"x_min":0,"x_max":0,"o":"m 408 865 b 365 929 369 865 357 881 l 369 947 b 425 1004 378 993 388 1004 l 468 1004 b 510 939 507 1004 518 983 l 507 921 b 451 865 499 874 489 865 l 408 865 m 274 -21 b 36 258 86 -21 3 81 l 74 467 b 382 738 104 643 207 738 b 635 542 538 738 621 664 b 610 504 638 518 632 511 l 560 489 b 524 513 539 482 529 489 b 385 628 511 592 472 628 b 194 460 278 628 214 567 l 157 250 b 285 89 139 149 181 89 b 456 203 381 89 419 138 b 506 231 471 236 479 239 l 558 214 b 565 154 579 207 581 189 b 274 -21 507 36 418 -21 "},"Č":{"ha":858,"x_min":0,"x_max":0,"o":"m 542 1056 b 490 1086 517 1056 507 1064 l 368 1231 b 383 1256 357 1244 356 1256 l 435 1256 b 479 1236 461 1256 467 1253 l 561 1136 l 679 1240 b 728 1256 697 1256 703 1256 l 778 1256 b 794 1225 807 1256 810 1238 l 622 1082 b 561 1056 594 1060 588 1056 l 542 1056 m 367 -21 b 61 339 132 -21 22 118 l 118 657 b 524 1007 156 875 294 1007 b 840 763 722 1007 811 918 b 818 724 846 742 840 731 l 754 706 b 715 733 731 699 721 708 b 515 882 700 835 639 882 b 250 649 363 882 275 794 l 193 329 b 379 104 168 185 232 106 b 626 269 507 104 575 165 b 672 283 638 290 650 292 l 729 263 b 746 210 751 254 760 239 b 367 -21 675 61 558 -21 "},"č":{"ha":690,"x_min":0,"x_max":0,"o":"m 399 822 b 347 851 374 822 365 831 l 226 997 b 242 1021 215 1010 213 1021 l 292 1021 b 336 1003 318 1021 324 1018 l 418 903 l 538 1006 b 585 1021 554 1021 560 1021 l 636 1021 b 651 990 664 1021 667 1004 l 479 849 b 418 822 451 826 444 822 l 399 822 m 274 -21 b 36 258 86 -21 3 81 l 74 467 b 382 738 104 643 207 738 b 635 542 538 738 621 664 b 610 504 638 518 632 511 l 560 489 b 524 513 539 482 529 489 b 385 628 511 592 472 628 b 194 460 278 628 214 567 l 157 250 b 285 89 139 149 181 89 b 456 203 381 89 419 138 b 506 231 471 236 479 239 l 558 214 b 565 154 579 207 581 189 b 274 -21 507 36 418 -21 "},"Ď":{"ha":889,"x_min":0,"x_max":0,"o":"m 514 1056 b 463 1086 489 1056 479 1064 l 340 1231 b 356 1256 329 1244 328 1256 l 407 1256 b 451 1236 433 1256 439 1253 l 533 1136 l 651 1240 b 700 1256 669 1256 675 1256 l 750 1256 b 767 1225 779 1256 782 1238 l 594 1082 b 533 1056 567 1060 560 1056 l 514 1056 m 65 0 b 38 40 39 0 32 10 l 199 954 b 240 986 203 979 217 986 l 511 986 b 824 615 753 986 864 842 l 779 363 b 350 0 739 136 592 0 l 65 0 m 361 125 b 647 369 515 125 621 215 l 692 625 b 503 861 719 778 660 861 l 315 861 l 186 125 "},"ď":{"ha":821,"x_min":0,"x_max":0,"o":"m 282 -21 b 39 272 89 -21 6 83 l 74 467 b 376 738 106 644 210 738 b 540 701 451 738 510 715 l 593 999 b 631 1028 597 1018 608 1028 l 692 1028 b 715 990 713 1028 719 1017 l 557 94 b 499 18 550 49 539 35 b 282 -21 449 -3 361 -21 m 775 769 b 756 797 756 769 749 778 l 825 999 b 865 1028 833 1024 839 1028 l 917 1028 b 944 990 946 1028 957 1013 l 844 796 b 804 769 832 774 826 769 l 775 769 m 290 92 b 414 114 339 92 386 103 b 443 149 435 124 440 128 l 522 592 b 385 625 500 603 450 625 b 194 454 276 625 215 572 l 163 268 b 290 92 140 150 182 92 "},"Đ":{"ha":888,"x_min":0,"x_max":0,"o":"m 61 0 b 36 40 35 0 32 14 l 108 451 l 44 451 b 21 483 17 451 18 465 l 28 529 b 54 549 32 547 38 549 l 125 549 l 197 954 b 238 986 203 982 217 986 l 511 986 b 822 615 751 986 863 842 l 778 363 b 346 0 738 136 585 0 l 61 0 m 361 125 b 646 369 514 125 619 215 l 690 625 b 501 861 718 779 660 861 l 314 861 l 260 549 l 435 549 b 456 521 456 549 460 539 l 447 472 b 421 451 444 454 439 451 l 242 451 l 185 125 "},"đ":{"ha":714,"x_min":0,"x_max":0,"o":"m 282 -21 b 40 272 89 -21 6 83 l 74 467 b 376 738 107 644 210 738 b 540 701 453 738 510 715 l 565 839 l 394 839 b 376 865 376 839 372 847 l 382 897 b 404 917 385 914 390 917 l 579 917 l 593 999 b 632 1028 597 1018 608 1028 l 692 1028 b 717 990 714 1028 721 1017 l 703 917 l 774 917 b 792 889 792 917 796 908 l 785 858 b 764 839 782 842 776 839 l 689 839 l 558 94 b 499 18 550 49 539 35 b 282 -21 450 -3 363 -21 m 290 92 b 415 114 340 92 386 103 b 444 149 436 124 440 128 l 522 592 b 385 625 501 603 450 625 b 194 454 276 625 215 572 l 163 268 b 290 92 140 150 182 92 "},"Ē":{"ha":774,"x_min":0,"x_max":0,"o":"m 361 1103 b 333 1139 336 1103 329 1115 l 338 1167 b 379 1193 342 1190 358 1193 l 685 1193 b 713 1157 710 1193 717 1182 l 708 1132 b 672 1103 704 1110 690 1103 l 361 1103 m 64 0 b 38 38 39 0 33 11 l 199 953 b 242 986 203 981 217 986 l 747 986 b 775 946 776 986 779 974 l 765 894 b 729 861 761 869 751 861 l 315 861 l 263 563 l 613 563 b 640 525 638 563 646 553 l 631 471 b 594 438 626 446 617 438 l 242 438 l 186 125 l 607 125 b 638 86 636 125 643 114 l 628 32 b 592 0 624 7 613 0 l 64 0 "},"ē":{"ha":674,"x_min":0,"x_max":0,"o":"m 264 872 b 236 908 239 872 233 885 l 242 936 b 283 963 244 960 261 963 l 588 963 b 615 928 613 963 621 953 l 611 901 b 575 872 607 879 594 872 l 264 872 m 393 738 b 636 532 554 738 646 663 b 339 294 626 378 515 294 b 168 304 275 294 221 297 l 154 226 b 274 72 136 126 176 72 b 465 188 365 72 426 121 b 503 194 475 203 488 203 l 546 171 b 554 129 567 160 565 147 b 267 -21 494 39 415 -21 b 33 221 90 -21 21 75 b 69 449 38 271 46 324 b 393 738 103 635 204 738 m 514 525 b 386 644 522 608 474 644 b 194 458 285 644 217 583 l 183 392 b 319 382 228 385 272 382 b 514 525 435 382 504 429 "},"Ĕ":{"ha":774,"x_min":0,"x_max":0,"o":"m 517 1058 b 339 1207 417 1058 354 1108 b 350 1238 333 1226 336 1233 l 396 1253 b 426 1236 413 1258 421 1254 b 521 1149 435 1179 468 1149 b 647 1242 578 1149 619 1178 b 678 1251 656 1257 661 1258 l 726 1233 b 735 1200 742 1226 743 1221 b 517 1058 696 1108 617 1058 m 64 0 b 38 38 39 0 33 11 l 199 953 b 242 986 203 981 217 986 l 747 986 b 775 946 776 986 779 974 l 765 894 b 729 861 761 869 751 861 l 315 861 l 263 563 l 613 563 b 640 525 638 563 646 553 l 631 471 b 594 438 626 446 617 438 l 242 438 l 186 125 l 607 125 b 638 86 636 125 643 114 l 628 32 b 592 0 624 7 613 0 l 64 0 "},"ĕ":{"ha":674,"x_min":0,"x_max":0,"o":"m 417 826 b 238 975 317 826 254 876 b 250 1006 233 994 236 1001 l 296 1021 b 326 1004 313 1025 319 1021 b 419 917 335 944 367 917 b 546 1010 478 917 515 949 b 576 1019 554 1025 560 1026 l 625 1001 b 633 968 642 994 643 989 b 417 826 590 879 515 826 m 393 738 b 636 532 554 738 646 663 b 339 294 626 378 515 294 b 168 304 275 294 221 297 l 154 226 b 274 72 136 126 176 72 b 465 188 365 72 426 121 b 503 194 475 203 488 203 l 546 171 b 554 129 567 160 565 147 b 267 -21 494 39 415 -21 b 33 221 90 -21 21 75 b 69 449 38 271 46 324 b 393 738 103 635 204 738 m 514 525 b 386 644 522 608 474 644 b 194 458 285 644 217 583 l 183 392 b 319 382 228 385 272 382 b 514 525 435 382 504 429 "},"Ė":{"ha":774,"x_min":0,"x_max":0,"o":"m 511 1085 b 460 1149 465 1085 453 1103 l 463 1158 b 528 1213 471 1204 482 1213 l 535 1213 b 586 1150 581 1213 594 1196 l 585 1140 b 519 1085 576 1094 565 1085 l 511 1085 m 64 0 b 38 38 39 0 33 11 l 199 953 b 242 986 203 981 217 986 l 747 986 b 775 946 776 986 779 974 l 765 894 b 729 861 761 869 751 861 l 315 861 l 263 563 l 613 563 b 640 525 638 563 646 553 l 631 471 b 594 438 626 446 617 438 l 242 438 l 186 125 l 607 125 b 638 86 636 125 643 114 l 628 32 b 592 0 624 7 613 0 l 64 0 "},"ė":{"ha":674,"x_min":0,"x_max":0,"o":"m 399 865 b 356 929 360 865 347 881 l 360 947 b 415 1004 368 993 378 1004 l 458 1004 b 500 939 497 1004 508 983 l 497 921 b 442 865 489 874 479 865 l 399 865 m 393 738 b 636 532 554 738 646 663 b 339 294 626 378 515 294 b 168 304 275 294 221 297 l 154 226 b 274 72 136 126 176 72 b 465 188 365 72 426 121 b 503 194 475 203 488 203 l 546 171 b 554 129 567 160 565 147 b 267 -21 494 39 415 -21 b 33 221 90 -21 21 75 b 69 449 38 271 46 324 b 393 738 103 635 204 738 m 514 525 b 386 644 522 608 474 644 b 194 458 285 644 217 583 l 183 392 b 319 382 228 385 272 382 b 514 525 435 382 504 429 "},"Ę":{"ha":774,"x_min":0,"x_max":0,"o":"m 453 -342 b 356 -264 396 -342 361 -317 b 521 0 347 -185 426 -82 l 63 0 b 38 40 39 0 32 11 l 199 954 b 242 986 203 979 214 986 l 750 986 b 775 946 774 986 781 976 l 765 893 b 729 861 761 869 753 861 l 315 861 l 263 563 l 614 563 b 640 521 639 563 646 551 l 631 469 b 596 438 628 446 617 438 l 242 438 l 186 125 l 608 125 b 639 86 635 125 644 114 l 629 32 b 617 -1 625 17 624 7 b 465 -221 542 -71 463 -167 b 497 -250 467 -242 478 -250 b 557 -225 517 -250 538 -242 b 575 -236 565 -222 572 -224 l 585 -272 b 572 -306 589 -287 586 -296 b 453 -342 542 -329 496 -342 "},"ę":{"ha":707,"x_min":0,"x_max":0,"o":"m 321 -342 b 224 -260 265 -342 226 -315 b 367 -6 221 -186 274 -94 b 268 -21 339 -15 301 -21 b 33 221 92 -21 21 75 b 69 449 38 271 46 324 b 394 738 103 635 204 738 b 636 532 556 738 646 663 b 346 294 626 378 517 294 b 169 318 286 294 221 303 l 154 226 b 275 72 136 126 178 72 b 465 188 361 72 421 115 b 503 194 475 203 488 203 l 546 171 b 560 139 563 163 565 151 b 333 -217 508 53 339 -100 b 365 -250 333 -244 349 -250 b 425 -225 385 -250 406 -240 b 443 -236 436 -219 440 -226 l 454 -275 b 449 -300 456 -283 458 -292 b 321 -342 408 -332 360 -342 m 336 382 b 514 525 435 382 504 429 b 388 644 522 608 475 644 b 194 458 286 644 217 583 l 185 403 b 336 382 232 388 289 382 "},"Ě":{"ha":774,"x_min":0,"x_max":0,"o":"m 497 1056 b 446 1086 472 1056 463 1064 l 324 1231 b 339 1256 313 1244 311 1256 l 390 1256 b 435 1236 417 1256 422 1253 l 517 1136 l 635 1240 b 683 1256 653 1256 658 1256 l 733 1256 b 750 1225 763 1256 765 1238 l 578 1082 b 517 1056 550 1060 543 1056 l 497 1056 m 64 0 b 38 38 39 0 33 11 l 199 953 b 242 986 203 981 217 986 l 747 986 b 775 946 776 986 779 974 l 765 894 b 729 861 761 869 751 861 l 315 861 l 263 563 l 613 563 b 640 525 638 563 646 553 l 631 471 b 594 438 626 446 617 438 l 242 438 l 186 125 l 607 125 b 638 86 636 125 643 114 l 628 32 b 592 0 624 7 613 0 l 64 0 "},"ě":{"ha":674,"x_min":0,"x_max":0,"o":"m 626 1021 b 642 990 654 1021 657 1004 l 469 849 b 408 822 442 826 435 822 l 389 822 b 338 851 364 822 356 831 l 217 997 b 232 1021 206 1010 203 1021 l 282 1021 b 326 1003 308 1021 314 1018 l 408 903 l 528 1006 b 575 1021 544 1021 550 1021 l 626 1021 m 393 738 b 636 532 554 738 646 663 b 339 294 626 378 515 294 b 168 304 275 294 221 297 l 154 226 b 274 72 136 126 176 72 b 465 188 365 72 426 121 b 503 194 475 203 488 203 l 546 171 b 554 129 567 160 565 147 b 267 -21 494 39 415 -21 b 33 221 90 -21 21 75 b 69 449 38 271 46 324 b 393 738 103 635 204 738 m 514 525 b 386 644 522 608 474 644 b 194 458 285 644 217 583 l 183 392 b 319 382 228 385 272 382 b 514 525 435 382 504 429 "},"Ĝ":{"ha":886,"x_min":0,"x_max":0,"o":"m 356 1071 b 339 1101 328 1071 324 1089 l 518 1251 b 563 1271 536 1265 544 1271 l 594 1271 b 639 1249 617 1271 624 1268 l 767 1096 b 751 1071 776 1083 776 1071 l 700 1071 b 654 1093 672 1071 667 1078 l 574 1189 l 456 1088 b 403 1071 438 1071 428 1071 l 356 1071 m 367 -21 b 61 339 132 -21 21 117 l 118 657 b 525 1007 157 882 297 1007 b 836 779 708 1007 807 929 b 817 724 846 744 842 732 l 751 704 b 717 733 735 700 722 708 b 519 882 701 833 643 882 b 249 649 365 882 275 797 l 193 331 b 383 104 168 188 232 104 b 647 310 529 104 625 182 l 664 406 l 450 406 b 421 446 425 406 415 418 l 429 497 b 472 529 433 521 444 529 l 779 529 b 807 488 804 529 813 517 l 775 306 b 367 -21 739 106 588 -21 "},"ĝ":{"ha":725,"x_min":0,"x_max":0,"o":"m 236 824 b 218 854 208 824 203 840 l 397 1003 b 443 1022 417 1018 425 1022 l 474 1022 b 518 1000 496 1022 503 1019 l 646 847 b 632 824 657 836 657 824 l 579 824 b 533 846 553 824 547 829 l 453 942 l 335 839 b 283 824 317 824 307 824 l 236 824 m 217 -336 b -18 -187 89 -336 15 -279 b -7 -142 -28 -162 -26 -151 l 49 -114 b 83 -128 65 -106 74 -110 b 218 -225 108 -189 142 -225 b 410 -40 329 -225 386 -158 l 425 36 b 251 4 385 19 325 4 b 40 279 81 4 11 104 l 71 454 b 393 738 104 647 203 738 b 614 694 479 738 563 719 b 649 618 649 676 656 661 l 532 -43 b 217 -336 497 -232 400 -336 m 283 117 b 442 149 351 117 403 132 l 517 569 b 500 604 521 589 519 596 b 385 625 474 615 432 625 b 192 442 271 625 215 569 l 163 278 b 283 117 144 169 178 117 "},"Ğ":{"ha":886,"x_min":0,"x_max":0,"o":"m 560 1072 b 382 1221 460 1072 397 1122 b 393 1251 376 1240 379 1247 l 439 1267 b 469 1250 456 1272 464 1268 b 564 1163 478 1193 511 1163 b 690 1256 621 1163 663 1192 b 721 1265 699 1271 704 1272 l 769 1247 b 778 1214 785 1240 786 1235 b 560 1072 739 1122 660 1072 m 367 -21 b 61 339 132 -21 21 117 l 118 657 b 525 1007 157 882 297 1007 b 836 779 708 1007 807 929 b 817 724 846 744 842 732 l 751 704 b 717 733 735 700 722 708 b 519 882 701 833 643 882 b 249 649 365 882 275 797 l 193 331 b 383 104 168 188 232 104 b 647 310 529 104 625 182 l 664 406 l 450 406 b 421 446 425 406 415 418 l 429 497 b 472 529 433 521 444 529 l 779 529 b 807 488 804 529 813 517 l 775 306 b 367 -21 739 106 588 -21 "},"ğ":{"ha":725,"x_min":0,"x_max":0,"o":"m 438 826 b 258 975 338 826 275 876 b 271 1006 254 994 257 1001 l 317 1021 b 347 1004 333 1025 340 1021 b 440 917 356 944 388 917 b 567 1010 499 917 536 949 b 597 1019 575 1025 581 1026 l 646 1001 b 654 968 663 994 664 989 b 438 826 611 879 536 826 m 217 -336 b -18 -187 89 -336 15 -279 b -7 -142 -28 -162 -26 -151 l 49 -114 b 83 -128 65 -106 74 -110 b 218 -225 108 -189 142 -225 b 410 -40 329 -225 386 -158 l 425 36 b 251 4 385 19 325 4 b 40 279 81 4 11 104 l 71 454 b 393 738 104 647 203 738 b 614 694 479 738 563 719 b 649 618 649 676 656 661 l 532 -43 b 217 -336 497 -232 400 -336 m 283 117 b 442 149 351 117 403 132 l 517 569 b 500 604 521 589 519 596 b 385 625 474 615 432 625 b 192 442 271 625 215 569 l 163 278 b 283 117 144 169 178 117 "},"Ġ":{"ha":886,"x_min":0,"x_max":0,"o":"m 554 1099 b 503 1163 508 1099 496 1117 l 506 1172 b 571 1226 514 1218 525 1226 l 578 1226 b 629 1164 624 1226 638 1210 l 628 1154 b 563 1099 619 1108 608 1099 l 554 1099 m 367 -21 b 61 339 132 -21 21 117 l 118 657 b 525 1007 157 882 297 1007 b 836 779 708 1007 807 929 b 817 724 846 744 842 732 l 751 704 b 717 733 735 700 722 708 b 519 882 701 833 643 882 b 249 649 365 882 275 797 l 193 331 b 383 104 168 188 232 104 b 647 310 529 104 625 182 l 664 406 l 450 406 b 421 446 425 406 415 418 l 429 497 b 472 529 433 521 444 529 l 779 529 b 807 488 804 529 813 517 l 775 306 b 367 -21 739 106 588 -21 "},"ġ":{"ha":725,"x_min":0,"x_max":0,"o":"m 419 865 b 376 929 381 865 368 881 l 381 947 b 436 1004 389 993 399 1004 l 479 1004 b 521 939 518 1004 529 983 l 518 921 b 463 865 510 874 500 865 l 419 865 m 217 -336 b -18 -187 89 -336 15 -279 b -7 -142 -28 -162 -26 -151 l 49 -114 b 83 -128 65 -106 74 -110 b 218 -225 108 -189 142 -225 b 410 -40 329 -225 386 -158 l 425 36 b 251 4 385 19 325 4 b 40 279 81 4 11 104 l 71 454 b 393 738 104 647 203 738 b 614 694 479 738 563 719 b 649 618 649 676 656 661 l 532 -43 b 217 -336 497 -232 400 -336 m 283 117 b 442 149 351 117 403 132 l 517 569 b 500 604 521 589 519 596 b 385 625 474 615 432 625 b 192 442 271 625 215 569 l 163 278 b 283 117 144 169 178 117 "},"Ģ":{"ha":886,"x_min":0,"x_max":0,"o":"m 367 -21 b 61 339 132 -21 21 117 l 118 657 b 525 1007 157 882 297 1007 b 836 779 708 1007 807 929 b 817 724 846 744 842 732 l 751 704 b 717 733 735 700 722 708 b 519 882 701 833 643 882 b 249 649 365 882 275 797 l 193 331 b 383 104 168 188 232 104 b 647 310 529 104 625 182 l 664 406 l 450 406 b 421 446 425 406 415 418 l 429 497 b 472 529 433 521 444 529 l 779 529 b 807 488 804 529 813 517 l 775 306 b 367 -21 739 106 588 -21 m 224 -351 b 204 -322 204 -351 199 -342 l 278 -124 b 319 -93 285 -97 293 -93 l 375 -93 b 404 -133 407 -93 417 -110 l 306 -325 b 264 -351 293 -347 286 -351 l 224 -351 "},"ģ":{"ha":725,"x_min":0,"x_max":0,"o":"m 383 810 b 357 853 351 810 343 828 l 439 1004 b 483 1032 451 1029 458 1032 l 515 1032 b 538 1001 538 1032 543 1022 l 476 843 b 429 810 467 814 458 810 l 383 810 m 217 -336 b -18 -187 89 -336 15 -279 b -7 -142 -28 -162 -26 -151 l 49 -114 b 83 -128 65 -106 74 -110 b 218 -225 108 -189 142 -225 b 410 -40 329 -225 386 -158 l 425 36 b 251 4 385 19 325 4 b 40 279 81 4 11 104 l 71 454 b 393 738 104 647 203 738 b 614 694 479 738 563 719 b 649 618 649 676 656 661 l 532 -43 b 217 -336 497 -232 400 -336 m 283 117 b 442 149 351 117 403 132 l 517 569 b 500 604 521 589 519 596 b 385 625 474 615 432 625 b 192 442 271 625 215 569 l 163 278 b 283 117 144 169 178 117 "},"Ĥ":{"ha":922,"x_min":0,"x_max":0,"o":"m 367 1057 b 350 1088 339 1057 335 1075 l 529 1238 b 574 1257 547 1251 556 1257 l 606 1257 b 650 1235 628 1257 635 1254 l 778 1082 b 763 1057 788 1069 788 1057 l 711 1057 b 665 1079 683 1057 678 1064 l 585 1175 l 467 1074 b 414 1057 449 1057 439 1057 l 367 1057 m 68 0 b 38 40 42 0 31 6 l 199 953 b 239 986 203 979 215 986 l 301 986 b 331 947 332 986 335 975 l 263 563 l 683 563 l 753 953 b 797 986 757 981 771 986 l 857 986 b 885 947 885 986 889 975 l 725 38 b 688 0 721 11 713 0 l 622 0 b 592 38 593 0 586 8 l 663 438 l 242 438 l 169 32 b 133 0 165 13 160 0 l 68 0 "},"ĥ":{"ha":742,"x_min":0,"x_max":0,"o":"m 76 1078 b 60 1108 49 1078 44 1096 l 239 1258 b 283 1278 257 1272 265 1278 l 315 1278 b 360 1256 338 1278 344 1275 l 488 1103 b 472 1078 497 1090 497 1078 l 421 1078 b 375 1100 393 1078 388 1085 l 294 1196 l 176 1094 b 124 1078 158 1078 149 1078 l 76 1078 m 50 0 b 24 36 26 0 19 11 l 193 999 b 233 1028 197 1024 213 1028 l 290 1028 b 315 990 313 1028 319 1014 l 265 707 b 433 738 304 724 365 738 b 640 463 611 738 671 635 l 565 29 b 526 0 561 6 547 0 l 465 0 b 443 38 443 0 439 15 l 517 463 b 403 625 536 575 500 625 b 246 593 342 625 286 611 l 146 31 b 106 0 140 6 128 0 l 50 0 "},"Ħ":{"ha":921,"x_min":0,"x_max":0,"o":"m 60 0 b 36 40 35 0 32 14 l 161 753 l 96 753 b 78 781 78 753 75 761 l 83 811 b 107 832 88 831 92 832 l 176 832 l 197 954 b 236 986 201 979 214 986 l 301 986 b 329 949 326 986 333 976 l 310 832 l 731 832 l 751 954 b 794 986 757 982 771 986 l 858 986 b 883 946 883 986 888 972 l 864 832 l 931 832 b 947 803 947 832 951 822 l 942 772 b 919 753 939 756 935 753 l 850 753 l 722 32 b 682 0 718 6 706 0 l 615 0 b 590 40 590 0 586 14 l 661 438 l 240 438 l 168 32 b 128 0 163 4 153 0 l 60 0 m 682 563 l 715 753 l 294 753 l 261 563 "},"ħ":{"ha":742,"x_min":0,"x_max":0,"o":"m 47 0 b 21 36 24 0 17 11 l 164 847 l 110 847 b 88 871 92 847 85 853 l 94 903 b 118 922 97 921 103 922 l 176 922 l 190 999 b 231 1028 194 1024 210 1028 l 288 1028 b 313 990 311 1028 318 1014 l 301 922 l 475 922 b 493 893 493 922 496 913 l 489 867 b 464 847 485 847 478 847 l 288 847 l 263 707 b 431 738 301 724 364 738 b 639 463 608 738 668 635 l 563 29 b 524 0 558 6 544 0 l 463 0 b 440 38 442 0 438 15 l 515 463 b 401 625 535 575 497 625 b 243 593 339 625 283 611 l 143 31 b 103 0 139 6 125 0 l 47 0 "},"Ĩ":{"ha":368,"x_min":0,"x_max":0,"o":"m 103 1068 b 86 1106 88 1068 83 1076 b 207 1235 97 1189 139 1235 b 376 1147 303 1235 318 1147 b 435 1217 407 1147 428 1175 b 453 1235 438 1231 440 1235 l 493 1235 b 507 1199 508 1235 511 1226 b 390 1068 493 1113 456 1068 b 218 1154 296 1068 281 1154 b 158 1088 188 1154 164 1129 b 140 1068 157 1074 153 1068 l 103 1068 m 64 0 b 38 40 40 0 32 8 l 199 956 b 240 986 204 983 222 986 l 303 986 b 331 947 326 986 336 978 l 169 32 b 133 0 165 8 153 0 l 64 0 "},"ĩ":{"ha":326,"x_min":0,"x_max":0,"o":"m 78 835 b 63 865 65 835 60 847 b 171 1001 82 971 117 1001 b 290 917 253 1001 242 917 b 344 989 314 917 333 940 b 360 1001 346 1000 346 1001 l 392 1001 b 407 972 404 1001 410 992 b 299 835 388 867 356 835 b 182 917 221 835 231 917 b 126 849 156 917 139 903 b 111 835 124 839 122 835 l 78 835 m 44 0 b 21 38 21 0 18 15 l 136 689 b 174 717 140 708 151 717 l 235 717 b 258 679 257 717 263 704 l 143 31 b 104 0 139 8 128 0 l 44 0 "},"Ī":{"ha":368,"x_min":0,"x_max":0,"o":"m 139 1103 b 111 1139 114 1103 107 1115 l 115 1167 b 157 1193 119 1190 136 1193 l 463 1193 b 490 1157 488 1193 494 1182 l 486 1132 b 450 1103 482 1110 468 1103 l 139 1103 m 64 0 b 38 40 40 0 32 8 l 199 956 b 240 986 204 983 222 986 l 303 986 b 331 947 326 986 336 978 l 169 32 b 133 0 165 8 153 0 l 64 0 "},"ī":{"ha":326,"x_min":0,"x_max":0,"o":"m 124 875 b 106 901 108 875 103 883 l 113 936 b 143 961 115 954 122 961 l 351 961 b 369 936 367 961 371 951 l 363 901 b 338 875 358 881 351 875 l 124 875 m 44 0 b 21 38 21 0 18 15 l 136 689 b 174 717 140 708 151 717 l 235 717 b 258 679 257 717 263 704 l 143 31 b 104 0 139 8 128 0 l 44 0 "},"Ĭ":{"ha":368,"x_min":0,"x_max":0,"o":"m 294 1058 b 117 1207 194 1058 132 1108 b 128 1238 111 1226 114 1233 l 174 1253 b 204 1236 190 1258 199 1254 b 299 1149 213 1179 246 1149 b 425 1242 356 1149 397 1178 b 456 1251 433 1257 439 1258 l 504 1233 b 513 1200 519 1226 521 1221 b 294 1058 474 1108 394 1058 m 64 0 b 38 40 40 0 32 8 l 199 956 b 240 986 204 983 222 986 l 303 986 b 331 947 326 986 336 978 l 169 32 b 133 0 165 8 153 0 l 64 0 "},"ĭ":{"ha":326,"x_min":0,"x_max":0,"o":"m 221 822 b 67 972 126 822 85 879 b 81 996 63 985 64 990 l 126 1011 b 161 990 149 1018 156 1008 b 228 914 164 936 186 914 b 329 1006 274 914 301 949 b 357 1010 339 1017 344 1014 l 403 993 b 415 956 419 986 426 976 b 221 822 378 869 310 822 m 44 0 b 21 38 21 0 18 15 l 136 689 b 174 717 140 708 151 717 l 235 717 b 258 679 257 717 263 704 l 143 31 b 104 0 139 8 128 0 l 44 0 "},"Į":{"ha":368,"x_min":0,"x_max":0,"o":"m 22 -342 b -76 -257 -36 -342 -75 -315 b 71 0 -79 -186 -37 -97 b 39 47 33 1 33 15 l 199 954 b 243 986 204 982 215 986 l 304 986 b 331 946 332 986 335 972 l 171 33 b 158 -3 168 17 167 4 b 33 -224 68 -93 29 -175 b 64 -250 35 -246 51 -250 b 126 -225 86 -250 108 -239 b 142 -235 136 -221 139 -226 l 153 -272 b 149 -299 157 -286 156 -293 b 22 -342 124 -322 74 -342 "},"į":{"ha":326,"x_min":0,"x_max":0,"o":"m 211 865 b 168 929 172 865 160 881 l 172 946 b 228 1003 181 992 190 1003 l 271 1003 b 313 938 310 1003 319 983 l 310 921 b 253 865 300 874 292 865 l 211 865 m 13 -342 b -85 -249 -49 -342 -85 -311 b 51 1 -82 -167 -12 -62 b 21 35 22 -1 17 11 l 136 689 b 174 717 139 707 150 717 l 235 717 b 258 679 260 717 263 701 l 143 32 b 133 -1 140 17 139 7 b 25 -214 82 -78 32 -151 b 57 -250 24 -239 35 -250 b 119 -224 75 -250 97 -242 b 135 -235 125 -221 132 -226 l 146 -275 b 139 -300 149 -285 149 -293 b 13 -342 100 -333 50 -342 "},"İ":{"ha":368,"x_min":0,"x_max":0,"o":"m 289 1085 b 238 1149 243 1085 231 1103 l 240 1158 b 306 1213 249 1204 260 1213 l 313 1213 b 364 1150 358 1213 372 1196 l 363 1140 b 297 1085 354 1094 343 1085 l 289 1085 m 64 0 b 38 40 40 0 32 8 l 199 956 b 240 986 204 983 222 986 l 303 986 b 331 947 326 986 336 978 l 169 32 b 133 0 165 8 153 0 l 64 0 "},"ı":{"ha":326,"x_min":0,"x_max":0,"o":"m 44 0 b 21 38 21 0 18 15 l 136 689 b 174 717 140 708 151 717 l 235 717 b 258 679 257 717 263 704 l 143 31 b 104 0 139 8 128 0 l 44 0 "},"Ĳ":{"ha":1110,"x_min":0,"x_max":0,"o":"m 64 0 b 38 40 40 0 32 8 l 199 956 b 240 986 204 983 222 986 l 303 986 b 331 947 326 986 336 978 l 169 32 b 133 0 165 8 153 0 l 64 0 m 599 -21 b 335 236 428 -21 353 75 b 357 275 331 257 335 269 l 419 294 b 460 265 443 301 453 296 b 613 104 468 160 511 104 b 835 321 738 104 811 188 l 947 956 b 986 986 951 982 967 986 l 1054 986 b 1079 947 1078 986 1083 974 l 968 313 b 599 -21 931 104 804 -21 "},"ĳ":{"ha":646,"x_min":0,"x_max":0,"o":"m 508 865 b 467 929 469 865 457 881 l 469 947 b 525 1004 478 993 488 1004 l 568 1004 b 611 939 607 1004 618 983 l 607 921 b 551 865 599 874 590 865 l 508 865 m 211 865 b 168 929 172 865 160 881 l 172 946 b 228 1003 181 992 190 1003 l 271 1003 b 313 938 310 1003 319 983 l 310 921 b 253 865 300 874 292 865 l 211 865 m 42 0 b 21 36 24 0 17 13 l 136 688 b 172 717 140 713 157 717 l 236 717 b 258 679 256 717 263 706 l 143 31 b 107 0 138 6 125 0 l 42 0 m 136 -319 b 106 -282 110 -319 101 -307 l 114 -233 b 143 -204 118 -208 124 -204 b 307 -6 267 -204 285 -128 l 429 689 b 467 717 433 710 444 717 l 529 717 b 551 679 551 717 556 704 l 428 -17 b 136 -319 394 -211 350 -319 "},"Ĵ":{"ha":769,"x_min":0,"x_max":0,"o":"m 499 1057 b 482 1088 471 1057 467 1075 l 661 1238 b 706 1257 679 1251 688 1257 l 738 1257 b 782 1235 760 1257 767 1254 l 910 1082 b 894 1057 919 1069 919 1057 l 843 1057 b 797 1079 815 1057 810 1064 l 717 1175 l 599 1074 b 546 1057 581 1057 571 1057 l 499 1057 m 260 -21 b -4 236 89 -21 13 75 b 17 275 -10 257 -4 269 l 81 294 b 121 265 104 301 113 296 b 274 104 128 160 172 104 b 496 321 399 104 472 188 l 608 956 b 647 986 613 982 626 986 l 714 986 b 739 947 738 986 744 974 l 628 313 b 260 -21 590 104 465 -21 "},"ĵ":{"ha":319,"x_min":0,"x_max":0,"o":"m 51 822 b 33 851 24 822 21 838 l 181 986 b 247 1013 211 1013 217 1013 l 261 1013 b 314 981 286 1013 294 1008 l 414 846 b 399 822 424 832 426 822 l 353 822 b 304 843 326 822 314 828 l 243 933 l 149 838 b 96 822 128 821 121 822 l 51 822 m -160 -319 b -190 -282 -186 -319 -194 -307 l -182 -233 b -154 -204 -178 -208 -172 -204 b 11 -6 -29 -204 -11 -128 l 133 689 b 171 717 138 710 149 717 l 233 717 b 256 679 256 717 260 704 l 132 -17 b -160 -319 99 -211 54 -319 "},"Ķ":{"ha":831,"x_min":0,"x_max":0,"o":"m 68 0 b 38 40 39 0 32 10 l 199 956 b 238 986 204 982 218 986 l 304 986 b 331 947 329 986 335 975 l 263 561 l 364 561 l 383 561 l 704 960 b 767 986 725 986 732 986 l 842 986 b 860 947 869 986 872 967 l 507 532 b 608 375 561 507 586 453 l 707 33 b 686 0 713 13 713 0 l 610 0 b 567 36 579 0 572 8 l 486 333 b 363 439 464 413 443 439 l 242 439 l 169 31 b 133 0 164 4 150 0 l 68 0 m 221 -351 b 201 -322 201 -351 196 -342 l 275 -124 b 317 -93 282 -97 290 -93 l 372 -93 b 401 -133 404 -93 414 -110 l 303 -325 b 261 -351 290 -347 283 -351 l 221 -351 "},"ķ":{"ha":686,"x_min":0,"x_max":0,"o":"m 46 0 b 22 39 22 0 18 13 l 190 999 b 228 1028 196 1024 213 1028 l 290 1028 b 314 990 311 1028 318 1015 l 214 424 l 301 424 l 315 424 l 532 694 b 574 717 546 714 550 717 l 650 717 b 664 675 681 717 682 697 l 426 396 b 494 283 464 378 481 339 l 558 35 b 533 0 565 7 564 0 l 474 0 b 432 32 443 0 438 7 l 383 236 b 303 310 371 289 351 310 l 193 310 l 144 31 b 106 0 139 4 125 0 l 46 0 m 139 -351 b 119 -322 119 -351 114 -342 l 193 -124 b 235 -93 200 -97 208 -93 l 290 -93 b 319 -133 322 -93 332 -110 l 221 -325 b 179 -351 208 -347 201 -351 l 139 -351 "},"ĸ":{"ha":649,"x_min":0,"x_max":0,"o":"m 43 0 b 21 39 21 0 15 13 l 135 688 b 174 717 139 711 151 717 l 232 717 b 257 679 256 717 261 704 l 201 363 l 500 693 b 556 717 521 718 524 717 l 618 717 b 633 675 647 717 653 700 l 389 414 l 525 36 b 500 0 532 11 532 0 l 446 0 b 401 31 410 0 407 6 l 294 324 l 174 207 l 142 31 b 104 0 138 7 125 0 l 43 0 "},"Ĺ":{"ha":701,"x_min":0,"x_max":0,"o":"m 149 1086 b 153 1122 139 1099 142 1115 l 375 1254 b 428 1244 396 1265 414 1264 l 450 1211 b 444 1175 460 1197 460 1181 l 201 1058 b 163 1065 181 1050 171 1054 m 63 0 b 38 40 38 0 33 13 l 199 954 b 240 986 204 982 215 986 l 306 986 b 331 947 329 986 335 975 l 186 125 l 569 125 b 599 86 599 125 603 110 l 589 31 b 553 0 585 8 574 0 l 63 0 "},"ĺ":{"ha":336,"x_min":0,"x_max":0,"o":"m 156 1104 b 158 1138 144 1121 142 1128 l 353 1249 b 406 1239 375 1261 393 1260 l 431 1201 b 425 1164 443 1182 449 1172 l 211 1072 b 171 1079 190 1064 178 1067 m 49 0 b 26 38 26 0 21 13 l 194 999 b 233 1028 200 1022 214 1028 l 292 1028 b 318 990 317 1028 322 1015 l 147 29 b 111 0 143 7 131 0 l 49 0 "},"Ļ":{"ha":701,"x_min":0,"x_max":0,"o":"m 63 0 b 38 40 38 0 33 13 l 199 954 b 240 986 204 982 215 986 l 306 986 b 331 947 329 986 335 975 l 186 125 l 569 125 b 599 86 599 125 603 110 l 589 31 b 553 0 585 8 574 0 l 63 0 m 167 -351 b 147 -322 147 -351 142 -342 l 221 -124 b 263 -93 228 -97 236 -93 l 318 -93 b 347 -133 350 -93 360 -110 l 249 -325 b 207 -351 236 -347 229 -351 l 167 -351 "},"ļ":{"ha":336,"x_min":0,"x_max":0,"o":"m 49 0 b 26 38 26 0 21 13 l 194 999 b 233 1028 200 1022 214 1028 l 292 1028 b 318 990 317 1028 322 1015 l 147 29 b 111 0 143 7 131 0 l 49 0 m -49 -351 b -68 -322 -68 -351 -74 -342 l 6 -124 b 47 -93 13 -97 21 -93 l 103 -93 b 132 -133 135 -93 144 -110 l 33 -325 b -8 -351 21 -347 14 -351 l -49 -351 "},"Ľ":{"ha":701,"x_min":0,"x_max":0,"o":"m 63 0 b 38 40 38 0 33 13 l 199 954 b 240 986 204 982 215 986 l 306 986 b 331 947 329 986 335 975 l 186 125 l 569 125 b 599 86 599 125 603 110 l 589 31 b 553 0 585 8 574 0 l 63 0 m 475 682 b 454 713 456 682 449 693 l 538 956 b 581 986 546 983 553 986 l 636 986 b 667 944 669 986 678 968 l 554 708 b 510 682 542 683 536 682 l 475 682 "},"ľ":{"ha":336,"x_min":0,"x_max":0,"o":"m 49 0 b 26 38 26 0 21 13 l 194 999 b 233 1028 200 1022 214 1028 l 292 1028 b 318 990 317 1028 322 1015 l 147 29 b 111 0 143 7 131 0 l 49 0 m 369 769 b 350 797 350 769 343 778 l 419 999 b 461 1028 428 1024 435 1028 l 511 1028 b 540 990 540 1028 553 1013 l 439 796 b 399 769 428 774 421 769 l 369 769 "},"Ŀ":{"ha":701,"x_min":0,"x_max":0,"o":"m 63 0 b 38 40 38 0 33 13 l 199 954 b 240 986 204 982 215 986 l 306 986 b 331 947 329 986 335 975 l 186 125 l 569 125 b 599 86 599 125 603 110 l 589 31 b 553 0 585 8 574 0 l 63 0 m 471 439 b 410 515 417 439 400 460 l 413 525 b 490 593 422 579 438 593 l 500 593 b 561 517 554 593 571 571 l 560 507 b 481 439 549 453 533 439 l 471 439 "},"ŀ":{"ha":508,"x_min":0,"x_max":0,"o":"m 49 0 b 26 38 26 0 21 13 l 194 999 b 233 1028 200 1022 214 1028 l 292 1028 b 318 990 317 1028 322 1015 l 147 29 b 111 0 143 7 131 0 l 49 0 m 363 450 b 306 522 313 450 296 471 l 307 532 b 381 596 317 583 331 596 l 390 596 b 447 524 440 596 457 574 l 446 514 b 371 450 436 463 422 450 l 363 450 "},"Ł":{"ha":731,"x_min":0,"x_max":0,"o":"m 89 0 b 61 38 61 0 57 11 l 121 376 l 40 338 b 7 354 19 329 11 338 l -7 393 b 4 424 -11 407 -10 418 l 140 483 l 222 954 b 265 986 228 982 238 986 l 326 986 b 354 946 354 986 358 972 l 283 543 l 524 658 b 557 643 546 668 554 657 l 571 601 b 558 572 575 588 574 579 l 264 438 l 210 125 l 593 125 b 621 83 619 125 626 114 l 613 32 b 572 0 607 8 600 0 l 89 0 "},"ł":{"ha":433,"x_min":0,"x_max":0,"o":"m 96 0 b 71 38 72 0 67 11 l 140 432 l 71 394 b 38 407 50 385 43 392 l 22 443 b 32 475 17 458 18 468 l 160 538 l 240 999 b 281 1028 244 1021 256 1028 l 338 1028 b 363 990 361 1028 368 1015 l 294 604 l 374 646 b 407 638 392 654 403 651 l 422 599 b 413 568 428 583 429 576 l 276 500 l 193 29 b 154 0 189 8 178 0 l 96 0 "},"Ń":{"ha":936,"x_min":0,"x_max":0,"o":"m 435 1086 b 439 1122 425 1099 428 1115 l 661 1254 b 714 1244 682 1265 700 1264 l 736 1211 b 731 1175 746 1197 746 1181 l 488 1058 b 449 1065 467 1050 457 1054 m 63 0 b 38 39 38 0 33 11 l 199 954 b 240 986 203 982 215 986 l 311 986 b 342 965 331 986 339 976 l 582 397 b 650 182 614 315 631 254 l 656 182 b 681 451 658 267 663 346 l 771 956 b 813 986 775 982 788 986 l 874 986 b 900 946 899 986 904 975 l 738 33 b 700 0 733 14 726 0 l 626 0 b 596 22 610 0 600 8 l 354 599 b 292 806 324 675 306 742 l 285 806 b 257 546 282 726 274 643 l 165 32 b 125 0 160 4 150 0 l 63 0 "},"ń":{"ha":739,"x_min":0,"x_max":0,"o":"m 294 857 b 299 892 286 869 289 886 l 522 1024 b 574 1015 543 1035 561 1035 l 597 982 b 592 946 607 968 606 951 l 347 829 b 308 835 328 819 317 824 m 42 0 b 18 38 21 0 14 11 l 121 617 b 179 690 128 657 143 675 b 415 738 236 714 318 738 b 636 458 600 738 668 639 l 561 29 b 524 0 557 8 547 0 l 463 0 b 439 38 442 0 435 11 l 514 463 b 399 625 532 569 497 625 b 264 600 342 625 294 613 b 236 569 244 592 239 583 l 140 29 b 103 0 136 10 125 0 l 42 0 "},"Ņ":{"ha":936,"x_min":0,"x_max":0,"o":"m 63 0 b 38 39 38 0 33 11 l 199 954 b 240 986 203 982 215 986 l 311 986 b 342 965 331 986 339 976 l 582 397 b 650 182 614 315 631 254 l 656 182 b 681 451 658 267 663 346 l 771 956 b 813 986 775 982 788 986 l 874 986 b 900 946 899 986 904 975 l 738 33 b 700 0 733 14 726 0 l 626 0 b 596 22 610 0 600 8 l 354 599 b 292 806 324 675 306 742 l 285 806 b 257 546 282 726 274 643 l 165 32 b 125 0 160 4 150 0 l 63 0 m 251 -351 b 232 -322 232 -351 226 -342 l 306 -124 b 347 -93 313 -97 321 -93 l 403 -93 b 432 -133 435 -93 444 -110 l 333 -325 b 292 -351 321 -347 314 -351 l 251 -351 "},"ņ":{"ha":739,"x_min":0,"x_max":0,"o":"m 42 0 b 18 38 21 0 14 11 l 121 617 b 179 690 128 657 143 675 b 415 738 236 714 318 738 b 636 458 600 738 668 639 l 561 29 b 524 0 557 8 547 0 l 463 0 b 439 38 442 0 435 11 l 514 463 b 399 625 532 569 497 625 b 264 600 342 625 294 613 b 236 569 244 592 239 583 l 140 29 b 103 0 136 10 125 0 l 42 0 m 165 -351 b 146 -322 146 -351 140 -342 l 219 -124 b 261 -93 226 -97 235 -93 l 317 -93 b 346 -133 349 -93 358 -110 l 247 -325 b 206 -351 235 -347 228 -351 l 165 -351 "},"Ň":{"ha":936,"x_min":0,"x_max":0,"o":"m 561 1056 b 510 1086 536 1056 526 1064 l 388 1231 b 403 1256 376 1244 375 1256 l 454 1256 b 499 1236 481 1256 486 1253 l 581 1136 l 699 1240 b 747 1256 717 1256 722 1256 l 797 1256 b 814 1225 826 1256 829 1238 l 642 1082 b 581 1056 614 1060 607 1056 l 561 1056 m 63 0 b 38 39 38 0 33 11 l 199 954 b 240 986 203 982 215 986 l 311 986 b 342 965 331 986 339 976 l 582 397 b 650 182 614 315 631 254 l 656 182 b 681 451 658 267 663 346 l 771 956 b 813 986 775 982 788 986 l 874 986 b 900 946 899 986 904 975 l 738 33 b 700 0 733 14 726 0 l 626 0 b 596 22 610 0 600 8 l 354 599 b 292 806 324 675 306 742 l 285 806 b 257 546 282 726 274 643 l 165 32 b 125 0 160 4 150 0 l 63 0 "},"ň":{"ha":739,"x_min":0,"x_max":0,"o":"m 400 822 b 349 851 375 822 367 831 l 228 997 b 243 1021 217 1010 214 1021 l 293 1021 b 338 1003 319 1021 325 1018 l 419 903 l 539 1006 b 586 1021 556 1021 561 1021 l 638 1021 b 653 990 665 1021 668 1004 l 481 849 b 419 822 453 826 446 822 l 400 822 m 42 0 b 18 38 21 0 14 11 l 121 617 b 179 690 128 657 143 675 b 415 738 236 714 318 738 b 636 458 600 738 668 639 l 561 29 b 524 0 557 8 547 0 l 463 0 b 439 38 442 0 435 11 l 514 463 b 399 625 532 569 497 625 b 264 600 342 625 294 613 b 236 569 244 592 239 583 l 140 29 b 103 0 136 10 125 0 l 42 0 "},"ŉ":{"ha":739,"x_min":0,"x_max":0,"o":"m 71 765 b 54 792 53 765 46 775 l 156 996 b 199 1024 168 1019 171 1024 l 257 1024 b 279 985 288 1024 296 1004 l 140 785 b 100 765 125 765 122 765 l 71 765 m 42 0 b 18 38 21 0 14 11 l 121 617 b 179 690 128 657 143 675 b 415 738 236 714 318 738 b 636 458 600 738 668 639 l 561 29 b 524 0 557 8 547 0 l 463 0 b 439 38 442 0 435 11 l 514 463 b 399 625 532 569 497 625 b 264 600 342 625 294 613 b 236 569 244 592 239 583 l 140 29 b 103 0 136 10 125 0 l 42 0 "},"Ŋ":{"ha":936,"x_min":0,"x_max":0,"o":"m 399 -319 b 364 -282 368 -319 360 -307 l 372 -233 b 406 -204 376 -208 382 -204 b 599 -14 538 -204 581 -132 l 603 6 l 354 599 b 292 806 325 674 307 739 l 285 804 b 257 546 281 732 274 643 l 165 32 b 125 0 160 4 150 0 l 61 0 b 38 40 36 0 33 14 l 199 954 b 240 986 203 982 214 986 l 311 986 b 342 965 331 986 339 976 l 581 397 b 650 182 614 315 631 254 l 657 182 b 682 451 658 267 664 346 l 771 954 b 813 986 776 982 786 986 l 874 986 b 900 944 900 986 904 972 l 724 -42 b 399 -319 690 -233 611 -319 "},"ŋ":{"ha":739,"x_min":0,"x_max":0,"o":"m 249 -319 b 217 -283 221 -319 211 -308 l 225 -237 b 254 -210 228 -212 233 -210 b 431 -14 390 -210 408 -135 l 514 463 b 399 625 532 569 497 625 b 264 600 342 625 293 613 b 236 569 244 593 239 583 l 140 29 b 103 0 136 10 125 0 l 42 0 b 18 38 21 0 14 11 l 121 617 b 179 690 128 657 143 675 b 415 738 236 714 318 738 b 636 458 600 738 668 639 l 551 -26 b 249 -319 518 -215 454 -319 "},"Ō":{"ha":899,"x_min":0,"x_max":0,"o":"m 404 1117 b 376 1153 379 1117 372 1129 l 381 1181 b 422 1207 385 1204 401 1207 l 728 1207 b 756 1171 753 1207 760 1196 l 751 1146 b 715 1117 747 1124 733 1117 l 404 1117 m 369 -21 b 61 339 128 -21 22 119 l 117 656 b 529 1007 156 875 293 1007 b 836 647 760 1007 875 869 l 781 331 b 369 -21 743 110 600 -21 m 379 104 b 649 339 528 104 622 189 l 706 656 b 518 882 731 804 661 882 b 249 647 367 882 275 794 l 193 331 b 379 104 168 188 232 104 "},"ō":{"ha":725,"x_min":0,"x_max":0,"o":"m 275 872 b 247 908 250 872 244 885 l 253 936 b 294 963 256 960 272 963 l 599 963 b 626 928 624 963 632 953 l 622 901 b 586 872 618 879 606 872 l 275 872 m 276 -21 b 35 249 93 -21 7 86 l 75 476 b 394 738 106 647 217 738 b 642 467 579 738 669 628 l 601 240 b 276 -21 572 74 456 -21 m 289 92 b 479 249 393 92 463 153 l 519 476 b 386 625 538 572 482 625 b 197 468 283 625 214 565 l 157 240 b 289 92 140 146 196 92 "},"Ŏ":{"ha":899,"x_min":0,"x_max":0,"o":"m 560 1072 b 382 1221 460 1072 397 1122 b 393 1251 376 1240 379 1247 l 439 1267 b 469 1250 456 1272 464 1268 b 564 1163 478 1193 511 1163 b 690 1256 621 1163 663 1192 b 721 1265 699 1271 704 1272 l 769 1247 b 778 1214 785 1240 786 1235 b 560 1072 739 1122 660 1072 m 369 -21 b 61 339 128 -21 22 119 l 117 656 b 529 1007 156 875 293 1007 b 836 647 760 1007 875 869 l 781 331 b 369 -21 743 110 600 -21 m 379 104 b 649 339 528 104 622 189 l 706 656 b 518 882 731 804 661 882 b 249 647 367 882 275 794 l 193 331 b 379 104 168 188 232 104 "},"ŏ":{"ha":725,"x_min":0,"x_max":0,"o":"m 428 826 b 249 975 328 826 265 876 b 261 1006 244 994 247 1001 l 307 1021 b 338 1004 324 1025 331 1021 b 431 917 346 944 378 917 b 557 1010 489 917 526 949 b 588 1019 565 1025 571 1026 l 636 1001 b 644 968 653 994 654 989 b 428 826 601 879 526 826 m 276 -21 b 35 249 93 -21 7 86 l 75 476 b 394 738 106 647 217 738 b 642 467 579 738 669 628 l 601 240 b 276 -21 572 74 456 -21 m 289 92 b 479 249 393 92 463 153 l 519 476 b 386 625 538 572 482 625 b 197 468 283 625 214 565 l 157 240 b 289 92 140 146 196 92 "},"Ő":{"ha":899,"x_min":0,"x_max":0,"o":"m 376 1081 b 367 1115 357 1088 354 1101 l 500 1260 b 547 1275 515 1278 526 1283 l 590 1260 b 597 1221 611 1250 615 1235 l 436 1085 b 396 1074 419 1071 408 1069 m 600 1082 b 590 1117 581 1089 578 1103 l 725 1260 b 774 1275 740 1276 751 1283 l 815 1258 b 822 1221 836 1249 840 1233 l 660 1085 b 621 1075 643 1072 633 1071 m 369 -21 b 61 339 128 -21 22 119 l 117 656 b 529 1007 156 875 293 1007 b 836 647 760 1007 875 869 l 781 331 b 369 -21 743 110 600 -21 m 379 104 b 649 339 528 104 622 189 l 706 656 b 518 882 731 804 661 882 b 249 647 367 882 275 794 l 193 331 b 379 104 168 188 232 104 "},"ő":{"ha":725,"x_min":0,"x_max":0,"o":"m 247 826 b 238 861 228 833 225 847 l 371 1006 b 418 1021 386 1022 397 1029 l 461 1004 b 468 967 482 996 486 981 l 307 831 b 268 819 290 818 281 815 m 472 826 b 461 861 451 833 450 847 l 596 1006 b 643 1021 610 1022 621 1029 l 685 1004 b 692 967 706 996 710 981 l 531 831 b 492 819 514 818 504 815 m 276 -21 b 35 249 93 -21 7 86 l 75 476 b 394 738 106 647 217 738 b 642 467 579 738 669 628 l 601 240 b 276 -21 572 74 456 -21 m 289 92 b 479 249 393 92 463 153 l 519 476 b 386 625 538 572 482 625 b 197 468 283 625 214 565 l 157 240 b 289 92 140 146 196 92 "},"Œ":{"ha":1157,"x_min":0,"x_max":0,"o":"m 371 -21 b 61 339 131 -21 22 119 l 117 656 b 536 1007 156 875 299 1007 b 693 985 594 1007 653 999 l 1132 986 b 1157 946 1158 986 1161 972 l 1149 893 b 1113 861 1143 869 1135 861 l 765 861 l 713 561 l 992 561 b 1024 526 1018 561 1028 553 l 1014 469 b 979 438 1010 449 1001 438 l 690 438 l 636 125 l 990 125 b 1021 86 1019 125 1026 113 l 1011 32 b 974 0 1006 10 996 0 l 525 -1 b 371 -21 476 -14 422 -21 m 382 104 b 503 124 432 104 479 114 l 640 867 b 525 882 617 875 568 882 b 249 647 368 882 275 794 l 193 331 b 382 104 168 183 238 104 "},"œ":{"ha":1092,"x_min":0,"x_max":0,"o":"m 265 -21 b 35 249 97 -21 7 86 l 75 476 b 379 738 106 647 218 738 b 571 622 479 738 550 690 b 803 738 625 697 701 738 b 1035 532 953 738 1044 663 b 754 294 1025 378 914 294 b 582 318 696 294 632 303 l 564 218 b 685 72 549 125 592 72 b 867 188 767 72 826 121 b 903 194 876 203 888 203 l 947 171 b 956 129 968 160 967 147 b 678 -21 896 40 817 -21 b 482 85 574 -21 510 18 b 265 -21 432 17 357 -21 m 746 382 b 913 525 833 382 903 429 b 796 644 921 608 872 644 b 607 458 694 644 631 583 l 596 403 b 746 382 643 388 699 382 m 283 92 b 453 246 379 92 436 154 l 494 475 b 376 626 513 572 464 626 b 197 468 279 626 214 564 l 157 240 b 283 92 139 144 201 92 "},"Ŕ":{"ha":874,"x_min":0,"x_max":0,"o":"m 396 1086 b 400 1122 386 1099 389 1115 l 622 1254 b 675 1244 643 1265 661 1264 l 697 1211 b 692 1175 707 1197 707 1181 l 449 1058 b 410 1065 428 1050 418 1054 m 63 0 b 38 40 35 0 33 17 l 199 954 b 242 986 204 982 215 986 l 586 986 b 828 721 744 986 839 885 b 582 424 815 564 728 460 b 640 333 613 404 631 369 l 722 33 b 703 0 731 7 724 0 l 635 0 b 583 36 593 0 589 8 l 513 290 b 386 401 490 376 469 401 l 235 401 l 169 35 b 131 0 165 7 154 0 l 63 0 m 499 519 b 693 713 607 519 682 594 b 558 861 704 806 649 861 l 315 861 l 256 519 "},"ŕ":{"ha":460,"x_min":0,"x_max":0,"o":"m 185 857 b 189 892 176 869 179 886 l 413 1024 b 464 1015 433 1035 451 1035 l 488 982 b 482 946 497 968 496 951 l 238 829 b 199 835 218 819 207 824 m 42 0 b 18 38 21 0 14 13 l 119 604 b 172 682 126 647 135 668 b 363 717 219 699 285 714 b 444 717 393 718 421 718 b 467 681 469 715 472 706 l 458 633 b 429 606 453 608 449 606 b 371 603 408 606 389 604 b 260 582 326 603 285 592 b 233 549 242 574 236 565 l 140 29 b 103 0 136 8 124 0 l 42 0 "},"Ŗ":{"ha":874,"x_min":0,"x_max":0,"o":"m 63 0 b 38 40 35 0 33 17 l 199 954 b 242 986 204 982 215 986 l 586 986 b 828 721 744 986 839 885 b 582 424 815 564 728 460 b 640 333 613 404 631 369 l 722 33 b 703 0 731 7 724 0 l 635 0 b 583 36 593 0 589 8 l 513 290 b 386 401 490 376 469 401 l 235 401 l 169 35 b 131 0 165 7 154 0 l 63 0 m 499 519 b 693 713 607 519 682 594 b 558 861 704 806 649 861 l 315 861 l 256 519 m 238 -351 b 218 -322 218 -351 213 -342 l 292 -124 b 333 -93 299 -97 307 -93 l 389 -93 b 418 -133 421 -93 431 -110 l 319 -325 b 278 -351 307 -347 300 -351 l 238 -351 "},"ŗ":{"ha":460,"x_min":0,"x_max":0,"o":"m 42 0 b 18 38 21 0 14 13 l 119 604 b 172 682 126 647 135 668 b 363 717 219 699 285 714 b 444 717 393 718 421 718 b 467 681 469 715 472 706 l 458 633 b 429 606 453 608 449 606 b 371 603 408 606 389 604 b 260 582 326 603 285 592 b 233 549 242 574 236 565 l 140 29 b 103 0 136 8 124 0 l 42 0 m -22 -351 b -42 -322 -42 -351 -47 -342 l 32 -124 b 74 -93 39 -97 47 -93 l 129 -93 b 158 -133 161 -93 171 -110 l 60 -325 b 18 -351 47 -347 40 -351 l -22 -351 "},"Ř":{"ha":874,"x_min":0,"x_max":0,"o":"m 521 1056 b 469 1086 496 1056 486 1064 l 347 1231 b 363 1256 336 1244 335 1256 l 414 1256 b 458 1236 440 1256 446 1253 l 540 1136 l 658 1240 b 707 1256 676 1256 682 1256 l 757 1256 b 774 1225 786 1256 789 1238 l 601 1082 b 540 1056 574 1060 567 1056 l 521 1056 m 63 0 b 38 40 35 0 33 17 l 199 954 b 242 986 204 982 215 986 l 586 986 b 828 721 744 986 839 885 b 582 424 815 564 728 460 b 640 333 613 404 631 369 l 722 33 b 703 0 731 7 724 0 l 635 0 b 583 36 593 0 589 8 l 513 290 b 386 401 490 376 469 401 l 235 401 l 169 35 b 131 0 165 7 154 0 l 63 0 m 499 519 b 693 713 607 519 682 594 b 558 861 704 806 649 861 l 315 861 l 256 519 "},"ř":{"ha":460,"x_min":0,"x_max":0,"o":"m 290 822 b 239 851 265 822 257 831 l 118 997 b 133 1021 107 1010 104 1021 l 183 1021 b 228 1003 210 1021 215 1018 l 310 903 l 429 1006 b 476 1021 446 1021 451 1021 l 528 1021 b 543 990 556 1021 558 1004 l 371 849 b 310 822 343 826 336 822 l 290 822 m 42 0 b 18 38 21 0 14 13 l 119 604 b 172 682 126 647 135 668 b 363 717 219 699 285 714 b 444 717 393 718 421 718 b 467 681 469 715 472 706 l 458 633 b 429 606 453 608 449 606 b 371 603 408 606 389 604 b 260 582 326 603 285 592 b 233 549 242 574 236 565 l 140 29 b 103 0 136 8 124 0 l 42 0 "},"Ś":{"ha":847,"x_min":0,"x_max":0,"o":"m 393 1100 b 397 1136 383 1113 386 1129 l 619 1268 b 672 1258 640 1279 658 1278 l 694 1225 b 689 1189 704 1211 704 1194 l 446 1072 b 407 1079 425 1064 415 1068 m 347 -21 b 28 204 172 -21 65 51 b 44 263 18 240 18 253 l 111 282 b 150 258 131 289 142 283 b 363 104 176 153 247 104 b 607 278 506 104 596 169 b 413 439 619 393 535 421 b 117 713 235 465 103 526 b 486 1007 128 894 271 1007 b 806 789 660 1007 764 936 b 789 742 815 758 811 747 l 724 721 b 686 739 704 715 693 719 b 476 879 658 835 593 879 b 253 718 349 879 263 821 b 447 557 240 606 325 576 b 743 289 643 524 757 465 b 347 -21 731 93 583 -21 "},"ś":{"ha":669,"x_min":0,"x_max":0,"o":"m 268 857 b 272 892 260 869 263 886 l 496 1024 b 547 1015 517 1035 535 1035 l 571 982 b 565 946 581 968 579 951 l 321 829 b 282 835 301 819 290 824 m 263 -21 b 11 147 124 -21 38 29 b 25 194 1 176 6 189 l 89 211 b 121 194 107 217 115 213 b 275 89 139 119 194 89 b 436 207 378 89 436 129 b 297 311 436 272 390 299 b 76 510 164 329 75 383 b 357 736 78 661 181 738 b 608 579 504 736 589 681 b 590 539 613 556 613 546 l 536 521 b 500 538 510 513 507 522 b 353 626 482 596 439 626 b 197 515 253 628 200 593 b 342 410 196 443 254 422 b 558 211 481 389 558 333 b 263 -21 558 63 447 -21 "},"Ŝ":{"ha":847,"x_min":0,"x_max":0,"o":"m 333 1071 b 317 1101 306 1071 301 1089 l 496 1251 b 540 1271 514 1265 522 1271 l 572 1271 b 617 1249 594 1271 601 1268 l 744 1096 b 729 1071 754 1083 754 1071 l 678 1071 b 632 1093 650 1071 644 1078 l 551 1189 l 433 1088 b 381 1071 415 1071 406 1071 l 333 1071 m 347 -21 b 28 204 172 -21 65 51 b 44 263 18 240 18 253 l 111 282 b 150 258 131 289 142 283 b 363 104 176 153 247 104 b 607 278 506 104 596 169 b 413 439 619 393 535 421 b 117 713 235 465 103 526 b 486 1007 128 894 271 1007 b 806 789 660 1007 764 936 b 789 742 815 758 811 747 l 724 721 b 686 739 704 715 693 719 b 476 879 658 835 593 879 b 253 718 349 879 263 821 b 447 557 240 606 325 576 b 743 289 643 524 757 465 b 347 -21 731 93 583 -21 "},"ŝ":{"ha":669,"x_min":0,"x_max":0,"o":"m 200 824 b 182 854 172 824 167 840 l 361 1003 b 407 1022 381 1018 389 1022 l 438 1022 b 482 1000 460 1022 467 1019 l 610 847 b 596 824 621 836 621 824 l 543 824 b 497 846 517 824 511 829 l 417 942 l 299 839 b 247 824 281 824 271 824 l 200 824 m 263 -21 b 11 147 124 -21 38 29 b 25 194 1 176 6 189 l 89 211 b 121 194 107 217 115 213 b 275 89 139 119 194 89 b 436 207 378 89 436 129 b 297 311 436 272 390 299 b 76 510 164 329 75 383 b 357 736 78 661 181 738 b 608 579 504 736 589 681 b 590 539 613 556 613 546 l 536 521 b 500 538 510 513 507 522 b 353 626 482 596 439 626 b 197 515 253 628 200 593 b 342 410 196 443 254 422 b 558 211 481 389 558 333 b 263 -21 558 63 447 -21 "},"Ş":{"ha":847,"x_min":0,"x_max":0,"o":"m 806 789 b 789 742 815 758 811 747 l 724 721 b 686 739 704 715 693 719 b 476 879 658 835 593 879 b 253 718 349 879 263 821 b 447 557 240 606 325 576 b 743 289 643 524 757 465 b 401 -18 732 108 606 -3 l 358 -96 b 404 -99 374 -94 390 -96 b 479 -197 456 -110 483 -146 b 293 -344 474 -299 396 -344 b 194 -317 243 -344 213 -329 b 178 -289 181 -311 176 -307 l 182 -254 b 196 -244 183 -244 190 -242 b 281 -271 218 -257 242 -271 b 371 -206 333 -271 367 -249 b 324 -158 375 -176 356 -161 b 278 -160 310 -157 293 -158 b 261 -129 258 -161 253 -144 l 322 -21 b 28 204 163 -14 64 58 b 44 263 18 240 18 253 l 111 282 b 150 258 131 289 142 283 b 363 104 176 153 247 104 b 607 278 506 104 596 169 b 413 439 619 393 535 421 b 117 713 235 465 103 526 b 486 1007 128 894 271 1007 b 806 789 660 1007 764 936 "},"ş":{"ha":669,"x_min":0,"x_max":0,"o":"m 189 -340 b 90 -312 140 -340 108 -324 b 75 -285 78 -306 72 -301 l 79 -251 b 94 -242 81 -242 88 -239 b 178 -267 117 -253 140 -267 b 265 -201 229 -267 264 -244 b 225 -156 268 -174 253 -158 b 174 -154 210 -151 192 -153 b 157 -124 154 -156 149 -137 l 217 -18 b 10 147 106 -8 35 42 b 25 194 0 176 4 189 l 88 211 b 119 194 106 217 114 213 b 275 89 139 119 193 89 b 435 207 376 89 435 129 b 296 311 435 272 389 299 b 75 511 163 329 74 383 b 357 736 78 661 179 738 b 607 579 503 736 588 681 b 590 539 611 556 611 546 l 535 521 b 500 538 510 513 507 522 b 351 626 481 596 439 626 b 197 515 253 628 199 593 b 342 410 196 443 254 422 b 557 211 481 389 557 333 b 294 -18 557 74 461 -10 l 254 -92 b 311 -97 275 -89 294 -92 b 374 -193 354 -110 376 -144 b 189 -340 371 -294 293 -340 "},"Š":{"ha":847,"x_min":0,"x_max":0,"o":"m 519 1069 b 468 1100 494 1069 485 1078 l 346 1244 b 361 1269 335 1258 333 1269 l 413 1269 b 457 1250 439 1269 444 1267 l 539 1150 l 657 1254 b 706 1269 675 1269 681 1269 l 756 1269 b 772 1239 785 1269 788 1251 l 600 1096 b 539 1069 572 1074 565 1069 l 519 1069 m 347 -21 b 28 204 172 -21 65 51 b 44 263 18 240 18 253 l 111 282 b 150 258 131 289 142 283 b 363 104 176 153 247 104 b 607 278 506 104 596 169 b 413 439 619 393 535 421 b 117 713 235 465 103 526 b 486 1007 128 894 271 1007 b 806 789 660 1007 764 936 b 789 742 815 758 811 747 l 724 721 b 686 739 704 715 693 719 b 476 879 658 835 593 879 b 253 718 349 879 263 821 b 447 557 240 606 325 576 b 743 289 643 524 757 465 b 347 -21 731 93 583 -21 "},"š":{"ha":669,"x_min":0,"x_max":0,"o":"m 374 822 b 322 851 349 822 340 831 l 201 997 b 217 1021 190 1010 188 1021 l 267 1021 b 311 1003 293 1021 299 1018 l 393 903 l 513 1006 b 560 1021 529 1021 535 1021 l 611 1021 b 626 990 639 1021 642 1004 l 454 849 b 393 822 426 826 419 822 l 374 822 m 263 -21 b 11 147 124 -21 38 29 b 25 194 1 176 6 189 l 89 211 b 121 194 107 217 115 213 b 275 89 139 119 194 89 b 436 207 378 89 436 129 b 297 311 436 272 390 299 b 76 510 164 329 75 383 b 357 736 78 661 181 738 b 608 579 504 736 589 681 b 590 539 613 556 613 546 l 536 521 b 500 538 510 513 507 522 b 353 626 482 596 439 626 b 197 515 253 628 200 593 b 342 410 196 443 254 422 b 558 211 481 389 558 333 b 263 -21 558 63 447 -21 "},"Ţ":{"ha":740,"x_min":0,"x_max":0,"o":"m 251 0 b 224 39 222 0 219 13 l 368 861 l 135 861 b 106 903 107 861 100 872 l 114 954 b 157 986 119 982 132 986 l 761 986 b 788 946 786 986 793 975 l 778 893 b 738 861 772 867 763 861 l 501 861 l 356 31 b 317 0 350 7 339 0 l 251 0 m 144 -351 b 125 -322 125 -351 119 -342 l 199 -124 b 240 -93 206 -97 214 -93 l 296 -93 b 325 -133 328 -93 338 -110 l 226 -325 b 185 -351 214 -347 207 -351 l 144 -351 "},"ţ":{"ha":482,"x_min":0,"x_max":0,"o":"m 453 717 b 479 679 478 717 483 704 l 471 633 b 436 603 467 608 456 603 l 292 603 l 232 271 b 350 118 208 139 247 118 b 374 86 371 118 378 108 l 364 31 b 335 0 360 4 354 1 l 296 0 l 244 -92 b 289 -93 258 -89 274 -90 b 365 -193 340 -103 367 -140 b 181 -340 363 -294 283 -340 b 81 -312 131 -340 99 -324 b 67 -285 68 -306 64 -301 l 69 -251 b 86 -242 71 -242 78 -239 b 168 -267 108 -253 132 -267 b 257 -201 221 -267 254 -244 b 207 -153 258 -172 239 -154 b 165 -154 193 -151 179 -153 b 147 -124 144 -156 139 -137 l 224 8 b 110 274 118 33 82 111 l 168 603 l 78 603 b 50 639 54 603 44 611 l 60 689 b 99 717 64 713 76 717 l 188 717 l 211 854 b 253 883 215 879 231 883 l 308 883 b 335 846 333 883 339 871 l 311 717 l 453 717 "},"Ť":{"ha":740,"x_min":0,"x_max":0,"o":"m 461 1056 b 410 1086 436 1056 426 1064 l 288 1231 b 303 1256 276 1244 275 1256 l 354 1256 b 399 1236 381 1256 386 1253 l 481 1136 l 599 1240 b 647 1256 617 1256 622 1256 l 697 1256 b 714 1225 726 1256 729 1238 l 542 1082 b 481 1056 514 1060 507 1056 l 461 1056 m 251 0 b 224 39 222 0 219 13 l 368 861 l 135 861 b 106 903 107 861 100 872 l 114 954 b 157 986 119 982 132 986 l 761 986 b 788 946 786 986 793 975 l 778 893 b 738 861 772 867 763 861 l 501 861 l 356 31 b 317 0 350 7 339 0 l 251 0 "},"ť":{"ha":482,"x_min":0,"x_max":0,"o":"m 433 786 b 414 814 414 786 408 796 l 474 999 b 514 1028 481 1024 488 1028 l 565 1028 b 593 989 594 1028 606 1011 l 503 813 b 463 786 490 792 485 786 l 433 786 m 335 0 b 110 274 144 -6 74 64 l 168 603 l 78 603 b 50 639 54 603 44 611 l 60 689 b 99 717 64 713 76 717 l 188 717 l 211 854 b 253 883 215 879 231 883 l 308 883 b 335 846 333 883 339 871 l 311 717 l 453 717 b 479 679 478 717 483 704 l 471 633 b 436 603 467 608 456 603 l 292 603 l 232 271 b 350 118 208 139 247 118 b 374 86 371 118 378 108 l 364 31 b 335 0 360 4 354 1 "},"Ŧ":{"ha":735,"x_min":0,"x_max":0,"o":"m 251 0 b 219 35 225 0 215 7 l 286 408 l 132 408 b 113 436 114 408 108 415 l 119 485 b 143 504 124 503 128 504 l 303 504 l 365 861 l 136 861 b 104 899 108 861 100 872 l 114 954 b 153 986 119 982 135 986 l 757 986 b 782 946 783 986 786 972 l 772 893 b 736 861 769 871 760 861 l 499 861 l 436 504 l 590 504 b 611 476 608 504 615 497 l 603 428 b 579 408 600 411 596 408 l 419 408 l 353 31 b 310 0 347 4 335 0 l 251 0 "},"ŧ":{"ha":482,"x_min":0,"x_max":0,"o":"m 326 0 b 108 265 138 -6 72 57 l 121 339 l 43 339 b 25 368 26 339 22 349 l 32 406 b 57 426 35 421 42 426 l 136 426 l 168 603 l 75 603 b 50 639 53 603 46 615 l 60 689 b 97 717 64 713 76 717 l 188 717 l 211 854 b 249 883 215 879 232 883 l 308 883 b 335 846 331 883 339 871 l 311 717 l 454 717 b 479 679 478 717 483 704 l 471 631 b 436 603 467 610 457 603 l 292 603 l 261 426 l 385 426 b 401 397 404 426 406 418 l 394 360 b 369 339 392 342 385 339 l 244 339 l 232 271 b 346 118 208 144 243 115 b 374 86 374 118 376 107 l 364 31 b 326 0 360 4 354 1 "},"Ũ":{"ha":924,"x_min":0,"x_max":0,"o":"m 379 1068 b 363 1106 364 1068 360 1076 b 483 1235 374 1189 415 1235 b 653 1147 579 1235 594 1147 b 711 1217 683 1147 704 1175 b 729 1235 714 1231 717 1235 l 769 1235 b 783 1199 785 1235 788 1226 b 667 1068 769 1113 732 1068 b 494 1154 572 1068 557 1154 b 435 1088 464 1154 440 1129 b 417 1068 433 1074 429 1068 l 379 1068 m 376 -21 b 83 342 139 -21 43 117 l 192 956 b 233 986 196 982 210 986 l 294 986 b 324 947 324 986 328 975 l 215 332 b 388 104 190 188 249 104 b 654 342 539 104 628 190 l 763 956 b 806 986 768 983 785 986 l 868 986 b 894 947 893 986 899 975 l 786 333 b 376 -21 747 108 606 -21 "},"ũ":{"ha":739,"x_min":0,"x_max":0,"o":"m 246 840 b 229 878 231 840 226 850 b 349 1007 242 961 276 1007 b 518 921 446 1007 463 921 b 576 990 550 921 575 947 b 596 1007 579 1004 582 1007 l 636 1007 b 650 972 650 1007 654 999 b 533 840 639 885 600 840 b 361 928 439 840 421 928 b 301 860 325 928 310 900 b 283 840 300 846 296 840 l 246 840 m 272 -21 b 54 258 92 -21 22 86 l 129 688 b 167 717 132 710 147 717 l 226 717 b 251 679 250 717 256 704 l 176 254 b 292 92 157 144 190 92 b 429 117 350 92 399 104 b 457 153 446 124 453 133 l 551 689 b 588 717 554 708 568 717 l 646 717 b 674 679 672 717 678 704 l 572 101 b 515 22 564 57 556 40 b 272 -21 464 -1 390 -21 "},"Ū":{"ha":924,"x_min":0,"x_max":0,"o":"m 415 1103 b 388 1139 390 1103 383 1115 l 392 1167 b 433 1193 396 1190 413 1193 l 739 1193 b 767 1157 764 1193 771 1182 l 763 1132 b 726 1103 758 1110 744 1103 l 415 1103 m 376 -21 b 83 342 139 -21 43 117 l 192 956 b 233 986 196 982 210 986 l 294 986 b 324 947 324 986 328 975 l 215 332 b 388 104 190 188 249 104 b 654 342 539 104 628 190 l 763 956 b 806 986 768 983 785 986 l 868 986 b 894 947 893 986 899 975 l 786 333 b 376 -21 747 108 606 -21 "},"ū":{"ha":739,"x_min":0,"x_max":0,"o":"m 281 872 b 253 908 256 872 250 885 l 258 936 b 300 963 261 960 278 963 l 604 963 b 632 928 629 963 638 953 l 628 901 b 592 872 624 879 611 872 l 281 872 m 272 -21 b 54 258 92 -21 22 86 l 129 688 b 167 717 132 710 147 717 l 226 717 b 251 679 250 717 256 704 l 176 254 b 292 92 157 144 190 92 b 429 117 350 92 399 104 b 457 153 446 124 453 133 l 551 689 b 588 717 554 708 568 717 l 646 717 b 674 679 672 717 678 704 l 572 101 b 515 22 564 57 556 40 b 272 -21 464 -1 390 -21 "},"Ŭ":{"ha":924,"x_min":0,"x_max":0,"o":"m 571 1058 b 393 1207 471 1058 408 1108 b 404 1238 388 1226 390 1233 l 450 1253 b 481 1236 467 1258 475 1254 b 575 1149 489 1179 522 1149 b 701 1242 632 1149 674 1178 b 732 1251 710 1257 715 1258 l 781 1233 b 789 1200 796 1226 797 1221 b 571 1058 750 1108 671 1058 m 376 -21 b 83 342 139 -21 43 117 l 192 956 b 233 986 196 982 210 986 l 294 986 b 324 947 324 986 328 975 l 215 332 b 388 104 190 188 249 104 b 654 342 539 104 628 190 l 763 956 b 806 986 768 983 785 986 l 868 986 b 894 947 893 986 899 975 l 786 333 b 376 -21 747 108 606 -21 "},"ŭ":{"ha":739,"x_min":0,"x_max":0,"o":"m 433 826 b 254 975 333 826 271 876 b 267 1006 250 994 253 1001 l 313 1021 b 343 1004 329 1025 336 1021 b 436 917 351 944 383 917 b 563 1010 494 917 532 949 b 593 1019 571 1025 576 1026 l 642 1001 b 650 968 658 994 660 989 b 433 826 607 879 532 826 m 272 -21 b 54 258 92 -21 22 86 l 129 688 b 167 717 132 710 147 717 l 226 717 b 251 679 250 717 256 704 l 176 254 b 292 92 157 144 190 92 b 429 117 350 92 399 104 b 457 153 446 124 453 133 l 551 689 b 588 717 554 708 568 717 l 646 717 b 674 679 672 717 678 704 l 572 101 b 515 22 564 57 556 40 b 272 -21 464 -1 390 -21 "},"Ů":{"ha":924,"x_min":0,"x_max":0,"o":"m 568 1043 b 444 1176 489 1043 439 1096 b 600 1324 450 1264 514 1324 b 724 1192 679 1324 729 1272 b 568 1043 719 1106 654 1043 m 574 1106 b 663 1189 621 1106 657 1140 b 600 1261 667 1233 642 1261 b 508 1181 550 1261 513 1229 b 574 1106 503 1136 531 1106 m 376 -21 b 83 342 139 -21 43 117 l 192 956 b 233 986 196 982 210 986 l 294 986 b 324 947 324 986 328 975 l 215 332 b 388 104 190 188 249 104 b 654 342 539 104 628 190 l 763 956 b 806 986 768 983 785 986 l 868 986 b 894 947 893 986 899 975 l 786 333 b 376 -21 747 108 606 -21 "},"ů":{"ha":739,"x_min":0,"x_max":0,"o":"m 429 789 b 304 921 349 789 299 840 b 460 1069 310 1008 374 1069 b 583 936 539 1069 588 1017 b 429 789 579 850 514 789 m 435 850 b 521 935 481 850 517 885 b 458 1006 525 978 501 1006 b 368 925 410 1006 374 972 b 435 850 363 881 390 850 m 272 -21 b 54 258 92 -21 22 86 l 129 688 b 167 717 132 710 147 717 l 226 717 b 251 679 250 717 256 704 l 176 254 b 292 92 157 144 190 92 b 429 117 350 92 399 104 b 457 153 446 124 453 133 l 551 689 b 588 717 554 708 568 717 l 646 717 b 674 679 672 717 678 704 l 572 101 b 515 22 564 57 556 40 b 272 -21 464 -1 390 -21 "},"Ű":{"ha":924,"x_min":0,"x_max":0,"o":"m 388 1067 b 378 1101 368 1074 365 1088 l 511 1246 b 558 1261 526 1264 538 1269 l 601 1246 b 608 1207 622 1236 626 1221 l 447 1071 b 407 1060 431 1057 419 1056 m 611 1068 b 601 1103 592 1075 589 1089 l 736 1246 b 785 1261 751 1263 763 1269 l 826 1244 b 833 1207 847 1235 851 1219 l 671 1071 b 632 1061 654 1058 644 1057 m 376 -21 b 83 342 139 -21 43 117 l 192 956 b 233 986 196 982 210 986 l 294 986 b 324 947 324 986 328 975 l 215 332 b 388 104 190 188 249 104 b 654 342 539 104 628 190 l 763 956 b 806 986 768 983 785 986 l 868 986 b 894 947 893 986 899 975 l 786 333 b 376 -21 747 108 606 -21 "},"ű":{"ha":739,"x_min":0,"x_max":0,"o":"m 253 826 b 243 861 233 833 231 847 l 376 1006 b 424 1021 392 1022 403 1029 l 467 1004 b 474 967 488 996 492 981 l 313 831 b 274 819 296 818 286 815 m 478 826 b 467 861 457 833 456 847 l 601 1006 b 649 1021 615 1022 626 1029 l 690 1004 b 697 967 711 996 715 981 l 536 831 b 497 819 519 818 510 815 m 272 -21 b 54 258 92 -21 22 86 l 129 688 b 167 717 132 710 147 717 l 226 717 b 251 679 250 717 256 704 l 176 254 b 292 92 157 144 190 92 b 429 117 350 92 399 104 b 457 153 446 124 453 133 l 551 689 b 588 717 554 708 568 717 l 646 717 b 674 679 672 717 678 704 l 572 101 b 515 22 564 57 556 40 b 272 -21 464 -1 390 -21 "},"Ų":{"ha":924,"x_min":0,"x_max":0,"o":"m 421 -342 b 325 -257 371 -342 328 -319 b 479 -1 321 -187 374 -97 b 374 -21 449 -15 410 -21 b 83 342 135 -21 43 121 l 192 956 b 235 986 196 982 210 986 l 297 986 b 324 947 322 986 328 975 l 215 332 b 388 104 190 189 246 104 b 654 340 542 104 628 193 l 763 956 b 801 986 768 983 785 986 l 867 986 b 894 947 892 986 899 975 l 786 333 b 628 51 764 213 715 118 b 435 -221 499 -49 432 -172 b 467 -250 438 -243 447 -250 b 529 -224 488 -250 510 -239 b 544 -236 536 -221 542 -226 l 556 -278 b 549 -300 558 -287 556 -294 b 421 -342 510 -333 456 -342 "},"ų":{"ha":740,"x_min":0,"x_max":0,"o":"m 375 -342 b 278 -258 325 -342 279 -321 b 431 3 276 -185 326 -96 b 268 -21 390 -11 336 -21 b 53 258 88 -21 22 89 l 128 686 b 165 717 132 710 143 717 l 226 717 b 251 679 250 717 256 704 l 175 254 b 289 92 156 144 188 92 b 428 117 349 92 397 104 b 456 153 449 125 453 136 l 550 689 b 589 717 553 711 571 717 l 647 717 b 672 679 669 717 676 704 l 569 99 b 546 33 565 75 561 49 b 388 -224 439 -82 385 -171 b 418 -250 389 -242 400 -250 b 481 -224 440 -250 461 -239 b 496 -235 488 -221 493 -225 l 508 -275 b 503 -299 511 -286 510 -293 b 375 -342 464 -333 410 -342 "},"Ŵ":{"ha":1222,"x_min":0,"x_max":0,"o":"m 521 1057 b 504 1088 493 1057 489 1075 l 683 1238 b 728 1257 701 1251 710 1257 l 760 1257 b 804 1235 782 1257 789 1254 l 932 1082 b 917 1057 942 1069 942 1057 l 865 1057 b 819 1079 838 1057 832 1064 l 739 1175 l 621 1074 b 568 1057 603 1057 593 1057 l 521 1057 m 235 0 b 194 33 210 0 196 10 l 128 956 b 154 986 126 979 129 986 l 231 986 b 268 950 260 986 267 976 l 300 347 b 296 185 303 301 300 244 l 303 185 b 363 356 319 249 342 306 l 619 947 b 669 975 632 974 643 975 l 725 975 b 767 939 751 975 767 965 l 813 346 b 813 185 815 293 815 239 l 819 185 b 872 354 833 247 854 304 l 1121 958 b 1163 986 1129 982 1135 986 l 1236 986 b 1257 946 1263 986 1267 971 l 867 26 b 822 0 857 0 846 0 l 751 0 b 711 33 726 0 713 10 l 667 651 b 667 793 664 696 663 743 l 661 793 b 608 644 649 744 628 689 l 346 26 b 300 0 336 0 324 0 l 235 0 "},"ŵ":{"ha":990,"x_min":0,"x_max":0,"o":"m 363 824 b 344 854 335 824 329 840 l 524 1003 b 569 1022 543 1018 551 1022 l 600 1022 b 644 1000 622 1022 629 1019 l 772 847 b 758 824 783 836 783 824 l 706 824 b 660 846 679 824 674 829 l 579 942 l 461 839 b 410 824 443 824 433 824 l 363 824 m 179 -3 b 142 31 157 -3 144 6 l 79 682 b 110 717 78 713 79 717 l 178 717 b 210 679 207 717 210 707 l 236 301 b 236 149 239 251 239 201 l 240 149 b 296 311 256 203 275 261 l 460 676 b 504 706 471 703 478 706 l 561 706 b 594 671 586 706 592 699 l 632 307 b 636 149 635 254 638 201 l 640 149 b 693 313 656 204 671 257 l 853 688 b 890 717 863 717 867 717 l 961 717 b 978 674 985 717 990 704 l 683 22 b 639 -3 674 0 663 -3 l 586 -3 b 547 31 564 -3 549 7 l 513 442 b 510 565 510 483 510 524 l 506 565 b 457 433 492 522 476 476 l 276 22 b 233 -3 267 0 257 -3 l 179 -3 "},"Ŷ":{"ha":856,"x_min":0,"x_max":0,"o":"m 335 1057 b 318 1088 307 1057 303 1075 l 497 1238 b 542 1257 515 1251 524 1257 l 574 1257 b 618 1235 596 1257 603 1254 l 746 1082 b 731 1057 756 1069 756 1057 l 679 1057 b 633 1079 651 1057 646 1064 l 553 1175 l 435 1074 b 382 1057 417 1057 407 1057 l 335 1057 m 304 0 b 279 40 279 0 275 14 l 343 397 l 118 953 b 138 986 111 974 113 986 l 213 986 b 267 950 253 986 260 976 l 432 524 l 751 957 b 813 986 768 983 772 986 l 885 986 b 901 946 910 986 914 967 l 476 394 l 411 33 b 371 0 407 6 397 0 l 304 0 "},"ŷ":{"ha":742,"x_min":0,"x_max":0,"o":"m 232 824 b 214 854 204 824 199 840 l 393 1003 b 439 1022 413 1018 421 1022 l 469 1022 b 514 1000 492 1022 499 1019 l 642 847 b 628 824 653 836 653 824 l 575 824 b 529 846 549 824 543 829 l 449 942 l 331 839 b 279 824 313 824 303 824 l 232 824 m 231 -336 b -7 -186 96 -336 25 -276 b 4 -143 -15 -164 -14 -151 l 58 -115 b 92 -124 69 -110 81 -106 b 229 -225 115 -181 140 -225 b 424 -40 342 -225 400 -158 l 439 36 b 267 4 401 24 344 4 b 57 285 93 4 26 111 l 128 688 b 169 717 132 713 147 717 l 225 717 b 251 679 249 717 256 704 l 181 281 b 294 117 160 169 192 117 b 454 147 368 117 422 135 l 550 689 b 590 717 554 713 571 717 l 647 717 b 672 679 671 717 676 706 l 546 -39 b 231 -336 514 -219 424 -336 "},"Ÿ":{"ha":856,"x_min":0,"x_max":0,"o":"m 403 1089 b 353 1150 358 1089 346 1107 l 356 1163 b 419 1215 363 1204 375 1215 l 428 1215 b 478 1153 471 1215 486 1196 l 476 1142 b 411 1089 468 1099 456 1089 l 403 1089 m 665 1089 b 615 1150 621 1089 607 1107 l 617 1163 b 682 1215 624 1204 638 1215 l 690 1215 b 740 1153 733 1215 747 1196 l 738 1142 b 675 1089 731 1099 718 1089 l 665 1089 m 304 0 b 279 40 279 0 275 14 l 343 397 l 118 953 b 138 986 111 974 113 986 l 213 986 b 267 950 253 986 260 976 l 432 524 l 751 957 b 813 986 768 983 772 986 l 885 986 b 901 946 910 986 914 967 l 476 394 l 411 33 b 371 0 407 6 397 0 l 304 0 "},"Ź":{"ha":774,"x_min":0,"x_max":0,"o":"m 358 1086 b 363 1122 349 1099 351 1115 l 585 1254 b 638 1244 606 1265 624 1264 l 660 1211 b 654 1175 669 1197 669 1181 l 411 1058 b 372 1065 390 1050 381 1054 m 11 0 b -19 38 -19 0 -24 11 l -10 92 b 6 131 -7 108 -4 118 l 611 863 l 167 863 b 139 903 136 863 133 876 l 147 954 b 188 986 153 982 164 986 l 758 986 b 786 946 783 986 790 974 l 775 894 b 760 857 772 878 768 868 l 156 125 l 614 125 b 643 85 644 125 647 113 l 633 32 b 593 0 628 4 618 0 l 11 0 "},"ź":{"ha":611,"x_min":0,"x_max":0,"o":"m 242 857 b 246 892 233 869 236 886 l 469 1024 b 521 1015 490 1035 508 1035 l 544 982 b 539 946 554 968 553 951 l 294 829 b 256 835 275 819 264 824 m 1 0 b -24 38 -22 0 -28 13 l -15 83 b -1 117 -12 100 -12 104 l 414 606 l 115 606 b 90 642 90 606 85 618 l 99 689 b 138 717 103 713 115 717 l 554 717 b 581 679 578 717 585 704 l 572 633 b 556 597 569 617 564 610 l 138 113 l 454 113 b 482 75 481 113 486 100 l 474 29 b 438 0 469 8 461 0 l 1 0 "},"Ż":{"ha":774,"x_min":0,"x_max":0,"o":"m 496 1085 b 444 1149 450 1085 438 1103 l 447 1158 b 513 1213 456 1204 467 1213 l 519 1213 b 571 1150 565 1213 579 1196 l 569 1140 b 504 1085 561 1094 550 1085 l 496 1085 m 11 0 b -19 38 -19 0 -24 11 l -10 92 b 6 131 -7 108 -4 118 l 611 863 l 167 863 b 139 903 136 863 133 876 l 147 954 b 188 986 153 982 164 986 l 758 986 b 786 946 783 986 790 974 l 775 894 b 760 857 772 878 768 868 l 156 125 l 614 125 b 643 85 644 125 647 113 l 633 32 b 593 0 628 4 618 0 l 11 0 "},"ż":{"ha":611,"x_min":0,"x_max":0,"o":"m 357 865 b 314 929 318 865 306 881 l 318 947 b 374 1004 326 993 336 1004 l 417 1004 b 458 939 456 1004 467 983 l 456 921 b 400 865 447 874 438 865 l 357 865 m 1 0 b -24 38 -22 0 -28 13 l -15 83 b -1 117 -12 100 -12 104 l 414 606 l 115 606 b 90 642 90 606 85 618 l 99 689 b 138 717 103 713 115 717 l 554 717 b 581 679 578 717 585 704 l 572 633 b 556 597 569 617 564 610 l 138 113 l 454 113 b 482 75 481 113 486 100 l 474 29 b 438 0 469 8 461 0 l 1 0 "},"Ž":{"ha":774,"x_min":0,"x_max":0,"o":"m 483 1056 b 432 1086 458 1056 449 1064 l 310 1231 b 325 1256 299 1244 297 1256 l 376 1256 b 421 1236 403 1256 408 1253 l 503 1136 l 621 1240 b 669 1256 639 1256 644 1256 l 719 1256 b 736 1225 749 1256 751 1238 l 564 1082 b 503 1056 536 1060 529 1056 l 483 1056 m 11 0 b -19 38 -19 0 -24 11 l -10 92 b 6 131 -7 108 -4 118 l 611 863 l 167 863 b 139 903 136 863 133 876 l 147 954 b 188 986 153 982 164 986 l 758 986 b 786 946 783 986 790 974 l 775 894 b 760 857 772 878 768 868 l 156 125 l 614 125 b 643 85 644 125 647 113 l 633 32 b 593 0 628 4 618 0 l 11 0 "},"ž":{"ha":611,"x_min":0,"x_max":0,"o":"m 347 822 b 296 851 322 822 314 831 l 175 997 b 190 1021 164 1010 161 1021 l 240 1021 b 285 1003 267 1021 272 1018 l 367 903 l 486 1006 b 533 1021 503 1021 508 1021 l 585 1021 b 600 990 613 1021 615 1004 l 428 849 b 367 822 400 826 393 822 l 347 822 m 1 0 b -24 38 -22 0 -28 13 l -15 83 b -1 117 -12 100 -12 104 l 414 606 l 115 606 b 90 642 90 606 85 618 l 99 689 b 138 717 103 713 115 717 l 554 717 b 581 679 578 717 585 704 l 572 633 b 556 597 569 617 564 610 l 138 113 l 454 113 b 482 75 481 113 486 100 l 474 29 b 438 0 469 8 461 0 l 1 0 "},"ſ":{"ha":353,"x_min":0,"x_max":0,"o":"m 86 0 b 63 38 63 0 58 13 l 163 603 l 82 603 b 53 638 58 603 47 610 l 63 689 b 103 717 67 713 81 717 l 182 717 l 189 750 b 494 1028 221 939 315 1029 b 524 990 521 1028 528 1015 l 515 942 b 486 913 511 917 506 913 b 311 740 375 913 332 861 l 185 29 b 143 0 181 4 167 0 l 86 0 "},"ƒ":{"ha":601,"x_min":0,"x_max":0,"o":"m -118 -306 b -150 -268 -146 -306 -154 -293 l -142 -219 b -111 -190 -137 -194 -132 -190 b 92 -4 3 -190 61 -114 l 211 439 l 75 439 b 47 476 51 439 43 451 l 56 525 b 88 554 61 550 65 554 l 243 554 l 293 740 b 625 1028 342 919 436 1028 b 657 990 651 1028 661 1015 l 647 942 b 618 913 643 917 639 913 b 417 726 503 913 446 838 l 369 554 l 513 554 b 539 517 535 554 544 542 l 531 468 b 499 439 526 443 522 439 l 336 439 l 214 -17 b -118 -306 167 -196 69 -306 "},"Ǻ":{"ha":874,"x_min":0,"x_max":0,"o":"m 468 1200 b 439 1207 451 1194 446 1197 l 428 1224 b 439 1254 419 1239 421 1247 l 649 1349 b 689 1343 669 1357 678 1357 l 714 1313 b 706 1286 722 1301 724 1292 l 468 1200 m -31 0 b -51 40 -57 0 -64 17 l 436 943 b 393 1053 404 963 386 1003 b 546 1176 401 1126 464 1176 b 671 1049 626 1176 674 1122 b 596 940 668 1003 638 958 l 761 32 b 736 0 765 8 763 0 l 672 0 b 619 36 633 0 622 11 l 583 257 l 206 257 l 89 28 b 29 0 78 3 67 0 l -31 0 m 521 971 b 610 1050 568 971 607 1000 b 542 1114 611 1088 583 1114 b 454 1044 492 1114 458 1085 b 521 971 450 1004 474 971 m 565 369 l 510 728 b 507 864 506 774 503 804 l 500 864 b 446 719 492 833 475 783 l 264 369 "},"ǻ":{"ha":660,"x_min":0,"x_max":0,"o":"m 304 1132 b 311 1157 297 1143 300 1154 l 526 1235 b 574 1224 546 1242 563 1239 l 592 1197 b 585 1171 600 1186 599 1174 l 350 1107 b 315 1115 332 1103 322 1107 m 401 794 b 276 928 322 794 272 846 b 432 1075 282 1014 346 1075 b 557 942 511 1075 561 1022 b 401 794 551 856 488 794 m 407 856 b 494 940 454 856 490 890 b 432 1011 499 983 475 1011 b 340 932 382 1011 346 979 b 407 856 335 886 364 856 m 265 -21 b 14 167 71 -21 14 57 b 322 418 14 349 133 418 b 469 404 388 418 444 410 b 483 493 479 456 482 474 b 364 626 493 581 451 626 b 199 543 288 626 238 594 b 160 529 185 524 178 521 l 115 550 b 104 599 93 560 89 575 b 385 738 167 688 249 738 b 606 486 544 738 625 646 b 539 99 592 397 576 315 b 475 17 531 50 517 33 b 265 -21 419 -6 350 -21 m 271 82 b 393 103 319 82 360 90 b 422 135 411 108 418 114 l 453 304 b 307 319 424 311 372 319 b 139 178 188 319 139 263 b 271 82 139 119 168 82 "},"Ǽ":{"ha":1144,"x_min":0,"x_max":0,"o":"m 776 1086 b 781 1122 767 1099 769 1115 l 1003 1254 b 1056 1244 1024 1265 1042 1264 l 1078 1211 b 1072 1175 1088 1197 1088 1181 l 829 1058 b 790 1065 808 1050 799 1054 m -49 0 b -71 39 -75 0 -83 15 l 633 958 b 682 986 651 982 658 986 l 1121 986 b 1146 946 1147 986 1150 972 l 1136 893 b 1100 861 1133 871 1122 861 l 767 861 l 715 561 l 983 561 b 1010 521 1010 561 1014 549 l 1001 469 b 963 438 997 446 988 438 l 693 438 l 638 125 l 979 125 b 1008 83 1010 125 1013 111 l 999 32 b 963 0 994 14 989 0 l 525 0 b 493 40 499 0 489 14 l 526 226 l 222 226 l 81 29 b 15 0 64 4 58 0 l -49 0 m 546 336 l 628 776 l 310 336 "},"ǽ":{"ha":1046,"x_min":0,"x_max":0,"o":"m 447 857 b 451 892 439 869 442 886 l 675 1024 b 726 1015 696 1035 714 1035 l 750 982 b 744 946 760 968 758 951 l 500 829 b 461 835 481 819 469 824 m 233 -21 b 10 181 81 -21 4 54 b 311 419 14 346 114 419 b 440 408 364 419 414 411 l 456 501 b 354 636 464 581 450 636 b 186 540 276 636 231 599 b 146 535 174 524 167 525 l 111 553 b 99 593 89 565 88 575 b 358 738 156 682 236 738 b 532 633 463 738 511 693 b 746 738 579 697 649 738 b 983 547 897 738 985 665 b 693 294 981 372 854 294 b 533 313 636 294 585 301 l 518 226 b 625 72 503 129 526 72 b 814 188 710 72 774 119 b 851 194 824 204 839 201 l 894 171 b 903 129 915 160 914 147 b 618 -21 842 39 761 -21 b 449 57 539 -21 476 13 b 233 -21 399 18 333 -21 m 683 382 b 861 540 808 382 861 456 b 739 644 861 606 824 644 b 560 458 635 644 581 582 l 549 397 b 683 382 596 388 638 382 m 253 81 b 406 146 347 81 389 129 b 411 242 403 171 406 210 l 424 314 b 306 325 399 317 356 325 b 129 196 193 325 135 279 b 253 81 124 117 174 81 "},"Ǿ":{"ha":899,"x_min":0,"x_max":0,"o":"m 432 1100 b 436 1136 422 1113 425 1129 l 658 1268 b 711 1258 679 1279 697 1278 l 733 1225 b 728 1189 743 1211 743 1194 l 485 1072 b 446 1079 464 1064 454 1068 m -1 -57 b -10 -40 -10 -57 -14 -47 l 97 94 b 61 339 57 156 44 239 l 117 656 b 529 1007 156 875 296 1007 b 739 946 619 1007 692 985 l 806 1036 b 829 1044 811 1043 817 1044 l 899 1044 b 908 1029 911 1044 914 1035 l 800 889 b 836 647 840 828 854 747 l 781 331 b 372 -21 743 110 601 -21 b 157 38 281 -21 206 1 l 94 -46 b 69 -57 88 -57 86 -57 l -1 -57 m 660 836 b 519 882 629 867 582 882 b 249 647 367 882 275 794 l 203 382 b 204 235 193 326 193 276 m 379 104 b 649 339 532 104 624 192 l 697 613 b 697 756 707 667 707 715 l 238 149 b 379 104 269 119 319 104 "},"ǿ":{"ha":725,"x_min":0,"x_max":0,"o":"m 294 842 b 299 876 286 854 288 871 l 522 1008 b 574 1000 542 1019 560 1019 l 597 967 b 592 931 606 953 606 936 l 347 814 b 308 821 328 806 317 808 m 4 -50 b -1 -33 -8 -50 -7 -40 l 72 58 b 35 249 36 104 21 169 l 75 476 b 396 738 104 643 218 738 b 557 696 464 738 519 721 l 606 758 b 628 765 613 765 618 765 l 676 765 b 685 750 689 765 690 757 l 607 654 b 642 467 640 608 656 544 l 601 240 b 278 -21 574 76 456 -21 b 125 17 211 -21 161 -7 l 81 -40 b 54 -50 74 -49 67 -50 l 4 -50 m 486 594 b 385 625 463 617 425 625 b 197 468 283 625 214 565 b 165 283 185 399 174 338 b 169 185 154 224 160 201 m 290 92 b 479 249 392 92 464 153 b 510 418 490 311 501 367 b 508 525 521 485 518 504 l 193 119 b 290 92 217 101 249 92 "},"Ș":{"ha":847,"x_min":0,"x_max":0,"o":"m 347 -21 b 28 204 172 -21 65 51 b 44 263 18 240 18 253 l 111 282 b 150 258 131 289 142 283 b 363 104 176 153 247 104 b 607 278 506 104 596 169 b 413 439 619 393 535 421 b 117 713 235 465 103 526 b 486 1007 128 894 271 1007 b 806 789 660 1007 764 936 b 789 742 815 758 811 747 l 724 721 b 686 739 704 715 693 719 b 476 879 658 835 593 879 b 253 718 349 879 263 821 b 447 557 240 606 325 576 b 743 289 643 524 757 465 b 347 -21 731 93 583 -21 m 218 -356 b 199 -326 199 -356 193 -346 l 272 -128 b 314 -97 279 -101 288 -97 l 369 -97 b 399 -137 401 -97 411 -114 l 300 -329 b 258 -356 288 -351 281 -356 l 218 -356 "},"ș":{"ha":669,"x_min":0,"x_max":0,"o":"m 263 -21 b 11 147 124 -21 38 29 b 25 194 1 176 6 189 l 89 211 b 121 194 107 217 115 213 b 275 89 139 119 194 89 b 436 207 378 89 436 129 b 297 311 436 272 390 299 b 76 510 164 329 75 383 b 357 736 78 661 181 738 b 608 579 504 736 589 681 b 590 539 613 556 613 546 l 536 521 b 500 538 510 513 507 522 b 353 626 482 596 439 626 b 197 515 253 628 200 593 b 342 410 196 443 254 422 b 558 211 481 389 558 333 b 263 -21 558 63 447 -21 m 132 -351 b 113 -322 113 -351 107 -342 l 186 -124 b 228 -93 193 -97 201 -93 l 283 -93 b 313 -133 315 -93 325 -110 l 214 -325 b 172 -351 201 -347 194 -351 l 132 -351 "},"ț":{"ha":482,"x_min":0,"x_max":0,"o":"m 335 0 b 110 274 144 -6 74 64 l 168 603 l 78 603 b 50 639 54 603 44 611 l 60 689 b 99 717 64 713 76 717 l 188 717 l 211 854 b 253 883 215 879 231 883 l 308 883 b 335 846 333 883 339 871 l 311 717 l 453 717 b 479 679 478 717 483 704 l 471 633 b 436 603 467 608 456 603 l 292 603 l 232 271 b 350 118 208 139 247 118 b 374 86 371 118 378 108 l 364 31 b 335 0 360 4 354 1 m 107 -351 b 88 -322 88 -351 82 -342 l 161 -124 b 203 -93 168 -97 176 -93 l 258 -93 b 288 -133 290 -93 300 -110 l 189 -325 b 147 -351 176 -347 169 -351 l 107 -351 "},"ȷ":{"ha":319,"x_min":0,"x_max":0,"o":"m -160 -319 b -190 -282 -186 -319 -194 -307 l -182 -233 b -154 -204 -178 -208 -172 -204 b 11 -6 -29 -204 -11 -128 l 133 689 b 171 717 138 710 149 717 l 233 717 b 256 679 256 717 260 704 l 132 -17 b -160 -319 99 -211 54 -319 "},"ˆ":{"ha":542,"x_min":0,"x_max":0,"o":"m 129 813 b 113 843 101 813 97 831 l 292 993 b 336 1013 310 1007 318 1013 l 368 1013 b 413 990 390 1013 397 1008 l 540 838 b 525 813 550 825 550 813 l 474 813 b 428 835 446 813 440 818 l 347 931 l 229 829 b 176 813 211 813 201 813 l 129 813 "},"ˇ":{"ha":490,"x_min":0,"x_max":0,"o":"m 283 811 b 232 842 258 811 250 819 l 110 986 b 125 1011 99 999 97 1011 l 176 1011 b 221 992 203 1011 208 1008 l 303 892 l 422 996 b 469 1011 439 1011 444 1011 l 519 1011 b 536 981 547 1011 550 993 l 364 838 b 303 811 336 815 329 811 l 283 811 "},"˘":{"ha":406,"x_min":0,"x_max":0,"o":"m 260 815 b 82 964 161 815 101 867 b 94 996 78 985 81 992 l 140 1011 b 171 993 157 1015 164 1011 b 264 906 182 933 211 906 b 390 999 322 906 363 938 b 421 1008 399 1014 404 1015 l 469 990 b 478 958 486 985 488 978 b 260 815 438 867 360 815 "},"˙":{"ha":329,"x_min":0,"x_max":0,"o":"m 225 843 b 174 907 179 843 165 861 l 176 917 b 240 971 183 963 194 971 l 249 971 b 300 908 294 971 308 953 l 299 899 b 233 843 290 853 279 843 l 225 843 "},"˚":{"ha":351,"x_min":0,"x_max":0,"o":"m 235 771 b 110 903 156 771 106 822 b 267 1050 115 990 179 1050 b 390 918 346 1050 394 999 b 235 771 385 832 321 771 m 242 832 b 328 917 288 832 324 867 b 265 988 332 960 308 988 b 174 907 217 988 179 956 b 242 832 169 863 197 832 "},"˛":{"ha":379,"x_min":0,"x_max":0,"o":"m 38 -342 b -58 -257 -22 -342 -57 -312 b 108 0 -62 -182 0 -93 l 196 0 b 51 -221 106 -93 49 -176 b 82 -250 53 -240 63 -250 b 142 -225 101 -250 124 -242 b 161 -236 150 -221 157 -224 l 172 -278 b 158 -306 175 -289 172 -296 b 38 -342 125 -329 81 -342 "},"˜":{"ha":431,"x_min":0,"x_max":0,"o":"m 96 831 b 79 868 81 831 76 839 b 200 997 90 951 126 997 b 369 910 297 997 313 910 b 428 979 400 910 422 938 b 447 997 431 993 433 997 l 486 997 b 500 961 501 997 506 989 b 383 831 486 875 450 831 b 211 917 290 831 271 917 b 151 850 175 917 157 892 b 133 831 150 836 146 831 l 96 831 "},"˝":{"ha":556,"x_min":0,"x_max":0,"o":"m 165 817 b 156 853 146 824 143 839 l 289 997 b 336 1013 304 1014 315 1021 l 379 996 b 386 958 400 988 403 971 l 225 821 b 186 810 208 808 199 806 m 389 817 b 379 853 369 824 367 839 l 513 997 b 561 1013 528 1014 539 1021 l 603 996 b 610 958 624 988 628 971 l 449 821 b 410 810 432 808 422 806 "},"̀":{"ha":0,"x_min":0,"x_max":0,"o":"m -285 950 b -289 989 -303 957 -307 971 l -254 1022 b -194 1018 -232 1044 -214 1032 l -25 888 b -22 850 -10 878 -6 865 l -37 833 b -82 833 -49 822 -62 825 "},"́":{"ha":0,"x_min":0,"x_max":0,"o":"m -240 857 b -236 892 -249 869 -246 886 l -12 1024 b 39 1015 8 1035 26 1035 l 63 982 b 57 946 72 968 71 951 l -187 829 b -226 835 -207 819 -218 824 "},"̂":{"ha":0,"x_min":0,"x_max":0,"o":"m -410 824 b -428 854 -437 824 -443 840 l -249 1003 b -203 1022 -229 1018 -221 1022 l -172 1022 b -128 1000 -150 1022 -143 1019 l 0 847 b -14 824 11 836 11 824 l -67 824 b -112 846 -93 824 -99 829 l -193 942 l -311 839 b -362 824 -329 824 -339 824 l -410 824 "},"̃":{"ha":0,"x_min":0,"x_max":0,"o":"m -332 840 b -349 878 -347 840 -351 850 b -229 1007 -336 961 -301 1007 b -60 921 -132 1007 -115 921 b -1 990 -28 921 -3 947 b 18 1007 1 1004 4 1007 l 58 1007 b 72 972 72 1007 76 999 b -44 840 61 885 22 840 b -217 928 -139 840 -157 928 b -276 860 -253 928 -268 900 b -294 840 -278 846 -282 840 l -332 840 "},"̄":{"ha":0,"x_min":0,"x_max":0,"o":"m -346 872 b -374 908 -371 872 -376 885 l -368 936 b -326 963 -365 960 -349 963 l -22 963 b 6 928 3 963 11 953 l 1 901 b -35 872 -3 879 -15 872 l -346 872 "},"̆":{"ha":0,"x_min":0,"x_max":0,"o":"m -143 826 b -322 975 -243 826 -306 876 b -310 1006 -326 994 -324 1001 l -264 1021 b -233 1004 -247 1025 -240 1021 b -140 917 -225 944 -193 917 b -14 1010 -82 917 -44 949 b 17 1019 -6 1025 0 1026 l 65 1001 b 74 968 82 994 83 989 b -143 826 31 879 -44 826 "},"̇":{"ha":0,"x_min":0,"x_max":0,"o":"m -117 865 b -160 929 -156 865 -168 881 l -156 947 b -100 1004 -147 993 -137 1004 l -57 1004 b -15 939 -18 1004 -7 983 l -18 921 b -74 865 -26 874 -36 865 l -117 865 "},"̈":{"ha":0,"x_min":0,"x_max":0,"o":"m -383 856 b -433 919 -428 856 -442 874 l -432 931 b -368 985 -424 974 -412 985 l -358 985 b -307 921 -314 985 -299 965 l -308 911 b -375 856 -317 867 -329 856 l -383 856 m -129 856 b -181 919 -175 856 -189 874 l -179 931 b -114 985 -171 974 -158 985 l -106 985 b -54 921 -60 985 -46 965 l -56 911 b -121 856 -64 867 -76 856 l -129 856 "},"̊":{"ha":0,"x_min":0,"x_max":0,"o":"m -112 789 b -237 921 -193 789 -243 840 b -82 1069 -232 1008 -168 1069 b 42 936 -3 1069 46 1017 b -112 789 38 850 -28 789 m -107 850 b -21 935 -61 850 -25 885 b -83 1006 -17 978 -40 1006 b -174 925 -132 1006 -168 972 b -107 850 -179 881 -151 850 "},"̋":{"ha":0,"x_min":0,"x_max":0,"o":"m -389 826 b -399 861 -408 833 -411 847 l -265 1006 b -218 1021 -250 1022 -239 1029 l -175 1004 b -168 967 -154 996 -150 981 l -329 831 b -368 819 -346 818 -356 815 m -164 826 b -175 861 -185 833 -186 847 l -40 1006 b 7 1021 -26 1022 -15 1029 l 49 1004 b 56 967 69 996 74 981 l -106 831 b -144 819 -122 818 -132 815 "},"̌":{"ha":0,"x_min":0,"x_max":0,"o":"m -206 822 b -257 851 -231 822 -239 831 l -378 997 b -362 1021 -389 1010 -392 1021 l -312 1021 b -268 1003 -286 1021 -281 1018 l -186 903 l -67 1006 b -19 1021 -50 1021 -44 1021 l 32 1021 b 47 990 60 1021 63 1004 l -125 849 b -186 822 -153 826 -160 822 l -206 822 "},"̧":{"ha":0,"x_min":0,"x_max":0,"o":"m -333 -340 b -433 -312 -383 -340 -415 -324 b -449 -285 -446 -306 -450 -301 l -444 -251 b -429 -242 -443 -242 -436 -239 b -346 -267 -407 -253 -383 -267 b -257 -201 -293 -267 -260 -244 b -307 -153 -256 -172 -275 -156 b -349 -154 -321 -151 -335 -153 b -367 -124 -369 -156 -375 -137 l -296 0 l -218 0 l -269 -92 b -226 -93 -256 -89 -240 -90 b -149 -193 -174 -101 -147 -140 b -333 -340 -151 -294 -231 -340 "},"̨":{"ha":0,"x_min":0,"x_max":0,"o":"m -342 -342 b -437 -257 -401 -342 -436 -312 b -271 0 -442 -182 -379 -93 l -183 0 b -328 -221 -274 -93 -331 -176 b -297 -250 -326 -240 -317 -250 b -237 -225 -278 -250 -256 -242 b -218 -236 -229 -221 -222 -224 l -207 -278 b -221 -306 -204 -289 -207 -296 b -342 -342 -254 -329 -299 -342 "},"π":{"ha":847,"x_min":0,"x_max":0,"o":"m 671 -1 b 626 18 649 -11 638 -7 b 589 211 594 83 589 133 l 589 603 l 315 603 l 315 33 b 285 0 315 8 307 0 l 222 0 b 192 33 199 0 192 8 l 192 603 b 90 571 151 601 132 594 b 49 585 71 561 60 563 l 26 631 b 42 674 17 653 21 664 b 231 717 104 708 153 717 l 769 717 b 801 683 793 717 801 708 l 801 638 b 769 603 801 613 793 603 l 713 603 l 713 206 b 740 69 713 146 715 115 b 724 21 750 44 747 31 l 671 -1 "},"Ё":{"ha":774,"x_min":0,"x_max":0,"o":"m 379 1089 b 329 1150 335 1089 322 1107 l 332 1163 b 396 1215 339 1204 351 1215 l 404 1215 b 454 1153 447 1215 463 1196 l 453 1142 b 388 1089 444 1099 432 1089 l 379 1089 m 642 1089 b 592 1150 597 1089 583 1107 l 593 1163 b 658 1215 600 1204 614 1215 l 667 1215 b 717 1153 710 1215 724 1196 l 714 1142 b 651 1089 707 1099 694 1089 l 642 1089 m 64 0 b 38 38 39 0 33 11 l 199 953 b 242 986 203 981 217 986 l 747 986 b 775 946 776 986 779 974 l 765 894 b 729 861 761 869 751 861 l 315 861 l 263 563 l 613 563 b 640 525 638 563 646 553 l 631 471 b 594 438 626 446 617 438 l 242 438 l 186 125 l 607 125 b 638 86 636 125 643 114 l 628 32 b 592 0 624 7 613 0 l 64 0 "},"А":{"ha":874,"x_min":0,"x_max":0,"o":"m -31 0 b -51 40 -57 0 -64 17 l 442 963 b 486 989 454 988 463 989 l 554 989 b 592 956 578 989 588 979 l 761 32 b 736 0 764 8 761 0 l 671 0 b 618 36 633 0 622 11 l 582 257 l 207 257 l 89 28 b 31 0 76 3 67 0 l -31 0 m 564 369 l 510 722 b 506 864 506 769 501 801 l 499 864 b 440 713 490 831 471 779 l 264 369 "},"Б":{"ha":850,"x_min":0,"x_max":0,"o":"m 61 0 b 38 39 35 0 33 14 l 199 954 b 242 986 203 981 217 986 l 779 986 b 808 947 810 986 813 974 l 800 893 b 763 861 794 868 783 861 l 315 861 l 265 578 l 506 578 b 760 344 679 578 765 500 b 404 0 756 142 629 0 l 61 0 m 419 122 b 628 331 564 122 626 222 b 481 463 629 417 586 463 l 246 463 l 186 122 "},"В":{"ha":871,"x_min":0,"x_max":0,"o":"m 68 0 b 38 40 35 0 33 13 l 199 954 b 235 986 203 976 214 986 l 561 986 b 811 771 725 986 811 910 b 653 513 811 654 761 565 l 651 508 b 764 324 722 478 764 422 b 422 0 764 131 632 0 l 68 0 m 500 558 b 676 735 608 558 672 629 b 540 864 681 819 636 864 l 317 864 l 263 558 m 421 122 b 633 324 550 122 633 206 b 500 444 633 403 586 444 l 242 444 l 186 122 "},"Г":{"ha":689,"x_min":0,"x_max":0,"o":"m 63 0 b 38 40 38 0 33 13 l 199 954 b 236 986 203 978 214 986 l 710 986 b 735 946 735 986 739 974 l 725 894 b 690 863 721 869 711 863 l 315 863 l 169 32 b 129 0 164 6 153 0 l 63 0 "},"Д":{"ha":963,"x_min":0,"x_max":0,"o":"m -56 -212 b -81 -172 -82 -212 -85 -199 l -33 92 b 7 125 -29 119 -17 125 l 42 125 b 264 669 107 168 193 267 l 314 953 b 353 986 318 975 326 986 l 871 986 b 897 946 897 986 901 972 l 753 125 l 821 125 b 849 83 849 125 854 113 l 803 -178 b 767 -212 799 -201 788 -212 l 700 -212 b 674 -175 674 -212 669 -201 l 703 0 l 81 0 l 49 -179 b 11 -212 44 -207 32 -212 l -56 -212 m 619 125 l 749 861 l 428 861 l 392 661 b 200 125 332 315 269 199 "},"Е":{"ha":774,"x_min":0,"x_max":0,"o":"m 64 0 b 38 38 39 0 33 11 l 199 953 b 242 986 203 981 217 986 l 747 986 b 775 946 776 986 779 974 l 765 894 b 729 861 761 869 751 861 l 315 861 l 263 563 l 613 563 b 640 525 638 563 646 553 l 631 471 b 594 438 626 446 617 438 l 242 438 l 186 125 l 607 125 b 638 86 636 125 643 114 l 628 32 b 592 0 624 7 613 0 l 64 0 "},"Ж":{"ha":1240,"x_min":0,"x_max":0,"o":"m -14 0 b -31 40 -42 0 -43 19 l 192 381 b 335 521 235 447 276 493 l 146 954 b 165 986 139 974 140 986 l 251 986 b 296 953 282 986 286 978 l 458 558 b 508 561 475 561 492 561 l 567 561 l 636 954 b 674 986 640 979 651 986 l 740 986 b 768 947 767 986 772 975 l 699 561 l 760 561 b 808 558 775 561 792 561 l 1115 958 b 1169 986 1131 982 1140 986 l 1253 986 b 1269 947 1279 986 1283 965 l 925 517 b 1017 375 971 490 997 442 l 1117 33 b 1094 0 1122 13 1124 0 l 1026 0 b 978 35 990 0 985 7 l 893 332 b 758 439 869 414 847 439 l 678 439 l 606 32 b 568 0 601 4 590 0 l 499 0 b 474 40 475 0 469 14 l 544 439 l 481 439 b 306 325 399 439 357 407 l 117 29 b 61 0 101 3 93 0 l -14 0 "},"З":{"ha":844,"x_min":0,"x_max":0,"o":"m 353 -21 b 21 226 138 -21 51 72 b 42 267 15 251 22 261 l 106 286 b 144 263 128 293 139 286 b 364 104 158 161 218 104 b 606 315 519 104 606 190 b 471 442 606 392 567 442 l 288 442 b 260 482 261 442 257 457 l 268 531 b 306 563 274 558 281 563 l 474 563 b 650 754 588 563 650 649 b 489 882 650 835 592 882 b 235 721 354 882 285 832 b 189 708 225 700 213 700 l 139 726 b 122 778 114 735 110 750 b 497 1007 189 929 293 1007 b 786 779 674 1007 786 921 b 631 506 786 647 732 557 b 736 329 703 475 736 411 b 353 -21 736 111 590 -21 "},"И":{"ha":940,"x_min":0,"x_max":0,"o":"m 64 0 b 39 38 39 0 33 13 l 199 954 b 239 986 203 978 213 986 l 304 986 b 331 946 332 986 335 974 l 249 475 b 179 175 228 365 213 283 l 185 175 b 356 446 243 276 290 358 l 758 969 b 796 986 767 983 778 986 l 871 986 b 900 949 899 986 904 975 l 740 33 b 703 0 736 11 726 0 l 633 0 b 607 38 608 0 603 11 l 694 521 b 767 810 711 619 732 708 l 760 810 b 594 551 701 708 654 631 l 181 15 b 146 0 169 1 163 0 l 64 0 "},"Й":{"ha":911,"x_min":0,"x_max":0,"o":"m 557 1089 b 363 1239 449 1089 383 1139 b 375 1271 357 1260 360 1267 l 426 1286 b 458 1269 444 1290 451 1286 b 561 1181 472 1208 503 1181 b 699 1275 625 1181 669 1211 b 733 1285 708 1290 714 1292 l 786 1265 b 796 1233 804 1260 806 1253 b 557 1089 751 1139 667 1089 m 64 0 b 39 38 39 0 33 13 l 199 954 b 239 986 203 978 213 986 l 304 986 b 331 946 332 986 335 974 l 249 475 b 179 175 228 365 213 283 l 185 175 b 356 446 243 276 290 358 l 758 969 b 796 986 767 983 778 986 l 871 986 b 900 949 899 986 904 975 l 740 33 b 703 0 736 11 726 0 l 633 0 b 607 38 608 0 603 11 l 694 521 b 767 810 711 619 732 708 l 760 810 b 594 551 701 708 654 631 l 181 15 b 146 0 169 1 163 0 l 64 0 "},"К":{"ha":831,"x_min":0,"x_max":0,"o":"m 68 0 b 38 40 39 0 32 10 l 199 956 b 238 986 204 982 218 986 l 304 986 b 331 947 329 986 335 975 l 263 561 l 364 561 l 383 561 l 704 960 b 767 986 725 986 732 986 l 842 986 b 860 947 869 986 872 967 l 507 532 b 608 375 561 507 586 453 l 707 33 b 686 0 713 13 713 0 l 610 0 b 567 36 579 0 572 8 l 486 333 b 363 439 464 413 443 439 l 242 439 l 169 31 b 133 0 164 4 150 0 l 68 0 "},"Л":{"ha":892,"x_min":0,"x_max":0,"o":"m 18 -17 b -25 6 -10 -29 -17 -15 l -47 56 b -36 103 -57 78 -58 92 b 226 638 76 160 147 200 l 283 954 b 328 986 290 982 301 986 l 828 986 b 854 946 853 986 858 974 l 693 32 b 650 0 688 7 676 0 l 585 0 b 560 40 558 0 556 14 l 704 861 l 396 861 l 356 628 b 18 -17 271 143 164 47 "},"М":{"ha":1092,"x_min":0,"x_max":0,"o":"m 64 0 b 38 38 38 0 33 11 l 199 954 b 242 986 203 982 215 986 l 297 986 b 338 954 326 986 331 976 l 521 374 l 913 960 b 961 986 928 985 936 986 l 1028 986 b 1054 946 1054 986 1058 972 l 893 33 b 851 0 889 7 879 0 l 797 0 b 765 38 775 0 760 4 l 856 543 b 921 794 869 621 886 693 l 914 794 b 778 563 867 703 828 636 l 564 251 b 522 229 551 232 544 229 l 482 229 b 446 258 460 229 451 238 l 339 572 b 283 796 314 646 297 701 l 276 796 b 251 533 274 693 265 617 l 163 32 b 124 0 157 4 146 0 l 64 0 "},"Н":{"ha":922,"x_min":0,"x_max":0,"o":"m 68 0 b 38 40 42 0 31 6 l 199 953 b 239 986 203 979 215 986 l 301 986 b 331 947 332 986 335 975 l 263 563 l 683 563 l 753 953 b 797 986 757 981 771 986 l 857 986 b 885 947 885 986 889 975 l 725 38 b 688 0 721 11 713 0 l 622 0 b 592 38 593 0 586 8 l 663 438 l 242 438 l 169 32 b 133 0 165 13 160 0 l 68 0 "},"О":{"ha":899,"x_min":0,"x_max":0,"o":"m 369 -21 b 61 339 128 -21 22 119 l 117 656 b 529 1007 156 875 293 1007 b 836 647 760 1007 875 869 l 781 331 b 369 -21 743 110 600 -21 m 379 104 b 649 339 528 104 622 189 l 706 656 b 518 882 731 804 661 882 b 249 647 367 882 275 794 l 193 331 b 379 104 168 188 232 104 "},"П":{"ha":914,"x_min":0,"x_max":0,"o":"m 63 0 b 38 40 38 0 33 14 l 199 954 b 242 986 204 982 215 986 l 851 986 b 878 946 876 986 882 972 l 717 33 b 674 0 711 6 700 0 l 608 0 b 583 40 582 0 579 14 l 728 861 l 315 861 l 169 33 b 129 0 164 6 154 0 l 63 0 "},"Р":{"ha":844,"x_min":0,"x_max":0,"o":"m 65 0 b 38 38 35 0 33 11 l 199 956 b 243 986 204 979 214 986 l 550 986 b 822 699 739 986 835 885 b 469 358 810 489 674 358 l 228 358 l 169 33 b 132 0 165 10 154 0 l 65 0 m 464 482 b 689 686 593 482 676 556 b 535 861 700 801 647 861 l 315 861 l 250 482 "},"С":{"ha":858,"x_min":0,"x_max":0,"o":"m 367 -21 b 61 339 132 -21 22 118 l 118 657 b 524 1007 156 875 294 1007 b 840 763 722 1007 811 918 b 818 724 846 742 840 731 l 754 706 b 715 733 731 699 721 708 b 515 882 700 835 639 882 b 250 649 363 882 275 794 l 193 329 b 379 104 168 185 232 106 b 626 269 507 104 575 165 b 672 283 638 290 650 292 l 729 263 b 746 210 751 254 760 239 b 367 -21 675 61 558 -21 "},"Т":{"ha":740,"x_min":0,"x_max":0,"o":"m 251 0 b 224 39 222 0 219 13 l 368 861 l 135 861 b 106 903 107 861 100 872 l 114 954 b 157 986 119 982 132 986 l 761 986 b 788 946 786 986 793 975 l 778 893 b 738 861 772 867 763 861 l 501 861 l 356 31 b 317 0 350 7 339 0 l 251 0 "},"У":{"ha":804,"x_min":0,"x_max":0,"o":"m 153 0 b 136 39 126 0 124 18 l 296 285 l 108 953 b 129 986 103 974 103 986 l 192 986 b 249 950 228 986 243 982 l 388 429 l 719 957 b 775 986 735 983 743 986 l 842 986 b 858 946 868 986 871 968 l 286 29 b 226 0 271 3 261 0 l 153 0 "},"Ф":{"ha":1119,"x_min":0,"x_max":0,"o":"m 444 -29 b 419 10 419 -29 415 -15 l 435 90 l 363 90 b 74 446 133 90 35 226 l 93 554 b 500 903 132 775 265 903 l 578 903 l 593 989 b 636 1021 599 1017 610 1021 l 699 1021 b 724 981 725 1021 728 1007 l 710 903 l 778 903 b 1072 546 1021 903 1110 765 l 1054 439 b 639 90 1017 219 868 90 l 567 90 l 551 3 b 508 -29 547 -25 535 -29 l 444 -29 m 454 211 l 557 782 l 482 782 b 225 551 333 782 250 697 l 206 433 b 386 211 181 288 239 211 m 663 211 b 921 442 808 211 896 296 l 942 560 b 763 782 967 706 915 782 l 689 782 l 588 211 "},"Х":{"ha":840,"x_min":0,"x_max":0,"o":"m -32 0 b -43 42 -58 0 -60 19 l 335 504 l 132 956 b 150 986 125 974 126 986 l 236 986 b 283 953 268 986 274 982 l 438 608 l 714 960 b 768 986 733 986 740 986 l 856 986 b 874 949 882 986 886 967 l 507 506 l 719 35 b 693 0 728 14 719 0 l 615 0 b 567 36 583 0 576 7 l 404 403 l 115 29 b 57 0 99 6 83 0 l -32 0 "},"Ц":{"ha":949,"x_min":0,"x_max":0,"o":"m 685 -212 b 657 -175 658 -212 653 -203 l 688 0 l 63 0 b 38 40 36 0 33 14 l 199 954 b 242 986 204 982 215 986 l 306 986 b 331 946 332 986 335 972 l 186 125 l 603 125 l 749 954 b 790 986 754 982 768 986 l 856 986 b 881 946 881 986 885 972 l 736 125 l 801 125 b 832 83 828 125 838 111 l 786 -179 b 744 -212 782 -203 771 -212 l 685 -212 "},"Ч":{"ha":854,"x_min":0,"x_max":0,"o":"m 549 0 b 521 40 522 0 517 11 l 583 389 b 381 365 549 381 479 365 b 106 711 139 365 68 494 l 149 954 b 189 986 154 982 167 986 l 256 986 b 282 946 281 986 286 972 l 239 701 b 403 490 213 554 258 490 b 606 518 500 490 574 510 l 682 953 b 722 986 688 981 701 986 l 788 986 b 815 949 813 986 819 975 l 654 36 b 614 0 650 10 642 0 l 549 0 "},"Ш":{"ha":1249,"x_min":0,"x_max":0,"o":"m 64 0 b 38 40 38 0 33 13 l 199 954 b 240 986 203 982 217 986 l 304 986 b 331 946 331 986 335 974 l 186 125 l 494 125 l 639 954 b 683 986 646 982 658 986 l 747 986 b 772 946 772 986 776 972 l 626 125 l 933 125 l 1079 954 b 1122 986 1085 982 1099 986 l 1186 986 b 1211 946 1213 986 1215 972 l 1050 33 b 1013 0 1046 8 1033 0 l 64 0 "},"Щ":{"ha":1288,"x_min":0,"x_max":0,"o":"m 1022 -212 b 994 -175 996 -212 989 -203 l 1025 0 l 69 0 b 40 36 44 0 36 10 l 203 954 b 244 986 207 982 221 986 l 308 986 b 335 946 335 986 339 972 l 190 125 l 499 125 l 644 954 b 688 986 650 982 665 986 l 753 986 b 778 946 778 986 782 972 l 632 125 l 940 125 l 1085 954 b 1126 986 1092 982 1104 986 l 1192 986 b 1218 946 1218 986 1222 972 l 1074 125 l 1139 125 b 1169 83 1164 125 1175 111 l 1124 -179 b 1082 -212 1118 -204 1108 -212 l 1022 -212 "},"Ъ":{"ha":986,"x_min":0,"x_max":0,"o":"m 190 0 b 167 40 163 0 163 17 l 311 861 l 133 861 b 106 901 107 861 101 874 l 115 954 b 158 986 119 982 132 986 l 433 986 b 460 946 463 986 464 969 l 403 628 l 608 628 b 892 378 801 628 892 536 b 536 0 892 161 756 0 l 190 0 m 533 125 b 758 358 678 125 758 226 b 585 504 758 457 703 504 l 381 504 l 314 125 "},"Ы":{"ha":1193,"x_min":0,"x_max":0,"o":"m 61 0 b 38 40 33 0 33 17 l 199 953 b 240 986 203 981 215 986 l 306 986 b 331 946 333 986 335 969 l 275 628 l 479 628 b 764 378 672 628 764 536 b 407 0 764 161 626 0 l 61 0 m 890 0 b 863 39 865 0 857 8 l 1025 956 b 1065 986 1029 983 1047 986 l 1128 986 b 1157 949 1153 986 1161 978 l 994 31 b 960 0 990 8 979 0 l 890 0 m 404 125 b 629 358 549 125 629 226 b 457 504 629 457 574 504 l 253 504 l 186 125 "},"Ь":{"ha":844,"x_min":0,"x_max":0,"o":"m 61 0 b 38 40 33 0 33 17 l 199 953 b 242 986 203 981 217 986 l 306 986 b 331 946 333 986 335 969 l 275 628 l 479 628 b 764 378 674 628 764 536 b 407 0 764 161 626 0 l 61 0 m 404 125 b 629 358 549 125 629 226 b 454 504 631 457 572 504 l 253 504 l 186 125 "},"Э":{"ha":864,"x_min":0,"x_max":0,"o":"m 335 -21 b 24 222 138 -21 40 67 b 47 263 19 243 25 257 l 111 282 b 150 258 132 289 143 285 b 343 104 165 158 215 104 b 615 338 497 104 589 192 l 633 438 l 301 438 b 271 478 275 438 267 450 l 281 529 b 318 561 285 557 292 561 l 654 561 l 672 657 b 483 882 697 804 622 882 b 231 717 350 882 279 824 b 186 704 219 693 208 696 l 135 724 b 119 774 114 732 106 744 b 496 1007 189 919 303 1007 b 803 649 728 1007 842 868 l 746 329 b 335 -21 708 111 565 -21 "},"Ю":{"ha":1260,"x_min":0,"x_max":0,"o":"m 724 -21 b 419 339 489 -21 382 115 l 436 438 l 242 438 l 169 32 b 128 0 164 4 153 0 l 61 0 b 38 40 36 0 33 14 l 199 954 b 240 986 204 982 215 986 l 306 986 b 331 946 331 986 335 972 l 263 563 l 458 563 l 475 656 b 885 1007 517 882 658 1007 b 1194 646 1122 1007 1233 865 l 1139 331 b 724 -21 1099 107 957 -21 m 736 104 b 1007 339 888 104 981 190 l 1063 656 b 875 882 1088 801 1021 882 b 607 647 722 882 633 794 l 551 331 b 736 104 525 182 593 104 "},"Я":{"ha":869,"x_min":0,"x_max":0,"o":"m 4 0 b -14 40 -22 0 -29 17 l 175 338 b 268 438 199 378 228 417 b 119 660 179 468 118 549 b 468 986 122 864 239 986 l 807 986 b 832 946 836 986 836 968 l 671 33 b 632 0 667 8 657 0 l 565 0 b 539 40 536 0 535 15 l 601 397 l 457 397 b 289 283 376 397 339 364 l 132 29 b 72 0 115 3 106 0 l 4 0 m 624 521 l 683 861 l 464 861 b 254 668 315 861 256 781 b 393 521 253 589 300 521 "},"а":{"ha":689,"x_min":0,"x_max":0,"o":"m 265 -21 b 14 167 71 -21 14 57 b 322 418 14 349 133 418 b 469 404 388 418 444 410 b 483 493 479 456 482 474 b 364 626 493 581 451 626 b 199 543 288 626 238 594 b 160 529 185 524 178 521 l 115 550 b 104 599 93 560 89 575 b 385 738 167 688 249 738 b 606 486 544 738 625 646 b 539 99 592 397 576 315 b 475 17 531 50 517 33 b 265 -21 419 -6 350 -21 m 271 82 b 393 103 319 82 360 90 b 422 135 411 108 418 114 l 453 304 b 307 319 424 311 372 319 b 139 178 188 319 139 263 b 271 82 139 119 168 82 "},"б":{"ha":742,"x_min":0,"x_max":0,"o":"m 297 -21 b 53 260 103 -21 22 89 l 114 606 b 528 1015 165 889 271 1015 l 568 1015 b 675 1033 610 1015 650 1022 b 710 1011 696 1040 706 1035 l 719 965 b 699 922 725 940 719 931 b 564 900 664 907 618 900 l 519 900 b 235 629 353 900 271 831 l 231 608 b 450 701 265 644 347 701 b 654 426 622 701 683 596 l 624 251 b 297 -21 593 79 483 -21 m 307 92 b 501 261 422 92 483 157 l 532 428 b 404 590 550 533 513 590 b 211 453 294 590 235 517 l 176 253 b 307 92 158 147 206 92 "},"в":{"ha":714,"x_min":0,"x_max":0,"o":"m 297 -21 b 78 19 214 -21 126 -4 b 36 107 39 39 28 58 l 125 607 b 194 696 135 658 147 675 b 410 738 256 722 338 738 b 647 546 576 738 656 668 b 519 371 642 464 592 397 b 615 206 586 349 624 296 b 297 -21 606 61 493 -21 m 390 410 b 533 532 475 410 528 457 b 400 642 542 607 493 642 b 274 617 353 642 310 633 b 238 568 251 606 240 593 l 210 410 m 306 69 b 500 213 418 69 492 119 b 382 328 507 290 465 328 l 194 328 l 160 138 b 182 89 156 108 158 99 b 306 69 208 76 263 69 "},"г":{"ha":696,"x_min":0,"x_max":0,"o":"m 261 -21 b 29 161 108 -21 26 43 b 315 399 32 326 136 379 b 511 543 436 413 511 435 b 388 636 513 606 468 636 b 196 526 292 636 244 600 b 161 519 186 514 178 510 l 118 544 b 110 583 97 556 99 568 b 403 735 169 679 258 735 b 624 556 546 735 624 668 b 346 319 622 386 514 340 b 140 172 226 306 140 278 b 268 79 140 106 190 79 b 474 197 365 79 433 121 b 510 204 483 214 493 211 l 557 183 b 564 139 579 174 574 157 b 261 -21 507 29 406 -21 "},"д":{"ha":754,"x_min":0,"x_max":0,"o":"m 286 -21 b 38 260 90 -21 7 89 l 67 429 b 369 694 97 600 197 694 b 569 588 474 694 547 650 b 269 929 613 860 513 926 b 240 961 244 931 236 940 l 249 1007 b 274 1031 251 1028 257 1031 b 672 556 626 1031 732 893 l 618 251 b 286 -21 588 79 472 -21 m 294 85 b 499 257 407 85 479 147 l 529 432 b 389 596 547 539 489 596 b 188 424 269 596 206 531 l 157 250 b 294 85 139 144 186 85 "},"е":{"ha":674,"x_min":0,"x_max":0,"o":"m 393 738 b 636 532 554 738 646 663 b 339 294 626 378 515 294 b 168 304 275 294 221 297 l 154 226 b 274 72 136 126 176 72 b 465 188 365 72 426 121 b 503 194 475 203 488 203 l 546 171 b 554 129 567 160 565 147 b 267 -21 494 39 415 -21 b 33 221 90 -21 21 75 b 69 449 38 271 46 324 b 393 738 103 635 204 738 m 514 525 b 386 644 522 608 474 644 b 194 458 285 644 217 583 l 183 392 b 319 382 228 385 272 382 b 514 525 435 382 504 429 "},"ж":{"ha":993,"x_min":0,"x_max":0,"o":"m -26 0 b -37 43 -53 0 -56 15 l 119 290 b 217 393 151 340 179 374 l 89 682 b 111 717 79 708 81 717 l 163 717 b 218 689 197 717 210 711 l 331 424 l 350 424 l 415 424 l 463 688 b 501 717 468 714 481 717 l 560 717 b 583 679 585 717 588 704 l 539 424 l 601 424 l 622 424 l 829 694 b 872 717 846 718 853 717 l 944 717 b 961 675 976 717 981 700 l 726 386 b 783 282 754 367 769 333 l 850 35 b 826 0 857 8 858 0 l 768 0 b 724 33 732 0 729 8 l 672 236 b 592 310 660 289 643 310 l 518 310 l 469 29 b 431 0 464 6 451 0 l 372 0 b 347 39 347 0 343 13 l 396 310 l 324 310 b 214 229 271 310 246 282 l 93 26 b 44 0 78 0 72 0 l -26 0 "},"з":{"ha":688,"x_min":0,"x_max":0,"o":"m 271 -21 b 4 175 81 -21 17 100 b 25 215 0 199 1 210 l 75 229 b 108 214 96 233 104 232 b 272 89 121 167 147 89 b 449 228 382 89 449 140 b 350 313 449 281 422 313 l 239 313 b 218 350 215 313 214 331 l 224 386 b 253 415 229 411 235 415 l 360 415 b 493 536 439 415 493 464 b 372 629 493 592 456 629 b 178 511 244 629 194 543 b 138 497 165 489 156 490 l 93 514 b 81 561 69 524 71 539 b 378 738 107 622 194 738 b 613 560 531 738 613 672 b 488 371 613 471 567 401 l 488 367 b 569 228 542 346 569 294 b 271 -21 569 67 450 -21 "},"и":{"ha":739,"x_min":0,"x_max":0,"o":"m 272 -21 b 54 258 92 -21 22 86 l 129 688 b 167 717 132 710 147 717 l 226 717 b 251 679 250 717 256 704 l 176 254 b 292 92 157 144 190 92 b 429 117 350 92 399 104 b 457 153 446 124 453 133 l 551 689 b 588 717 554 708 568 717 l 646 717 b 674 679 672 717 678 704 l 572 101 b 515 22 564 57 556 40 b 272 -21 464 -1 390 -21 "},"й":{"ha":739,"x_min":0,"x_max":0,"o":"m 431 810 b 253 958 332 810 272 861 b 265 990 249 979 251 986 l 311 1006 b 342 988 328 1010 335 1006 b 435 900 353 928 382 900 b 561 993 493 900 533 932 b 592 1003 569 1008 575 1010 l 640 985 b 649 953 657 979 658 972 b 431 810 608 861 531 810 m 272 -21 b 54 258 92 -21 22 86 l 129 688 b 167 717 132 710 147 717 l 226 717 b 251 679 250 717 256 704 l 176 254 b 292 92 157 144 190 92 b 429 117 350 92 399 104 b 457 153 446 124 453 133 l 551 689 b 588 717 554 708 568 717 l 646 717 b 674 679 672 717 678 704 l 572 101 b 515 22 564 57 556 40 b 272 -21 464 -1 390 -21 "},"к":{"ha":697,"x_min":0,"x_max":0,"o":"m 46 0 b 22 39 22 0 18 13 l 136 688 b 175 717 140 713 156 717 l 236 717 b 258 679 257 717 263 704 l 214 424 l 304 424 l 325 424 l 543 694 b 599 717 561 718 569 717 l 661 717 b 676 676 690 717 696 699 l 436 397 b 504 283 472 378 489 340 l 569 36 b 544 0 576 8 575 0 l 486 0 b 443 33 454 0 449 8 l 393 236 b 313 310 379 292 361 310 l 193 310 l 144 31 b 106 0 139 6 126 0 l 46 0 "},"л":{"ha":724,"x_min":0,"x_max":0,"o":"m 8 -17 b -28 -1 -12 -26 -21 -17 l -53 58 b -43 96 -60 75 -60 88 b 140 457 19 125 85 153 l 181 686 b 217 717 185 708 197 717 l 632 717 b 656 681 654 717 660 703 l 540 31 b 506 0 535 6 522 0 l 442 0 b 418 38 419 0 414 13 l 517 601 l 286 601 l 258 442 b 8 -17 194 94 100 25 "},"м":{"ha":883,"x_min":0,"x_max":0,"o":"m 44 0 b 21 38 22 0 15 11 l 135 685 b 174 717 139 711 153 717 l 240 717 b 276 686 264 717 272 708 l 401 279 l 672 692 b 718 717 685 713 692 717 l 789 717 b 814 676 815 717 818 704 l 699 31 b 665 0 694 7 682 0 l 607 0 b 583 39 586 0 578 11 l 640 360 b 690 546 649 411 664 479 l 685 546 b 596 396 651 483 625 440 l 440 169 b 400 149 428 151 422 149 l 365 149 b 335 178 346 149 342 158 l 260 399 b 217 547 243 446 232 485 l 213 547 b 193 344 214 476 206 415 l 138 31 b 101 0 132 4 115 0 l 44 0 "},"н":{"ha":747,"x_min":0,"x_max":0,"o":"m 44 0 b 21 36 24 0 15 11 l 135 689 b 174 717 139 713 156 717 l 233 717 b 258 679 256 717 263 704 l 213 424 l 510 424 l 557 685 b 594 717 561 710 571 717 l 656 717 b 679 679 678 717 685 704 l 564 31 b 526 0 560 7 549 0 l 465 0 b 442 38 443 0 438 13 l 490 310 l 192 310 l 142 29 b 107 0 138 7 124 0 l 44 0 "},"о":{"ha":725,"x_min":0,"x_max":0,"o":"m 276 -21 b 35 249 93 -21 7 86 l 75 476 b 394 738 106 647 217 738 b 642 467 579 738 669 628 l 601 240 b 276 -21 572 74 456 -21 m 289 92 b 479 249 393 92 463 153 l 519 476 b 386 625 538 572 482 625 b 197 468 283 625 214 565 l 157 240 b 289 92 140 146 196 92 "},"п":{"ha":739,"x_min":0,"x_max":0,"o":"m 42 0 b 18 38 21 0 14 11 l 121 617 b 179 690 128 657 143 675 b 415 738 236 714 318 738 b 636 458 600 738 668 639 l 561 29 b 524 0 557 8 547 0 l 463 0 b 439 38 442 0 435 11 l 514 463 b 399 625 532 569 497 625 b 264 600 342 625 294 613 b 236 569 244 592 239 583 l 140 29 b 103 0 136 10 125 0 l 42 0 "},"р":{"ha":726,"x_min":0,"x_max":0,"o":"m -11 -306 b -36 -268 -35 -306 -40 -293 l 118 613 b 171 688 126 657 136 671 b 404 738 219 711 311 738 b 639 446 608 738 672 633 l 604 251 b 303 -21 575 85 474 -21 b 139 17 229 -21 167 4 l 86 -276 b 51 -306 83 -293 71 -306 l -11 -306 m 299 92 b 483 263 408 92 465 156 l 517 451 b 390 625 538 571 500 625 b 261 601 336 625 289 613 b 235 567 243 593 238 588 l 158 128 b 299 92 185 114 239 92 "},"с":{"ha":690,"x_min":0,"x_max":0,"o":"m 274 -21 b 36 258 86 -21 3 81 l 74 467 b 382 738 104 643 207 738 b 635 542 538 738 621 664 b 610 504 638 518 632 511 l 560 489 b 524 513 539 482 529 489 b 385 628 511 592 472 628 b 194 460 278 628 214 567 l 157 250 b 285 89 139 149 181 89 b 456 203 381 89 419 138 b 506 231 471 236 479 239 l 558 214 b 565 154 579 207 581 189 b 274 -21 507 36 418 -21 "},"т":{"ha":1126,"x_min":0,"x_max":0,"o":"m 44 0 b 18 38 21 0 14 13 l 121 617 b 178 690 126 653 140 674 b 407 738 232 715 313 738 b 576 681 486 738 546 715 b 810 738 632 707 700 738 b 1025 461 989 738 1056 639 l 949 29 b 907 0 943 4 931 0 l 851 0 b 826 38 826 0 822 11 l 901 465 b 789 625 919 574 886 625 b 632 578 715 625 671 601 b 624 468 635 550 631 511 l 546 29 b 507 0 543 7 529 0 l 449 0 b 425 36 424 0 421 14 l 501 474 b 389 625 519 581 482 625 b 258 600 333 625 292 615 b 236 567 240 590 238 581 l 140 29 b 97 0 136 4 121 0 l 44 0 "},"у":{"ha":742,"x_min":0,"x_max":0,"o":"m 231 -336 b -7 -186 96 -336 25 -276 b 4 -143 -15 -164 -14 -151 l 58 -115 b 92 -124 69 -110 81 -106 b 229 -225 115 -181 140 -225 b 424 -40 342 -225 400 -158 l 439 36 b 267 4 401 24 344 4 b 57 285 93 4 26 111 l 128 688 b 169 717 132 713 147 717 l 225 717 b 251 679 249 717 256 704 l 181 281 b 294 117 160 169 192 117 b 454 147 368 117 422 135 l 550 689 b 590 717 554 713 571 717 l 647 717 b 672 679 671 717 676 706 l 546 -39 b 231 -336 514 -219 424 -336 "},"ф":{"ha":996,"x_min":0,"x_max":0,"o":"m 329 -306 b 303 -269 306 -306 299 -296 l 349 -15 b 271 -21 321 -18 296 -21 b 39 281 104 -21 0 61 l 68 440 b 383 738 108 669 222 738 b 478 731 417 738 453 733 l 525 999 b 564 1028 529 1019 540 1028 l 624 1028 b 649 990 646 1028 653 1017 l 601 732 b 679 738 628 735 654 738 b 911 446 838 738 947 651 l 881 271 b 558 -21 843 57 713 -21 b 472 -14 524 -21 497 -17 l 425 -276 b 388 -306 422 -296 410 -306 l 329 -306 m 289 92 b 367 99 315 92 340 94 l 460 619 b 381 625 431 622 406 625 b 189 435 294 625 215 583 l 160 265 b 289 92 136 128 206 92 m 567 92 b 758 281 649 92 732 129 l 789 450 b 661 625 813 590 746 625 b 583 619 633 625 608 622 l 490 99 b 567 92 511 94 540 92 "},"х":{"ha":660,"x_min":0,"x_max":0,"o":"m -19 0 b -39 42 -53 0 -58 15 l 226 367 l 88 682 b 111 717 79 704 78 717 l 169 717 b 218 685 201 717 213 710 l 321 453 l 507 692 b 557 717 524 717 526 717 l 622 717 b 642 675 651 717 660 700 l 393 369 l 538 35 b 515 0 546 10 547 0 l 451 0 b 404 32 419 0 413 7 l 297 283 l 97 25 b 42 0 81 0 74 0 l -19 0 "},"ц":{"ha":767,"x_min":0,"x_max":0,"o":"m 543 -193 b 522 -160 524 -193 519 -178 l 544 -37 b 496 14 551 4 540 21 b 276 -21 431 4 379 -21 b 54 263 83 -21 24 88 l 129 689 b 167 717 133 707 144 717 l 229 717 b 253 681 251 717 257 704 l 178 263 b 296 92 158 147 186 92 b 456 122 364 92 411 110 l 554 686 b 589 717 557 704 568 717 l 654 717 b 679 685 674 717 683 706 l 581 125 b 675 38 644 128 689 121 l 640 -164 b 607 -193 638 -182 625 -193 l 543 -193 "},"ч":{"ha":686,"x_min":0,"x_max":0,"o":"m 404 0 b 381 36 382 0 375 11 l 422 272 b 267 251 392 264 340 251 b 64 519 93 251 32 338 l 94 688 b 133 717 99 711 111 717 l 192 717 b 217 679 215 717 221 704 l 186 514 b 299 364 168 407 194 364 b 443 390 358 364 406 376 l 496 690 b 531 717 500 710 511 717 l 593 717 b 618 679 617 717 622 704 l 501 29 b 467 0 497 10 489 0 l 404 0 "},"ш":{"ha":1103,"x_min":0,"x_max":0,"o":"m 264 -21 b 56 261 94 -21 24 81 l 131 689 b 167 717 133 708 146 717 l 232 717 b 254 686 251 717 257 704 l 178 256 b 286 92 158 144 188 92 b 442 135 363 92 419 121 b 442 250 435 158 432 201 l 518 689 b 551 717 521 707 533 717 l 615 717 b 642 681 639 717 646 704 l 565 254 b 675 92 546 142 575 92 b 793 114 722 92 763 101 b 824 165 819 124 819 146 l 915 689 b 950 717 919 708 931 717 l 1015 717 b 1040 685 1033 717 1043 704 l 938 104 b 878 18 931 64 925 40 b 653 -21 825 -6 743 -21 b 493 32 585 -21 528 -1 b 264 -21 456 13 375 -21 "},"щ":{"ha":1128,"x_min":0,"x_max":0,"o":"m 906 -193 b 885 -161 886 -193 881 -179 l 906 -36 b 861 15 911 -3 906 22 b 658 -21 803 7 749 -21 b 493 32 586 -21 532 -3 b 267 -21 457 14 379 -21 b 54 261 86 -21 24 86 l 129 688 b 165 717 132 706 143 717 l 229 717 b 254 686 249 717 258 704 l 178 256 b 282 92 157 136 193 92 b 442 133 358 92 413 118 b 440 253 432 163 432 203 l 518 689 b 550 717 521 708 535 717 l 615 717 b 642 685 636 717 644 704 l 564 253 b 671 92 543 138 579 92 b 815 121 728 92 763 106 l 915 689 b 950 717 918 707 932 717 l 1015 717 b 1039 686 1033 717 1043 706 l 940 125 b 1038 43 999 128 1051 121 l 1001 -167 b 969 -193 997 -186 985 -193 l 906 -193 "},"ъ":{"ha":813,"x_min":0,"x_max":0,"o":"m 389 -21 b 188 24 308 -21 229 3 b 143 100 146 44 135 56 l 235 614 l 74 614 b 50 644 54 614 47 625 l 60 694 b 92 717 63 714 72 717 l 349 717 b 371 688 367 717 374 704 l 332 467 b 513 503 389 489 450 503 b 726 285 651 503 738 425 b 389 -21 715 83 589 -21 m 407 85 b 606 272 529 85 594 156 b 485 408 615 360 574 408 b 315 369 422 408 365 392 l 276 151 b 294 107 272 129 274 117 b 407 85 319 94 358 85 "}}}
